<svg width="464" height="415" viewBox="0 0 464 415" fill="none" xmlns="http://www.w3.org/2000/svg">
<mask id="mask0_846_923" style="mask-type:alpha" maskUnits="userSpaceOnUse" x="0" y="0" width="464" height="415">
<rect width="464" height="415" fill="#002C33"/>
</mask>
<g mask="url(#mask0_846_923)">
<path d="M160.846 90.9591L160.846 167.431L94.2868 233.99L94.2868 295.168L18.948 370.507L-42.2302 370.507L-140.227 468.504" stroke="#0095B6" stroke-width="3"/>
<path d="M155.789 92.278C153.027 89.5163 153.027 85.0387 155.789 82.277C158.551 79.5153 163.028 79.5153 165.79 82.277C168.552 85.0387 168.552 89.5163 165.79 92.278C163.028 95.0397 158.551 95.0397 155.789 92.278Z" fill="#0095B6" stroke="#0095B6" stroke-width="3"/>
<path d="M69.0792 206.517L69.0793 244.753L69.0793 282.989L2.5203 349.548L-59.5067 349.831L-160.053 450.378" stroke="#0095B6" stroke-width="3"/>
<path d="M64.021 207.834C61.2593 205.072 61.2593 200.595 64.021 197.833C66.7827 195.071 71.2603 195.071 74.022 197.833C76.7837 200.595 76.7837 205.072 74.022 207.834C71.2603 210.596 66.7827 210.596 64.021 207.834Z" fill="#0095B6" stroke="#0095B6" stroke-width="3"/>
<path d="M293.82 175.889L248.311 175.889L202.803 175.889L123.585 255.108L123.247 328.932L-81.9582 534.137" stroke="#0095B6" stroke-width="3"/>
<path d="M288.339 180.644C291.1 183.406 295.578 183.406 298.34 180.644C301.101 177.882 301.101 173.405 298.34 170.643C295.578 167.881 291.1 167.881 288.339 170.643C285.577 173.405 285.577 177.882 288.339 180.644Z" fill="#0095B6" stroke="#0095B6" stroke-width="3"/>
<path d="M270.594 355.456L225.085 355.456L179.577 355.456L100.359 434.674L100.021 508.498L-19.6489 628.169" stroke="#0095B6" stroke-width="3"/>
<path d="M265.68 360.778C268.442 363.54 272.919 363.54 275.681 360.778C278.443 358.016 278.443 353.539 275.681 350.777C272.919 348.015 268.442 348.015 265.68 350.777C262.919 353.539 262.919 358.016 265.68 360.778Z" fill="#0095B6" stroke="#0095B6" stroke-width="3"/>
<path d="M221.116 202.013L188.937 234.192L156.758 266.372L156.758 336.112L-63.3116 556.182" stroke="#0095B6" stroke-width="3"/>
<circle r="7.0717" transform="matrix(-4.72029e-07 1 1 -4.72029e-07 221.322 201.701)" fill="#0095B6" stroke="#0095B6" stroke-width="3"/>
</g>
</svg>
