<svg width="3972" height="1068" viewBox="0 0 3972 1068" fill="none" xmlns="http://www.w3.org/2000/svg">
<g clip-path="url(#clip0_1303_84)">
<path d="M111.399 986.527L174.94 771.149H194.848L178.761 835.1L110.996 1063.95H91.8937L111.399 986.527ZM37.6019 771.149L91.0893 984.516L107.176 1063.95H87.2689L12.2656 771.149H37.6019ZM280.508 984.516L333.191 771.149H358.527L283.726 1063.95H263.818L280.508 984.516ZM197.06 771.149L259.796 986.527L279.1 1063.95H259.997L193.641 835.1L177.353 771.149H197.06ZM470.135 1067.97C455.926 1067.97 442.856 1065.36 430.925 1060.13C419.128 1054.9 408.806 1047.53 399.959 1038.01C391.245 1028.49 384.474 1017.23 379.649 1004.22C374.956 991.085 372.611 976.741 372.611 961.188V952.541C372.611 935.782 375.09 920.633 380.051 907.093C385.011 893.552 391.848 881.955 400.561 872.302C409.274 862.649 419.195 855.275 430.321 850.182C441.581 844.953 453.378 842.338 465.711 842.338C479.519 842.338 491.784 844.819 502.509 849.779C513.233 854.606 522.216 861.51 529.453 870.493C536.827 879.341 542.39 889.866 546.144 902.065C549.897 914.131 551.774 927.471 551.774 942.083V956.764H387.089V936.252H527.846V933.436C527.578 921.237 525.097 909.841 520.406 899.249C515.848 888.524 509.01 879.81 499.896 873.107C490.779 866.404 479.385 863.052 465.711 863.052C455.523 863.052 446.14 865.198 437.561 869.488C429.115 873.778 421.809 879.944 415.642 887.988C409.61 895.898 404.917 905.35 401.566 916.343C398.349 927.202 396.741 939.269 396.741 952.541V961.188C396.741 973.254 398.483 984.516 401.97 994.974C405.588 1005.3 410.683 1014.41 417.251 1022.32C423.954 1030.23 431.862 1036.4 440.979 1040.82C450.093 1045.25 460.149 1047.46 471.141 1047.46C484.01 1047.46 495.405 1045.11 505.325 1040.42C515.244 1035.6 524.158 1028.02 532.068 1017.7L547.149 1029.36C542.458 1036.33 536.559 1042.77 529.453 1048.67C522.483 1054.57 514.105 1059.26 504.319 1062.74C494.533 1066.23 483.138 1067.97 470.135 1067.97ZM2414.88 1042.83V1063.95H2250.19V1042.83H2414.88ZM2257.63 771.149V1063.95H2232.89V771.149H2257.63ZM2394.35 902.467V923.583H2250.19V902.467H2394.35ZM2413.86 771.149V792.466H2250.19V771.149H2413.86ZM2512.41 1040.82L2582.18 846.361H2606.92L2525.47 1063.95H2507.98L2512.41 1040.82ZM2449.26 846.361L2519.84 1041.43L2523.66 1063.95H2505.97L2424.33 846.361H2449.26ZM2719.52 1067.97C2705.31 1067.97 2692.25 1065.36 2680.31 1060.13C2668.52 1054.9 2658.19 1047.53 2649.35 1038.01C2640.64 1028.49 2633.86 1017.23 2629.04 1004.22C2624.35 991.085 2622 976.741 2622 961.188V952.541C2622 935.782 2624.47 920.633 2629.43 907.093C2634.41 893.552 2641.24 881.955 2649.95 872.302C2658.67 862.649 2668.59 855.275 2679.71 850.182C2690.96 844.953 2702.77 842.338 2715.11 842.338C2728.9 842.338 2741.17 844.819 2751.89 849.779C2762.62 854.606 2771.61 861.51 2778.83 870.493C2786.21 879.341 2791.77 889.866 2795.53 902.065C2799.29 914.131 2801.16 927.471 2801.16 942.083V956.764H2636.48V936.252H2777.24V933.436C2776.96 921.237 2774.49 909.841 2769.79 899.249C2765.24 888.524 2758.4 879.81 2749.29 873.107C2740.18 866.404 2728.78 863.052 2715.11 863.052C2704.91 863.052 2695.53 865.198 2686.95 869.488C2678.51 873.778 2671.2 879.944 2665.04 887.988C2659 895.898 2654.31 905.35 2650.95 916.343C2647.74 927.202 2646.13 939.269 2646.13 952.541V961.188C2646.13 973.254 2647.88 984.516 2651.36 994.974C2654.98 1005.3 2660.08 1014.41 2666.63 1022.32C2673.34 1030.23 2681.25 1036.4 2690.36 1040.82C2699.47 1045.25 2709.53 1047.46 2720.53 1047.46C2733.4 1047.46 2744.79 1045.11 2754.71 1040.42C2764.63 1035.6 2773.55 1028.02 2781.46 1017.7L2796.54 1029.36C2791.84 1036.33 2785.96 1042.77 2778.83 1048.67C2771.87 1054.57 2763.49 1059.26 2753.71 1062.74C2743.92 1066.23 2732.52 1067.97 2719.52 1067.97ZM2864.3 882.358V1063.95H2840.38V846.361H2863.7L2864.3 882.358ZM2941.33 844.753L2940.73 866.872C2938.03 866.471 2935.43 866.136 2932.89 865.867C2930.33 865.599 2927.59 865.465 2924.63 865.465C2914.18 865.465 2905 867.41 2897.09 871.296C2889.3 875.051 2882.75 880.347 2877.38 887.184C2872.02 893.886 2867.92 901.797 2865.11 910.913C2862.3 919.897 2860.68 929.549 2860.29 939.871L2851.43 943.292C2851.43 929.079 2852.91 915.874 2855.86 903.675C2858.81 891.474 2863.31 880.815 2869.33 871.7C2875.51 862.448 2883.21 855.275 2892.46 850.182C2901.85 844.953 2912.85 842.338 2925.44 842.338C2928.53 842.338 2931.53 842.608 2934.48 843.143C2937.57 843.544 2939.85 844.082 2941.33 844.753ZM3039.07 1042.23L3106.83 846.361H3132.75L3040.66 1098.94C3038.79 1103.9 3036.37 1109.4 3033.42 1115.43C3030.61 1121.47 3026.87 1127.23 3022.17 1132.73C3017.62 1138.36 3011.85 1142.92 3004.87 1146.4C2998.04 1150.02 2989.67 1151.83 2979.73 1151.83C2977.19 1151.83 2973.91 1151.5 2969.88 1150.83C2966 1150.29 2963.19 1149.75 2961.44 1149.22L2961.23 1128.91C2962.71 1129.31 2964.85 1129.64 2967.67 1129.91C2970.48 1130.18 2972.44 1130.31 2973.5 1130.31C2982.22 1130.31 2989.53 1128.84 2995.43 1125.89C3001.45 1122.94 3006.48 1118.52 3010.5 1112.62C3014.53 1106.85 3018.08 1099.61 3021.17 1090.9L3039.07 1042.23ZM2975.72 846.361L3045.09 1033.18L3051.52 1058.32L3034.04 1068.17L2949.58 846.361H2975.72ZM3244.37 846.361V866.069H3135.38V846.361H3244.37ZM3175.39 790.455H3199.33V1011.06C3199.33 1021.12 3200.67 1028.69 3203.35 1033.79C3206.02 1038.88 3209.52 1042.3 3213.81 1044.04C3218.1 1045.78 3222.72 1046.66 3227.68 1046.66C3231.3 1046.66 3234.78 1046.46 3238.14 1046.05C3241.49 1045.52 3244.51 1044.98 3247.19 1044.44L3248.18 1064.76C3245.25 1065.69 3241.42 1066.43 3236.74 1066.97C3232.04 1067.64 3227.35 1067.97 3222.65 1067.97C3213.4 1067.97 3205.23 1066.3 3198.13 1062.94C3191.01 1059.46 3185.45 1053.56 3181.43 1045.25C3177.4 1036.8 3175.39 1025.34 3175.39 1010.86V790.455ZM3310.54 755.062V1063.95H3286.6V755.062H3310.54ZM3305.1 941.682L3294.44 935.648C3295.25 922.778 3297.86 910.712 3302.28 899.452C3306.71 888.189 3312.68 878.269 3320.18 869.688C3327.83 861.108 3336.74 854.405 3346.93 849.578C3357.24 844.753 3368.64 842.338 3381.11 842.338C3391.97 842.338 3401.69 843.814 3410.27 846.764C3418.84 849.712 3426.15 854.405 3432.19 860.841C3438.22 867.276 3442.78 875.52 3445.85 885.576C3449.08 895.63 3450.69 907.896 3450.69 922.376V1063.95H3426.55V922.176C3426.55 907.16 3424.47 895.429 3420.32 886.983C3416.17 878.403 3410.27 872.302 3402.63 868.683C3394.99 865.064 3385.93 863.253 3375.48 863.253C3363.95 863.253 3353.83 865.8 3345.11 870.895C3336.53 875.856 3329.29 882.358 3323.41 890.401C3317.64 898.312 3313.21 906.825 3310.13 915.941C3307.05 924.923 3305.37 933.503 3305.1 941.682ZM3531.13 846.361V1063.95H3507.2V846.361H3531.13ZM3502.97 783.416C3502.97 778.858 3504.38 775.038 3507.2 771.954C3510.15 768.737 3514.16 767.127 3519.26 767.127C3524.36 767.127 3528.39 768.737 3531.32 771.954C3534.41 775.038 3535.95 778.858 3535.95 783.416C3535.95 787.842 3534.41 791.661 3531.32 794.879C3528.39 797.963 3524.36 799.504 3519.26 799.504C3514.16 799.504 3510.15 797.963 3507.2 794.879C3504.38 791.661 3502.97 787.842 3502.97 783.416ZM3612.57 892.814V1063.95H3588.65V846.361H3611.57L3612.57 892.814ZM3607.15 941.682L3596.49 935.648C3597.3 922.778 3599.91 910.712 3604.33 899.452C3608.76 888.189 3614.71 878.269 3622.23 869.688C3629.87 861.108 3638.79 854.405 3648.96 849.578C3659.29 844.753 3670.69 842.338 3683.16 842.338C3694.01 842.338 3703.73 843.814 3712.31 846.764C3720.89 849.712 3728.2 854.405 3734.23 860.841C3740.27 867.276 3744.81 875.52 3747.9 885.576C3751.11 895.63 3752.72 907.896 3752.72 922.376V1063.95H3728.6V922.176C3728.6 907.16 3726.52 895.429 3722.37 886.983C3718.22 878.403 3712.31 872.302 3704.66 868.683C3697.03 865.064 3687.98 863.253 3677.52 863.253C3666 863.253 3655.88 865.8 3647.16 870.895C3638.58 875.856 3631.34 882.358 3625.44 890.401C3619.67 898.312 3615.26 906.825 3612.17 915.941C3609.09 924.923 3607.4 933.503 3607.15 941.682ZM3950 846.361H3972.32V1060.13C3972.32 1079.03 3968.7 1095.25 3961.46 1108.8C3954.36 1122.34 3944.23 1132.73 3931.09 1139.97C3918.08 1147.21 3902.74 1150.83 3885.05 1150.83C3876.06 1150.83 3866.81 1149.42 3857.29 1146.6C3847.92 1143.92 3839 1139.77 3830.56 1134.13C3822.23 1128.64 3815.13 1121.8 3809.24 1113.62L3822.71 1098.94C3831.55 1109.67 3841.01 1117.51 3851.06 1122.47C3861.12 1127.56 3871.98 1130.11 3883.65 1130.11C3897.44 1130.11 3909.11 1127.36 3918.63 1121.87C3928.28 1116.37 3935.59 1108.46 3940.54 1098.14C3945.64 1087.81 3948.18 1075.41 3948.18 1060.93V894.223L3950 846.361ZM3797.18 957.368V953.145C3797.18 936.252 3799.05 921.036 3802.81 907.495C3806.69 893.82 3812.25 882.156 3819.49 872.505C3826.73 862.716 3835.51 855.275 3845.83 850.182C3856.29 844.953 3868.08 842.338 3881.23 842.338C3893.82 842.338 3905.03 844.416 3914.81 848.572C3924.59 852.729 3933.03 858.695 3940.15 866.471C3947.25 874.246 3952.95 883.498 3957.24 894.223C3961.65 904.948 3964.88 916.88 3966.88 930.018V983.711C3965.27 996.046 3962.34 1007.37 3958.05 1017.7C3953.76 1027.89 3948.04 1036.8 3940.94 1044.44C3933.84 1051.95 3925.26 1057.78 3915.2 1061.94C3905.28 1065.96 3893.82 1067.97 3880.83 1067.97C3867.82 1067.97 3856.16 1065.29 3845.83 1059.93C3835.51 1054.57 3826.73 1046.99 3819.49 1037.2C3812.25 1027.28 3806.69 1015.55 3802.81 1002.01C3799.05 988.472 3797.18 973.59 3797.18 957.368ZM3821.31 953.145V957.368C3821.31 970.103 3822.58 981.903 3825.12 992.762C3827.67 1003.62 3831.55 1013.07 3836.78 1021.12C3842.02 1029.16 3848.66 1035.46 3856.69 1040.02C3864.74 1044.58 3874.19 1046.86 3885.05 1046.86C3898.85 1046.86 3910.45 1044.24 3919.83 1039.01C3929.22 1033.65 3936.65 1026.61 3942.16 1017.9C3947.65 1009.05 3951.66 999.398 3954.22 988.94V926.399C3952.74 919.293 3950.46 912.053 3947.37 904.68C3944.44 897.307 3940.27 890.535 3934.92 884.369C3929.68 878.068 3922.99 873.04 3914.81 869.285C3906.76 865.398 3896.98 863.454 3885.45 863.454C3874.45 863.454 3864.87 865.733 3856.69 870.291C3848.66 874.85 3842.02 881.219 3836.78 889.396C3831.55 897.44 3827.67 906.892 3825.12 917.752C3822.58 928.611 3821.31 940.409 3821.31 953.145Z" fill="white"/>
<path d="M871.307 972.652H896.04C894.029 992.359 888.6 1009.39 879.751 1023.73C870.904 1037.94 858.84 1048.87 843.558 1056.51C828.274 1064.15 809.842 1067.97 788.26 1067.97C771.638 1067.97 756.557 1064.82 743.017 1058.52C729.611 1052.22 718.083 1043.31 708.431 1031.77C698.78 1020.11 691.339 1006.17 686.111 989.946C680.883 973.724 678.27 955.692 678.27 935.851V899.25C678.27 879.409 680.883 861.443 686.111 845.355C691.339 829.133 698.847 815.191 708.632 803.527C718.418 791.863 730.148 782.881 743.822 776.579C757.494 770.278 772.911 767.127 790.07 767.127C810.848 767.127 828.812 770.949 843.959 778.591C859.107 786.098 871.038 796.958 879.751 811.168C888.6 825.38 894.029 842.541 896.04 862.65H871.307C869.43 846.831 865.274 833.424 858.84 822.431C852.405 811.438 843.491 803.058 832.096 797.292C820.834 791.394 806.826 788.444 790.07 788.444C776.396 788.444 764.198 791.06 753.474 796.287C742.749 801.515 733.633 809.023 726.126 818.81C718.619 828.463 712.855 840.06 708.833 853.601C704.945 867.141 703.002 882.225 703.002 898.848V935.851C703.002 951.939 704.878 966.752 708.632 980.293C712.385 993.835 717.881 1005.57 725.12 1015.49C732.493 1025.41 741.474 1033.12 752.065 1038.61C762.655 1044.11 774.72 1046.86 788.26 1046.86C805.553 1046.86 819.964 1044.11 831.492 1038.61C843.155 1032.98 852.204 1024.67 858.639 1013.68C865.073 1002.68 869.296 989.007 871.307 972.652ZM929.226 958.575V951.939C929.226 936.119 931.504 921.505 936.063 908.099C940.621 894.692 947.122 883.095 955.568 873.308C964.147 863.521 974.401 855.947 986.332 850.584C998.264 845.088 1011.54 842.338 1026.15 842.338C1040.89 842.338 1054.23 845.088 1066.16 850.584C1078.09 855.947 1088.35 863.521 1096.93 873.308C1105.51 883.095 1112.08 894.692 1116.63 908.099C1121.19 921.505 1123.47 936.119 1123.47 951.939V958.575C1123.47 974.394 1121.19 989.008 1116.63 1002.42C1112.08 1015.69 1105.51 1027.22 1096.93 1037C1088.48 1046.79 1078.29 1054.43 1066.36 1059.93C1054.43 1065.29 1041.16 1067.97 1026.55 1067.97C1011.8 1067.97 998.465 1065.29 986.535 1059.93C974.604 1054.43 964.348 1046.79 955.769 1037C947.189 1027.22 940.621 1015.69 936.063 1002.42C931.504 989.008 929.226 974.394 929.226 958.575ZM953.155 951.939V958.575C953.155 970.507 954.763 981.834 957.98 992.56C961.198 1003.15 965.889 1012.6 972.056 1020.92C978.223 1029.09 985.864 1035.53 994.98 1040.22C1004.1 1044.91 1014.62 1047.26 1026.55 1047.26C1038.35 1047.26 1048.74 1044.91 1057.72 1040.22C1066.83 1035.53 1074.47 1029.09 1080.64 1020.92C1086.81 1012.6 1091.43 1003.15 1094.51 992.56C1097.73 981.834 1099.34 970.507 1099.34 958.575V951.939C1099.34 940.141 1097.73 928.946 1094.51 918.354C1091.43 907.763 1086.74 898.313 1080.44 890C1074.27 881.688 1066.63 875.118 1057.52 870.291C1048.4 865.466 1037.94 863.053 1026.15 863.053C1014.35 863.053 1003.89 865.466 994.778 870.291C985.797 875.118 978.156 881.688 971.855 890C965.688 898.313 960.997 907.763 957.78 918.354C954.696 928.946 953.155 940.141 953.155 951.939ZM1189.03 892.814V1063.95H1165.1V846.361H1188.02L1189.03 892.814ZM1183.6 941.682L1172.94 935.649C1173.75 922.778 1176.36 910.713 1180.79 899.452C1185.21 888.19 1191.18 878.269 1198.68 869.689C1206.32 861.109 1215.24 854.406 1225.43 849.579C1235.75 844.753 1247.14 842.338 1259.61 842.338C1270.47 842.338 1280.19 843.814 1288.77 846.764C1297.35 849.712 1304.65 854.406 1310.69 860.841C1316.72 867.276 1321.27 875.52 1324.36 885.576C1327.57 895.63 1329.18 907.897 1329.18 922.377V1063.95H1305.05V922.176C1305.05 907.161 1302.98 895.43 1298.82 886.983C1294.67 878.403 1288.77 872.302 1281.13 868.683C1273.48 865.064 1264.44 863.254 1253.98 863.254C1242.45 863.254 1232.33 865.8 1223.62 870.895C1215.04 875.856 1207.8 882.358 1201.9 890.402C1196.14 898.313 1191.71 906.826 1188.63 915.942C1185.55 924.923 1183.87 933.504 1183.6 941.682ZM1407.21 892.814V1063.95H1383.28V846.361H1406.21L1407.21 892.814ZM1401.78 941.682L1391.12 935.649C1391.93 922.778 1394.54 910.713 1398.97 899.452C1403.39 888.19 1409.36 878.269 1416.86 869.689C1424.5 861.109 1433.42 854.406 1443.61 849.579C1453.93 844.753 1465.32 842.338 1477.79 842.338C1488.65 842.338 1498.37 843.814 1506.95 846.764C1515.53 849.712 1522.83 854.406 1528.87 860.841C1534.9 867.276 1539.46 875.52 1542.54 885.576C1545.76 895.63 1547.37 907.897 1547.37 922.377V1063.95H1523.23V922.176C1523.23 907.161 1521.16 895.43 1517 886.983C1512.85 878.403 1506.95 872.302 1499.31 868.683C1491.67 865.064 1482.62 863.254 1472.16 863.254C1460.63 863.254 1450.51 865.8 1441.8 870.895C1433.22 875.856 1425.98 882.358 1420.08 890.402C1414.32 898.313 1409.89 906.826 1406.81 915.942C1403.73 924.923 1402.05 933.504 1401.78 941.682ZM1685.51 1067.97C1671.31 1067.97 1658.24 1065.36 1646.31 1060.13C1634.51 1054.9 1624.19 1047.53 1615.34 1038.01C1606.63 1028.49 1599.86 1017.23 1595.03 1004.22C1590.34 991.086 1587.99 976.741 1587.99 961.189V952.541C1587.99 935.783 1590.47 920.633 1595.43 907.094C1600.39 893.552 1607.23 881.955 1615.94 872.302C1624.66 862.65 1634.58 855.276 1645.7 850.183C1656.96 844.954 1668.76 842.338 1681.09 842.338C1694.9 842.338 1707.17 844.82 1717.9 849.779C1728.62 854.607 1737.6 861.51 1744.84 870.494C1752.22 879.342 1757.77 889.866 1761.53 902.066C1765.27 914.131 1767.16 927.472 1767.16 942.084V956.765H1602.47V936.253H1743.22V933.437C1742.95 921.237 1740.48 909.841 1735.79 899.25C1731.23 888.524 1724.38 879.81 1715.28 873.107C1706.16 866.404 1694.77 863.053 1681.09 863.053C1670.9 863.053 1661.52 865.198 1652.94 869.488C1644.49 873.778 1637.19 879.944 1631.02 887.989C1624.99 895.898 1620.3 905.35 1616.95 916.343C1613.73 927.202 1612.12 939.27 1612.12 952.541V961.189C1612.12 973.254 1613.86 984.517 1617.35 994.974C1620.97 1005.3 1626.06 1014.41 1632.63 1022.32C1639.33 1030.23 1647.24 1036.4 1656.36 1040.82C1665.48 1045.25 1675.53 1047.46 1686.52 1047.46C1699.39 1047.46 1710.78 1045.11 1720.71 1040.42C1730.63 1035.6 1739.53 1028.02 1747.44 1017.7L1762.53 1029.36C1757.84 1036.33 1751.94 1042.77 1744.84 1048.67C1737.87 1054.57 1729.48 1059.26 1719.7 1062.74C1709.91 1066.23 1698.52 1067.97 1685.51 1067.97ZM1886.6 1047.26C1896.8 1047.26 1906.32 1045.38 1915.16 1041.63C1924.15 1037.74 1931.51 1032.04 1937.27 1024.53C1943.18 1016.89 1946.52 1007.58 1947.33 996.582H1970.25C1969.58 1010.39 1965.36 1022.73 1957.59 1033.59C1949.94 1044.31 1939.9 1052.76 1927.42 1058.92C1915.09 1064.96 1901.48 1067.97 1886.6 1067.97C1871.45 1067.97 1858.05 1065.22 1846.38 1059.73C1834.85 1054.23 1825.21 1046.59 1817.44 1036.8C1809.66 1026.88 1803.76 1015.35 1799.75 1002.21C1795.85 988.941 1793.91 974.663 1793.91 959.378V950.934C1793.91 935.649 1795.85 921.438 1799.75 908.3C1803.76 895.026 1809.66 883.498 1817.44 873.711C1825.21 863.789 1834.85 856.081 1846.38 850.584C1857.91 845.088 1871.26 842.338 1886.4 842.338C1901.96 842.338 1915.89 845.489 1928.23 851.79C1940.69 858.092 1950.62 867.007 1957.98 878.537C1965.5 890.067 1969.58 903.742 1970.25 919.561H1947.33C1946.66 907.897 1943.57 897.842 1938.08 889.396C1932.59 880.95 1925.35 874.447 1916.36 869.89C1907.38 865.332 1897.4 863.053 1886.4 863.053C1874.08 863.053 1863.54 865.466 1854.84 870.291C1846.13 874.985 1839.02 881.487 1833.51 889.799C1828.16 897.976 1824.2 907.361 1821.66 917.953C1819.1 928.41 1817.83 939.403 1817.83 950.934V959.378C1817.83 971.042 1819.05 982.171 1821.45 992.762C1824.01 1003.22 1827.95 1012.54 1833.33 1020.71C1838.82 1028.89 1845.92 1035.39 1854.64 1040.22C1863.47 1044.91 1874.15 1047.26 1886.6 1047.26ZM2092.72 846.361V866.07H1983.74V846.361H2092.72ZM2023.75 790.455H2047.67V1011.06C2047.67 1021.12 2049.01 1028.69 2051.71 1033.79C2054.38 1038.88 2057.87 1042.3 2062.16 1044.04C2066.45 1045.78 2071.08 1046.66 2076.04 1046.66C2079.66 1046.66 2083.14 1046.46 2086.49 1046.05C2089.83 1045.52 2092.85 1044.98 2095.53 1044.44L2096.54 1064.76C2093.59 1065.69 2089.77 1066.43 2085.08 1066.97C2080.4 1067.64 2075.69 1067.97 2071.01 1067.97C2061.76 1067.97 2053.58 1066.3 2046.47 1062.95C2039.37 1059.46 2033.81 1053.56 2029.78 1045.25C2025.76 1036.8 2023.75 1025.34 2023.75 1010.86V790.455Z" fill="#51CDF2"/>
<g clip-path="url(#clip1_1303_84)">
<path d="M-0.476562 475.548L202.322 1.35547H355.213L558.012 475.548H435.065L278.688 105.593L122.47 475.548H-0.476562Z" fill="#5D66B0"/>
<path d="M1045.84 1.35547L843.039 475.548H689.99L487.191 1.35547H610.296L766.515 371.159L922.891 1.35547H1045.84Z" fill="#5D66B0"/>
<path d="M1568.04 1.0542H1091.62V94.296H1272.72V475.548H1385.21V94.296H1568.04V1.0542Z" fill="#5D66B0"/>
<path d="M2131.44 1.35547H1655.02V94.7479H2131.44V1.35547Z" fill="#5D66B0"/>
<path d="M2131.44 191.605H1655.02V284.997H2131.44V191.605Z" fill="#5D66B0"/>
<path d="M2131.44 382.155H1655.02V475.548H2131.44V382.155Z" fill="#5D66B0"/>
<path d="M2617.53 0.30127H2519.14V93.8443H2617.53V0.30127Z" fill="#5D66B0"/>
<path d="M2220.32 475.548H2617.05V383.812H2332.66V1.35547H2220.32V475.548Z" fill="#5D66B0"/>
<path d="M3265.53 1.35547L3062.73 475.548H2909.84L2707.04 1.35547H2829.99L2986.2 371.159L3142.58 1.35547H3265.53Z" fill="#5D66B0"/>
<path d="M3495.74 475.548L3677.62 303.525L3859.67 475.548H3972V1.35547H3859.67V345.401L3677.62 174.131L3495.74 345.401V1.35547H3383.25V475.548H3495.74Z" fill="#5D66B0"/>
</g>
</g>
<defs>
<clipPath id="clip0_1303_84">
<rect width="3972" height="1068" fill="white"/>
</clipPath>
<clipPath id="clip1_1303_84">
<rect width="3972" height="476" fill="white"/>
</clipPath>
</defs>
</svg>
