<svg width="258" height="81" viewBox="0 0 258 81" fill="none" xmlns="http://www.w3.org/2000/svg">
<g clip-path="url(#clip0_901_12359)">
<path d="M152.624 0H145.203V32H171.176V25.697H152.624V0Z" fill="white"/>
<path d="M196.036 20.5191L184.286 8.91602V32H176.865V0H184.286L196.036 11.6031L207.786 0H215.454V32H207.786V8.91602L196.036 20.5191Z" fill="white"/>
<path d="M13.2339 0L0 32H8.03931L18.1812 7.0303L28.4468 32H36.4861L23.1285 0H13.2339Z" fill="white"/>
<path d="M55.1623 32L68.3963 3.12604e-06L60.3569 2.43725e-06L50.215 24.9697L39.9495 6.888e-07L31.9102 0L45.2678 32H55.1623Z" fill="white"/>
<path d="M102.656 0H71.4883V6.08366H83.3617V31.8783L90.7826 32V6.20533H102.656V0Z" fill="white"/>
<path d="M139.513 0H108.346V6.30303H139.513V0Z" fill="white"/>
<path d="M139.513 12.8485H108.346V19.1515H139.513V12.8485Z" fill="white"/>
<path d="M139.513 25.697H108.346V32.0001H139.513V25.697Z" fill="white"/>
<path d="M234.625 0L221.391 32H229.43L239.572 7.0303L249.837 32H257.877L244.519 0H234.625Z" fill="white"/>
</g>
<path d="M6.49219 57.4883L10.1953 44.9375H11.3555L10.418 48.6641L6.46875 62H5.35547L6.49219 57.4883ZM2.19141 44.9375L5.30859 57.3711L6.24609 62H5.08594L0.714844 44.9375H2.19141ZM16.3477 57.3711L19.418 44.9375H20.8945L16.5352 62H15.375L16.3477 57.3711ZM11.4844 44.9375L15.1406 57.4883L16.2656 62H15.1523L11.2852 48.6641L10.3359 44.9375H11.4844ZM27.3989 62.2344C26.5708 62.2344 25.8091 62.082 25.1138 61.7773C24.4263 61.4727 23.8247 61.043 23.3091 60.4883C22.8013 59.9336 22.4067 59.2773 22.1255 58.5195C21.852 57.7539 21.7153 56.918 21.7153 56.0117V55.5078C21.7153 54.5312 21.8598 53.6484 22.1489 52.8594C22.438 52.0703 22.8364 51.3945 23.3442 50.832C23.852 50.2695 24.4302 49.8398 25.0786 49.543C25.7348 49.2383 26.4223 49.0859 27.1411 49.0859C27.9458 49.0859 28.6606 49.2305 29.2856 49.5195C29.9106 49.8008 30.4341 50.2031 30.8559 50.7266C31.2856 51.2422 31.6098 51.8555 31.8286 52.5664C32.0473 53.2695 32.1567 54.0469 32.1567 54.8984V55.7539H22.5591V54.5586H30.7622V54.3945C30.7466 53.6836 30.602 53.0195 30.3286 52.4023C30.063 51.7773 29.6645 51.2695 29.1333 50.8789C28.602 50.4883 27.938 50.293 27.1411 50.293C26.5473 50.293 26.0005 50.418 25.5005 50.668C25.0083 50.918 24.5825 51.2773 24.2231 51.7461C23.8716 52.207 23.5981 52.7578 23.4028 53.3984C23.2153 54.0312 23.1216 54.7344 23.1216 55.5078V56.0117C23.1216 56.7148 23.2231 57.3711 23.4263 57.9805C23.6372 58.582 23.9341 59.1133 24.3169 59.5742C24.7075 60.0352 25.1684 60.3945 25.6997 60.6523C26.2309 60.9102 26.8169 61.0391 27.4575 61.0391C28.2075 61.0391 28.8716 60.9023 29.4497 60.6289C30.0278 60.3477 30.5473 59.9062 31.0083 59.3047L31.8872 59.9844C31.6138 60.3906 31.27 60.7656 30.8559 61.1094C30.4497 61.4531 29.9614 61.7266 29.3911 61.9297C28.8208 62.1328 28.1567 62.2344 27.3989 62.2344ZM140.736 60.7695V62H131.138V60.7695H140.736ZM131.572 44.9375V62H130.13V44.9375H131.572ZM139.54 52.5898V53.8203H131.138V52.5898H139.54ZM140.677 44.9375V46.1797H131.138V44.9375H140.677ZM146.42 60.6523L150.486 49.3203H151.928L147.181 62H146.162L146.42 60.6523ZM142.74 49.3203L146.853 60.6875L147.076 62H146.045L141.287 49.3203H142.74ZM158.49 62.2344C157.662 62.2344 156.901 62.082 156.205 61.7773C155.518 61.4727 154.916 61.043 154.401 60.4883C153.893 59.9336 153.498 59.2773 153.217 58.5195C152.944 57.7539 152.807 56.918 152.807 56.0117V55.5078C152.807 54.5312 152.951 53.6484 153.24 52.8594C153.53 52.0703 153.928 51.3945 154.436 50.832C154.944 50.2695 155.522 49.8398 156.17 49.543C156.826 49.2383 157.514 49.0859 158.233 49.0859C159.037 49.0859 159.752 49.2305 160.377 49.5195C161.002 49.8008 161.526 50.2031 161.947 50.7266C162.377 51.2422 162.701 51.8555 162.92 52.5664C163.139 53.2695 163.248 54.0469 163.248 54.8984V55.7539H153.651V54.5586H161.854V54.3945C161.838 53.6836 161.694 53.0195 161.42 52.4023C161.155 51.7773 160.756 51.2695 160.225 50.8789C159.694 50.4883 159.03 50.293 158.233 50.293C157.639 50.293 157.092 50.418 156.592 50.668C156.1 50.918 155.674 51.2773 155.315 51.7461C154.963 52.207 154.69 52.7578 154.494 53.3984C154.307 54.0312 154.213 54.7344 154.213 55.5078V56.0117C154.213 56.7148 154.315 57.3711 154.518 57.9805C154.729 58.582 155.026 59.1133 155.408 59.5742C155.799 60.0352 156.26 60.3945 156.791 60.6523C157.322 60.9102 157.908 61.0391 158.549 61.0391C159.299 61.0391 159.963 60.9023 160.541 60.6289C161.119 60.3477 161.639 59.9062 162.1 59.3047L162.979 59.9844C162.705 60.3906 162.362 60.7656 161.947 61.1094C161.541 61.4531 161.053 61.7266 160.483 61.9297C159.912 62.1328 159.248 62.2344 158.49 62.2344ZM166.928 51.418V62H165.534V49.3203H166.893L166.928 51.418ZM171.417 49.2266L171.382 50.5156C171.225 50.4922 171.073 50.4727 170.925 50.457C170.776 50.4414 170.616 50.4336 170.444 50.4336C169.835 50.4336 169.3 50.5469 168.839 50.7734C168.385 50.9922 168.003 51.3008 167.69 51.6992C167.378 52.0898 167.139 52.5508 166.975 53.082C166.811 53.6055 166.717 54.168 166.694 54.7695L166.178 54.9688C166.178 54.1406 166.264 53.3711 166.436 52.6602C166.608 51.9492 166.87 51.3281 167.221 50.7969C167.581 50.2578 168.03 49.8398 168.569 49.543C169.116 49.2383 169.757 49.0859 170.491 49.0859C170.671 49.0859 170.846 49.1016 171.018 49.1328C171.198 49.1562 171.331 49.1875 171.417 49.2266ZM177.113 60.7344L181.062 49.3203H182.573L177.206 64.0391C177.097 64.3281 176.956 64.6484 176.784 65C176.62 65.3516 176.402 65.6875 176.128 66.0078C175.863 66.3359 175.527 66.6016 175.12 66.8047C174.722 67.0156 174.234 67.1211 173.655 67.1211C173.507 67.1211 173.316 67.1016 173.081 67.0625C172.855 67.0312 172.691 67 172.589 66.9688L172.577 65.7852C172.663 65.8086 172.788 65.8281 172.952 65.8438C173.116 65.8594 173.23 65.8672 173.292 65.8672C173.8 65.8672 174.226 65.7812 174.57 65.6094C174.921 65.4375 175.214 65.1797 175.448 64.8359C175.683 64.5 175.89 64.0781 176.07 63.5703L177.113 60.7344ZM173.421 49.3203L177.464 60.207L177.839 61.6719L176.82 62.2461L171.898 49.3203H173.421ZM189.078 49.3203V50.4688H182.726V49.3203H189.078ZM185.058 46.0625H186.453V58.918C186.453 59.5039 186.531 59.9453 186.687 60.2422C186.843 60.5391 187.047 60.7383 187.297 60.8398C187.547 60.9414 187.816 60.9922 188.105 60.9922C188.316 60.9922 188.519 60.9805 188.715 60.957C188.91 60.9258 189.086 60.8945 189.242 60.8633L189.3 62.0469C189.129 62.1016 188.906 62.1445 188.633 62.1758C188.359 62.2148 188.086 62.2344 187.812 62.2344C187.273 62.2344 186.797 62.1367 186.383 61.9414C185.968 61.7383 185.644 61.3945 185.41 60.9102C185.175 60.418 185.058 59.75 185.058 58.9062V46.0625ZM192.934 44V62H191.539V44H192.934ZM192.617 54.875L191.996 54.5234C192.043 53.7734 192.195 53.0703 192.453 52.4141C192.711 51.7578 193.059 51.1797 193.496 50.6797C193.942 50.1797 194.461 49.7891 195.055 49.5078C195.656 49.2266 196.32 49.0859 197.047 49.0859C197.68 49.0859 198.246 49.1719 198.746 49.3438C199.246 49.5156 199.672 49.7891 200.024 50.1641C200.375 50.5391 200.641 51.0195 200.82 51.6055C201.008 52.1914 201.102 52.9062 201.102 53.75V62H199.695V53.7383C199.695 52.8633 199.574 52.1797 199.332 51.6875C199.09 51.1875 198.746 50.832 198.301 50.6211C197.856 50.4102 197.328 50.3047 196.719 50.3047C196.047 50.3047 195.457 50.4531 194.949 50.75C194.449 51.0391 194.027 51.418 193.684 51.8867C193.348 52.3477 193.09 52.8438 192.91 53.375C192.731 53.8984 192.633 54.3984 192.617 54.875ZM205.79 49.3203V62H204.395V49.3203H205.79ZM204.149 45.6523C204.149 45.3867 204.231 45.1641 204.395 44.9844C204.567 44.7969 204.801 44.7031 205.098 44.7031C205.395 44.7031 205.63 44.7969 205.801 44.9844C205.981 45.1641 206.071 45.3867 206.071 45.6523C206.071 45.9102 205.981 46.1328 205.801 46.3203C205.63 46.5 205.395 46.5898 205.098 46.5898C204.801 46.5898 204.567 46.5 204.395 46.3203C204.231 46.1328 204.149 45.9102 204.149 45.6523ZM210.536 52.0273V62H209.142V49.3203H210.478L210.536 52.0273ZM210.22 54.875L209.599 54.5234C209.646 53.7734 209.798 53.0703 210.056 52.4141C210.314 51.7578 210.661 51.1797 211.099 50.6797C211.544 50.1797 212.064 49.7891 212.657 49.5078C213.259 49.2266 213.923 49.0859 214.65 49.0859C215.282 49.0859 215.849 49.1719 216.349 49.3438C216.849 49.5156 217.275 49.7891 217.626 50.1641C217.978 50.5391 218.243 51.0195 218.423 51.6055C218.61 52.1914 218.704 52.9062 218.704 53.75V62H217.298V53.7383C217.298 52.8633 217.177 52.1797 216.935 51.6875C216.693 51.1875 216.349 50.832 215.903 50.6211C215.458 50.4102 214.931 50.3047 214.321 50.3047C213.65 50.3047 213.06 50.4531 212.552 50.75C212.052 51.0391 211.63 51.418 211.286 51.8867C210.95 52.3477 210.693 52.8438 210.513 53.375C210.333 53.8984 210.235 54.3984 210.22 54.875ZM230.201 49.3203H231.502V61.7773C231.502 62.8789 231.291 63.8242 230.869 64.6133C230.455 65.4023 229.865 66.0078 229.099 66.4297C228.341 66.8516 227.447 67.0625 226.416 67.0625C225.892 67.0625 225.353 66.9805 224.798 66.8164C224.252 66.6602 223.732 66.418 223.24 66.0898C222.755 65.7695 222.341 65.3711 221.998 64.8945L222.783 64.0391C223.298 64.6641 223.849 65.1211 224.435 65.4102C225.021 65.707 225.654 65.8555 226.334 65.8555C227.138 65.8555 227.818 65.6953 228.373 65.375C228.935 65.0547 229.361 64.5938 229.65 63.9922C229.947 63.3906 230.095 62.668 230.095 61.8242V52.1094L230.201 49.3203ZM221.295 55.7891V55.543C221.295 54.5586 221.404 53.6719 221.623 52.8828C221.849 52.0859 222.173 51.4062 222.595 50.8438C223.017 50.2734 223.529 49.8398 224.13 49.543C224.74 49.2383 225.427 49.0859 226.193 49.0859C226.927 49.0859 227.58 49.207 228.15 49.4492C228.72 49.6914 229.212 50.0391 229.627 50.4922C230.041 50.9453 230.373 51.4844 230.623 52.1094C230.88 52.7344 231.068 53.4297 231.185 54.1953V57.3242C231.091 58.043 230.92 58.7031 230.67 59.3047C230.42 59.8984 230.087 60.418 229.673 60.8633C229.259 61.3008 228.759 61.6406 228.173 61.8828C227.595 62.1172 226.927 62.2344 226.17 62.2344C225.412 62.2344 224.732 62.0781 224.13 61.7656C223.529 61.4531 223.017 61.0117 222.595 60.4414C222.173 59.8633 221.849 59.1797 221.623 58.3906C221.404 57.6016 221.295 56.7344 221.295 55.7891ZM222.701 55.543V55.7891C222.701 56.5312 222.775 57.2188 222.923 57.8516C223.072 58.4844 223.298 59.0352 223.603 59.5039C223.908 59.9727 224.295 60.3398 224.763 60.6055C225.232 60.8711 225.783 61.0039 226.416 61.0039C227.22 61.0039 227.896 60.8516 228.443 60.5469C228.99 60.2344 229.423 59.8242 229.744 59.3164C230.064 58.8008 230.298 58.2383 230.447 57.6289V53.9844C230.361 53.5703 230.228 53.1484 230.048 52.7188C229.877 52.2891 229.634 51.8945 229.322 51.5352C229.017 51.168 228.627 50.875 228.15 50.6562C227.681 50.4297 227.111 50.3164 226.439 50.3164C225.798 50.3164 225.24 50.4492 224.763 50.7148C224.295 50.9805 223.908 51.3516 223.603 51.8281C223.298 52.2969 223.072 52.8477 222.923 53.4805C222.775 54.1133 222.701 54.8008 222.701 55.543Z" fill="white"/>
<path d="M50.7788 56.6797H52.2202C52.103 57.8281 51.7866 58.8203 51.2709 59.6562C50.7553 60.4844 50.0522 61.1211 49.1616 61.5664C48.2709 62.0117 47.1967 62.2344 45.9389 62.2344C44.9702 62.2344 44.0913 62.0508 43.3022 61.6836C42.5209 61.3164 41.8491 60.7969 41.2866 60.125C40.7241 59.4453 40.2905 58.6328 39.9858 57.6875C39.6811 56.7422 39.5288 55.6914 39.5288 54.5352V52.4023C39.5288 51.2461 39.6811 50.1992 39.9858 49.2617C40.2905 48.3164 40.728 47.5039 41.2983 46.8242C41.8686 46.1445 42.5522 45.6211 43.3491 45.2539C44.1459 44.8867 45.0444 44.7031 46.0444 44.7031C47.2553 44.7031 48.3022 44.9258 49.185 45.3711C50.0678 45.8086 50.7631 46.4414 51.2709 47.2695C51.7866 48.0977 52.103 49.0977 52.2202 50.2695H50.7788C50.6694 49.3477 50.4272 48.5664 50.0522 47.9258C49.6772 47.2852 49.1577 46.7969 48.4936 46.4609C47.8373 46.1172 47.0209 45.9453 46.0444 45.9453C45.2475 45.9453 44.5366 46.0977 43.9116 46.4023C43.2866 46.707 42.7553 47.1445 42.3178 47.7148C41.8803 48.2773 41.5444 48.9531 41.31 49.7422C41.0834 50.5312 40.9702 51.4102 40.9702 52.3789V54.5352C40.9702 55.4727 41.0795 56.3359 41.2983 57.125C41.517 57.9141 41.8373 58.5977 42.2592 59.1758C42.6889 59.7539 43.2123 60.2031 43.8295 60.5234C44.4467 60.8438 45.1498 61.0039 45.9389 61.0039C46.9467 61.0039 47.7866 60.8438 48.4584 60.5234C49.1381 60.1953 49.6655 59.7109 50.0405 59.0703C50.4155 58.4297 50.6616 57.6328 50.7788 56.6797ZM54.1542 55.8594V55.4727C54.1542 54.5508 54.287 53.6992 54.5527 52.918C54.8183 52.1367 55.1972 51.4609 55.6894 50.8906C56.1894 50.3203 56.787 49.8789 57.4823 49.5664C58.1777 49.2461 58.9511 49.0859 59.8027 49.0859C60.662 49.0859 61.4394 49.2461 62.1347 49.5664C62.83 49.8789 63.4277 50.3203 63.9277 50.8906C64.4277 51.4609 64.8105 52.1367 65.0761 52.918C65.3417 53.6992 65.4745 54.5508 65.4745 55.4727V55.8594C65.4745 56.7812 65.3417 57.6328 65.0761 58.4141C64.8105 59.1875 64.4277 59.8594 63.9277 60.4297C63.4355 61 62.8417 61.4453 62.1464 61.7656C61.4511 62.0781 60.6777 62.2344 59.8261 62.2344C58.9667 62.2344 58.1894 62.0781 57.4941 61.7656C56.7988 61.4453 56.2011 61 55.7011 60.4297C55.2011 59.8594 54.8183 59.1875 54.5527 58.4141C54.287 57.6328 54.1542 56.7812 54.1542 55.8594ZM55.5488 55.4727V55.8594C55.5488 56.5547 55.6425 57.2148 55.83 57.8398C56.0175 58.457 56.2909 59.0078 56.6503 59.4922C57.0097 59.9688 57.455 60.3438 57.9863 60.6172C58.5175 60.8906 59.1308 61.0273 59.8261 61.0273C60.5136 61.0273 61.1191 60.8906 61.6425 60.6172C62.1738 60.3438 62.6191 59.9688 62.9784 59.4922C63.3378 59.0078 63.6073 58.457 63.787 57.8398C63.9745 57.2148 64.0683 56.5547 64.0683 55.8594V55.4727C64.0683 54.7852 63.9745 54.1328 63.787 53.5156C63.6073 52.8984 63.3339 52.3477 62.9667 51.8633C62.6073 51.3789 62.162 50.9961 61.6308 50.7148C61.0995 50.4336 60.4902 50.293 59.8027 50.293C59.1152 50.293 58.5058 50.4336 57.9745 50.7148C57.4511 50.9961 57.0058 51.3789 56.6386 51.8633C56.2792 52.3477 56.0058 52.8984 55.8183 53.5156C55.6386 54.1328 55.5488 54.7852 55.5488 55.4727ZM69.2953 52.0273V62H67.9008V49.3203H69.2367L69.2953 52.0273ZM68.9789 54.875L68.3578 54.5234C68.4047 53.7734 68.557 53.0703 68.8148 52.4141C69.0727 51.7578 69.4203 51.1797 69.8578 50.6797C70.3031 50.1797 70.8227 49.7891 71.4164 49.5078C72.018 49.2266 72.682 49.0859 73.4086 49.0859C74.0414 49.0859 74.6078 49.1719 75.1078 49.3438C75.6078 49.5156 76.0336 49.7891 76.3852 50.1641C76.7367 50.5391 77.0023 51.0195 77.182 51.6055C77.3695 52.1914 77.4633 52.9062 77.4633 53.75V62H76.057V53.7383C76.057 52.8633 75.9359 52.1797 75.6937 51.6875C75.4516 51.1875 75.1078 50.832 74.6625 50.6211C74.2172 50.4102 73.6898 50.3047 73.0805 50.3047C72.4086 50.3047 71.8187 50.4531 71.3109 50.75C70.8109 51.0391 70.3891 51.418 70.0453 51.8867C69.7094 52.3477 69.4516 52.8438 69.2719 53.375C69.0922 53.8984 68.9945 54.3984 68.9789 54.875ZM82.0106 52.0273V62H80.6161V49.3203H81.952L82.0106 52.0273ZM81.6942 54.875L81.0731 54.5234C81.12 53.7734 81.2723 53.0703 81.5302 52.4141C81.788 51.7578 82.1356 51.1797 82.5731 50.6797C83.0184 50.1797 83.538 49.7891 84.1317 49.5078C84.7333 49.2266 85.3973 49.0859 86.1239 49.0859C86.7567 49.0859 87.3231 49.1719 87.8231 49.3438C88.3231 49.5156 88.7489 49.7891 89.1005 50.1641C89.452 50.5391 89.7177 51.0195 89.8973 51.6055C90.0848 52.1914 90.1786 52.9062 90.1786 53.75V62H88.7723V53.7383C88.7723 52.8633 88.6513 52.1797 88.4091 51.6875C88.1669 51.1875 87.8231 50.832 87.3778 50.6211C86.9325 50.4102 86.4052 50.3047 85.7958 50.3047C85.1239 50.3047 84.5341 50.4531 84.0263 50.75C83.5263 51.0391 83.1044 51.418 82.7606 51.8867C82.4247 52.3477 82.1669 52.8438 81.9872 53.375C81.8075 53.8984 81.7098 54.3984 81.6942 54.875ZM98.2298 62.2344C97.4017 62.2344 96.64 62.082 95.9447 61.7773C95.2572 61.4727 94.6556 61.043 94.14 60.4883C93.6322 59.9336 93.2377 59.2773 92.9564 58.5195C92.683 57.7539 92.5462 56.918 92.5462 56.0117V55.5078C92.5462 54.5312 92.6908 53.6484 92.9798 52.8594C93.2689 52.0703 93.6673 51.3945 94.1752 50.832C94.683 50.2695 95.2611 49.8398 95.9095 49.543C96.5658 49.2383 97.2533 49.0859 97.972 49.0859C98.7767 49.0859 99.4916 49.2305 100.117 49.5195C100.742 49.8008 101.265 50.2031 101.687 50.7266C102.117 51.2422 102.441 51.8555 102.66 52.5664C102.878 53.2695 102.988 54.0469 102.988 54.8984V55.7539H93.39V54.5586H101.593V54.3945C101.577 53.6836 101.433 53.0195 101.16 52.4023C100.894 51.7773 100.495 51.2695 99.9642 50.8789C99.433 50.4883 98.7689 50.293 97.972 50.293C97.3783 50.293 96.8314 50.418 96.3314 50.668C95.8392 50.918 95.4134 51.2773 95.0541 51.7461C94.7025 52.207 94.4291 52.7578 94.2337 53.3984C94.0462 54.0312 93.9525 54.7344 93.9525 55.5078V56.0117C93.9525 56.7148 94.0541 57.3711 94.2572 57.9805C94.4681 58.582 94.765 59.1133 95.1478 59.5742C95.5384 60.0352 95.9994 60.3945 96.5306 60.6523C97.0619 60.9102 97.6478 61.0391 98.2884 61.0391C99.0384 61.0391 99.7025 60.9023 100.281 60.6289C100.859 60.3477 101.378 59.9062 101.839 59.3047L102.718 59.9844C102.445 60.3906 102.101 60.7656 101.687 61.1094C101.281 61.4531 100.792 61.7266 100.222 61.9297C99.6517 62.1328 98.9877 62.2344 98.2298 62.2344ZM109.949 61.0273C110.543 61.0273 111.098 60.918 111.613 60.6992C112.137 60.4727 112.566 60.1406 112.902 59.7031C113.246 59.2578 113.441 58.7148 113.488 58.0742H114.824C114.785 58.8789 114.539 59.5977 114.086 60.2305C113.64 60.8555 113.055 61.3477 112.328 61.707C111.609 62.0586 110.816 62.2344 109.949 62.2344C109.066 62.2344 108.285 62.0742 107.605 61.7539C106.933 61.4336 106.371 60.9883 105.918 60.418C105.465 59.8398 105.121 59.168 104.887 58.4023C104.66 57.6289 104.547 56.7969 104.547 55.9062V55.4141C104.547 54.5234 104.66 53.6953 104.887 52.9297C105.121 52.1562 105.465 51.4844 105.918 50.9141C106.371 50.3359 106.933 49.8867 107.605 49.5664C108.277 49.2461 109.055 49.0859 109.937 49.0859C110.844 49.0859 111.656 49.2695 112.375 49.6367C113.101 50.0039 113.68 50.5234 114.109 51.1953C114.547 51.8672 114.785 52.6641 114.824 53.5859H113.488C113.449 52.9062 113.269 52.3203 112.949 51.8281C112.629 51.3359 112.207 50.957 111.683 50.6914C111.16 50.4258 110.578 50.293 109.937 50.293C109.219 50.293 108.605 50.4336 108.098 50.7148C107.59 50.9883 107.176 51.3672 106.855 51.8516C106.543 52.3281 106.312 52.875 106.164 53.4922C106.015 54.1016 105.941 54.7422 105.941 55.4141V55.9062C105.941 56.5859 106.012 57.2344 106.152 57.8516C106.301 58.4609 106.531 59.0039 106.844 59.4805C107.164 59.957 107.578 60.3359 108.086 60.6172C108.601 60.8906 109.223 61.0273 109.949 61.0273ZM121.961 49.3203V50.4688H115.61V49.3203H121.961ZM117.942 46.0625H119.336V58.918C119.336 59.5039 119.414 59.9453 119.571 60.2422C119.727 60.5391 119.93 60.7383 120.18 60.8398C120.43 60.9414 120.7 60.9922 120.989 60.9922C121.2 60.9922 121.403 60.9805 121.598 60.957C121.793 60.9258 121.969 60.8945 122.125 60.8633L122.184 62.0469C122.012 62.1016 121.789 62.1445 121.516 62.1758C121.243 62.2148 120.969 62.2344 120.696 62.2344C120.157 62.2344 119.68 62.1367 119.266 61.9414C118.852 61.7383 118.528 61.3945 118.293 60.9102C118.059 60.418 117.942 59.75 117.942 58.9062V46.0625Z" fill="#51CDF2"/>
<defs>
<clipPath id="clip0_901_12359">
<rect width="258" height="32" fill="white"/>
</clipPath>
</defs>
</svg>
