<svg width="2507" height="316" viewBox="0 0 2507 316" fill="none" xmlns="http://www.w3.org/2000/svg">
<g clip-path="url(#clip0_1302_8)">
<path d="M-0.300781 315.7L127.699 0.899902H224.199L352.199 315.7H274.599L175.899 70.0999L77.2993 315.7H-0.300781Z" fill="#5D66B0"/>
<path d="M660.1 0.899902L532.1 315.7H435.5L307.5 0.899902H385.2L483.8 246.4L582.5 0.899902H660.1Z" fill="#5D66B0"/>
<path d="M989.7 0.699951H689V62.5999H803.3V315.7H874.3V62.5999H989.7V0.699951Z" fill="#5D66B0"/>
<path d="M1345.3 0.899902H1044.6V62.8999H1345.3V0.899902Z" fill="#5D66B0"/>
<path d="M1345.3 127.2H1044.6V189.2H1345.3V127.2Z" fill="#5D66B0"/>
<path d="M1345.3 253.7H1044.6V315.7H1345.3V253.7Z" fill="#5D66B0"/>
<path d="M1652.1 0.199951H1590V62.2999H1652.1V0.199951Z" fill="#5D66B0"/>
<path d="M1401.4 315.7H1651.8V254.8H1472.3V0.899902H1401.4V315.7Z" fill="#5D66B0"/>
<path d="M2061.1 0.899902L1933.1 315.7H1836.6L1708.6 0.899902H1786.2L1884.8 246.4L1983.5 0.899902H2061.1Z" fill="#5D66B0"/>
<path d="M2206.4 315.7L2321.2 201.5L2436.1 315.7H2507V0.899902H2436.1V229.3L2321.2 115.6L2206.4 229.3V0.899902H2135.4V315.7H2206.4Z" fill="#5D66B0"/>
</g>
<defs>
<clipPath id="clip0_1302_8">
<rect width="2507" height="316" fill="white"/>
</clipPath>
</defs>
</svg>
