<svg width="895" height="114" viewBox="0 0 895 114" fill="none" xmlns="http://www.w3.org/2000/svg">
<path d="M529.702 0H503.947V113.324H594.091V91.0024H529.702V0Z" fill="#1BB9E5"/>
<path d="M680.371 72.6656L639.592 31.5749V113.324H613.837V0H639.592L680.371 41.0907L721.151 0H747.765V113.324H721.151V31.5749L680.371 72.6656Z" fill="#1BB9E5"/>
<path d="M45.93 0L-0.000488281 113.324H27.9012L63.1002 24.8969L98.7285 113.324H126.63L80.2705 0H45.93Z" fill="white"/>
<path d="M191.448 113.324L237.378 -7.62939e-06L209.477 -1.00686e-05L174.277 88.4268L138.649 -1.62606e-05L110.747 -1.86998e-05L157.107 113.324L191.448 113.324Z" fill="#1BB9E5"/>
<path d="M356.283 0H248.11V21.5444H289.319V112.893L315.074 113.324V21.9753H356.283V0Z" fill="#1BB9E5"/>
<path d="M484.202 0.000244141H376.029V22.3216H484.202V0.000244141Z" fill="#1BB9E5"/>
<path d="M484.202 45.5015H376.029V67.8228H484.202V45.5015Z" fill="#1BB9E5"/>
<path d="M484.202 91.0027H376.029V113.324H484.202V91.0027Z" fill="#1BB9E5"/>
<path d="M814.299 0L768.369 113.324H796.271L831.47 24.8969L867.098 113.324H895L848.64 0H814.299Z" fill="#1BB9E5"/>
</svg>
