<svg width="240" height="240" viewBox="0 0 240 240" fill="none" xmlns="http://www.w3.org/2000/svg">
<g clip-path="url(#clip0_719_9406)">
<path d="M120 240.001C186.275 240.001 240.001 186.275 240.001 120C240.001 53.726 186.275 0 120 0C53.726 0 0 53.726 0 120C0 186.275 53.726 240.001 120 240.001Z" fill="url(#paint0_linear_719_9406)"/>
<path d="M122.182 166.991H117.832V178.151H122.182V166.991Z" fill="#243248"/>
<path d="M120 175.017C114.397 175.017 109.852 179.56 109.852 185.165C109.852 190.769 114.396 195.313 120 195.313C125.606 195.313 130.148 190.769 130.148 185.165C130.148 179.56 125.606 175.017 120 175.017ZM120 190.964C116.798 190.964 114.2 188.367 114.2 185.165C114.2 181.962 116.799 179.366 120 179.366C123.204 179.366 125.799 181.962 125.799 185.165C125.799 188.367 123.204 190.964 120 190.964Z" fill="white"/>
<path d="M210.968 26.8784H29.0312V160.285H210.968V26.8784Z" fill="#F2F2F2"/>
<path d="M213.05 10.7144H26.959V26.8805H213.05V10.7144Z" fill="#012731"/>
<path d="M28.0213 10.0815H23.1719V27.5119H28.0213V10.0815Z" fill="#243248"/>
<path d="M216.821 10.0815H211.977V27.5119H216.821V10.0815Z" fill="#243248"/>
<path d="M213.05 160.287H26.959V166.982H213.05V160.287Z" fill="#012731"/>
<path d="M28.0213 159.807H23.1719V167.475H28.0213V159.807Z" fill="#243248"/>
<path d="M216.821 159.807H211.977V167.475H216.821V159.807Z" fill="#243248"/>
<path d="M72.1054 64.512L45.2754 121.849H98.9394L72.1054 64.512Z" fill="#21B9DD"/>
<path d="M139.36 42.9517L99.0039 121.849H179.727L139.36 42.9517Z" fill="#1495AE"/>
<path d="M165.421 64.512L136.109 121.849H194.751L165.421 64.512Z" fill="#52CEEA"/>
<path d="M136.109 121.849H179.726L157.91 79.2083L136.109 121.849Z" fill="#B4E9FB"/>
<path d="M103.904 80.0771L82.5391 121.849H125.278L103.904 80.0771Z" fill="#012731"/>
<path d="M82.5391 121.849H98.9399L91.1043 105.102L82.5391 121.849Z" fill="#243248"/>
<path d="M99.0039 121.849H125.278L112.14 96.1707L99.0039 121.849Z" fill="#243248"/>
<path d="M72.1551 142.94H45.2754V147.064H72.1551V142.94Z" fill="#21B9DD"/>
<path d="M113.017 142.94H86.1348V147.064H113.017V142.94Z" fill="#012731"/>
<path d="M153.872 142.94H127.002V147.064H153.872V142.94Z" fill="#1495AE"/>
<path d="M194.747 142.94H167.867V147.064H194.747V142.94Z" fill="#52CEEA"/>
</g>
<defs>
<linearGradient id="paint0_linear_719_9406" x1="216.522" y1="205.566" x2="-26.087" y2="-33.3914" gradientUnits="userSpaceOnUse">
<stop stop-color="#13A9D1"/>
<stop offset="0.942708" stop-color="white"/>
</linearGradient>
<clipPath id="clip0_719_9406">
<rect width="240" height="240" fill="white"/>
</clipPath>
</defs>
</svg>
