<svg width="318" height="38" viewBox="0 0 318 38" fill="none" xmlns="http://www.w3.org/2000/svg">
<g clip-path="url(#clip0_719_9393)">
<path d="M188.117 0H178.971V38H210.984V30.5152H188.117V0Z" fill="#012731"/>
<path d="M241.625 24.3664L227.143 10.5878V38H217.996V0H227.143L241.625 13.7786L256.107 0H265.559V38H256.107V10.5878L241.625 24.3664Z" fill="#012731"/>
<path d="M16.3116 0L0 38H9.90892L22.4094 8.34848L35.0623 38H44.9712L28.5072 0H16.3116Z" fill="#012731"/>
<path d="M67.9897 38L84.3013 3.71217e-06L74.3924 2.89424e-06L61.8919 29.6515L49.239 8.1795e-07L39.3301 0L55.7941 38H67.9897Z" fill="#012731"/>
<path d="M126.529 0H88.1133V7.22435H102.748V37.8555L111.895 38V7.36883H126.529V0Z" fill="#012731"/>
<path d="M171.957 0H133.541V7.48485H171.957V0Z" fill="#012731"/>
<path d="M171.957 15.2576H133.541V22.7424H171.957V15.2576Z" fill="#012731"/>
<path d="M171.957 30.5151H133.541V38H171.957V30.5151Z" fill="#012731"/>
<path d="M289.189 0L272.877 38H282.786L295.286 8.34848L307.939 38H317.848L301.384 0H289.189Z" fill="#012731"/>
</g>
<defs>
<clipPath id="clip0_719_9393">
<rect width="318" height="38" fill="white"/>
</clipPath>
</defs>
</svg>
