<svg width="114" height="66" viewBox="0 0 114 66" fill="none" xmlns="http://www.w3.org/2000/svg">
<ellipse cx="70.7734" cy="22.7913" rx="2.28301" ry="2.27414" transform="rotate(-180 70.7734 22.7913)" fill="#13A9D1"/>
<ellipse cx="84.4213" cy="22.7412" rx="2.28301" ry="2.27414" transform="rotate(-180 84.4213 22.7412)" fill="#13A9D1"/>
<ellipse cx="98.069" cy="22.7412" rx="2.28301" ry="2.27414" transform="rotate(-180 98.069 22.7412)" fill="#13A9D1"/>
<ellipse cx="111.717" cy="22.7412" rx="2.28301" ry="2.27414" transform="rotate(-180 111.717 22.7412)" fill="#13A9D1"/>
<ellipse cx="70.7734" cy="15.9688" rx="2.28301" ry="2.27414" transform="rotate(-180 70.7734 15.9688)" fill="#13A9D1"/>
<ellipse cx="84.4213" cy="15.919" rx="2.28301" ry="2.27414" transform="rotate(-180 84.4213 15.919)" fill="#13A9D1"/>
<ellipse cx="98.069" cy="15.919" rx="2.28301" ry="2.27414" transform="rotate(-180 98.069 15.919)" fill="#13A9D1"/>
<ellipse cx="111.717" cy="15.919" rx="2.28301" ry="2.27414" transform="rotate(-180 111.717 15.919)" fill="#13A9D1"/>
<ellipse cx="70.7734" cy="9.14652" rx="2.28301" ry="2.27414" transform="rotate(-180 70.7734 9.14652)" fill="#13A9D1"/>
<ellipse cx="84.4213" cy="9.09647" rx="2.28301" ry="2.27414" transform="rotate(-180 84.4213 9.09647)" fill="#13A9D1"/>
<ellipse cx="98.069" cy="9.09647" rx="2.28301" ry="2.27414" transform="rotate(-180 98.069 9.09647)" fill="#13A9D1"/>
<ellipse cx="111.717" cy="9.09647" rx="2.28301" ry="2.27414" transform="rotate(-180 111.717 9.09647)" fill="#13A9D1"/>
<ellipse cx="70.7734" cy="2.324" rx="2.28301" ry="2.27414" transform="rotate(-180 70.7734 2.324)" fill="#13A9D1"/>
<ellipse cx="84.4213" cy="2.27396" rx="2.28301" ry="2.27414" transform="rotate(-180 84.4213 2.27396)" fill="#13A9D1"/>
<ellipse cx="98.069" cy="2.27396" rx="2.28301" ry="2.27414" transform="rotate(-180 98.069 2.27396)" fill="#13A9D1"/>
<ellipse cx="111.717" cy="2.27396" rx="2.28301" ry="2.27414" transform="rotate(-180 111.717 2.27396)" fill="#13A9D1"/>
<ellipse cx="63.9243" cy="22.7913" rx="2.28301" ry="2.27414" transform="rotate(-180 63.9243 22.7913)" fill="#13A9D1"/>
<ellipse cx="77.5722" cy="22.7412" rx="2.28301" ry="2.27414" transform="rotate(-180 77.5722 22.7412)" fill="#13A9D1"/>
<ellipse cx="91.2202" cy="22.7412" rx="2.28301" ry="2.27414" transform="rotate(-180 91.2202 22.7412)" fill="#13A9D1"/>
<ellipse cx="104.868" cy="22.7412" rx="2.28301" ry="2.27414" transform="rotate(-180 104.868 22.7412)" fill="#13A9D1"/>
<ellipse cx="63.9243" cy="15.9688" rx="2.28301" ry="2.27414" transform="rotate(-180 63.9243 15.9688)" fill="#13A9D1"/>
<ellipse cx="77.5722" cy="15.919" rx="2.28301" ry="2.27414" transform="rotate(-180 77.5722 15.919)" fill="#13A9D1"/>
<ellipse cx="91.2202" cy="15.919" rx="2.28301" ry="2.27414" transform="rotate(-180 91.2202 15.919)" fill="#13A9D1"/>
<ellipse cx="104.868" cy="15.919" rx="2.28301" ry="2.27414" transform="rotate(-180 104.868 15.919)" fill="#13A9D1"/>
<ellipse cx="63.9243" cy="9.14652" rx="2.28301" ry="2.27414" transform="rotate(-180 63.9243 9.14652)" fill="#13A9D1"/>
<ellipse cx="77.5722" cy="9.09647" rx="2.28301" ry="2.27414" transform="rotate(-180 77.5722 9.09647)" fill="#13A9D1"/>
<ellipse cx="91.2202" cy="9.09647" rx="2.28301" ry="2.27414" transform="rotate(-180 91.2202 9.09647)" fill="#13A9D1"/>
<ellipse cx="104.868" cy="9.09647" rx="2.28301" ry="2.27414" transform="rotate(-180 104.868 9.09647)" fill="#13A9D1"/>
<ellipse cx="63.9243" cy="2.324" rx="2.28301" ry="2.27414" transform="rotate(-180 63.9243 2.324)" fill="#13A9D1"/>
<ellipse cx="77.5722" cy="2.27396" rx="2.28301" ry="2.27414" transform="rotate(-180 77.5722 2.27396)" fill="#13A9D1"/>
<ellipse cx="91.2202" cy="2.27396" rx="2.28301" ry="2.27414" transform="rotate(-180 91.2202 2.27396)" fill="#13A9D1"/>
<ellipse cx="104.868" cy="2.27396" rx="2.28301" ry="2.27414" transform="rotate(-180 104.868 2.27396)" fill="#13A9D1"/>
<ellipse cx="57.0754" cy="22.7913" rx="2.28301" ry="2.27414" transform="rotate(-180 57.0754 22.7913)" fill="#13A9D1"/>
<ellipse cx="57.0754" cy="15.9688" rx="2.28301" ry="2.27414" transform="rotate(-180 57.0754 15.9688)" fill="#13A9D1"/>
<ellipse cx="57.0754" cy="9.14652" rx="2.28301" ry="2.27414" transform="rotate(-180 57.0754 9.14652)" fill="#13A9D1"/>
<ellipse cx="57.0754" cy="2.324" rx="2.28301" ry="2.27414" transform="rotate(-180 57.0754 2.324)" fill="#13A9D1"/>
<ellipse cx="50.2263" cy="22.7913" rx="2.28301" ry="2.27414" transform="rotate(-180 50.2263 22.7913)" fill="#13A9D1"/>
<ellipse cx="50.2263" cy="15.9688" rx="2.28301" ry="2.27414" transform="rotate(-180 50.2263 15.9688)" fill="#13A9D1"/>
<ellipse cx="50.2263" cy="9.14652" rx="2.28301" ry="2.27414" transform="rotate(-180 50.2263 9.14652)" fill="#13A9D1"/>
<ellipse cx="50.2263" cy="2.324" rx="2.28301" ry="2.27414" transform="rotate(-180 50.2263 2.324)" fill="#13A9D1"/>
<ellipse cx="43.3771" cy="22.7913" rx="2.28301" ry="2.27414" transform="rotate(-180 43.3771 22.7913)" fill="#13A9D1"/>
<ellipse cx="43.3771" cy="15.9688" rx="2.28301" ry="2.27414" transform="rotate(-180 43.3771 15.9688)" fill="#13A9D1"/>
<ellipse cx="43.3771" cy="9.14652" rx="2.28301" ry="2.27414" transform="rotate(-180 43.3771 9.14652)" fill="#13A9D1"/>
<ellipse cx="43.3771" cy="2.324" rx="2.28301" ry="2.27414" transform="rotate(-180 43.3771 2.324)" fill="#13A9D1"/>
<ellipse cx="36.5283" cy="22.7913" rx="2.28301" ry="2.27414" transform="rotate(-180 36.5283 22.7913)" fill="#13A9D1"/>
<ellipse cx="36.5283" cy="15.9688" rx="2.28301" ry="2.27414" transform="rotate(-180 36.5283 15.9688)" fill="#13A9D1"/>
<ellipse cx="36.5283" cy="9.14652" rx="2.28301" ry="2.27414" transform="rotate(-180 36.5283 9.14652)" fill="#13A9D1"/>
<ellipse cx="36.5283" cy="2.324" rx="2.28301" ry="2.27414" transform="rotate(-180 36.5283 2.324)" fill="#13A9D1"/>
<ellipse cx="29.6792" cy="22.7913" rx="2.283" ry="2.27414" transform="rotate(-180 29.6792 22.7913)" fill="#13A9D1"/>
<ellipse cx="29.6792" cy="15.9688" rx="2.283" ry="2.27414" transform="rotate(-180 29.6792 15.9688)" fill="#13A9D1"/>
<ellipse cx="29.6792" cy="9.14652" rx="2.283" ry="2.27414" transform="rotate(-180 29.6792 9.14652)" fill="#13A9D1"/>
<ellipse cx="29.6792" cy="2.324" rx="2.283" ry="2.27414" transform="rotate(-180 29.6792 2.324)" fill="#13A9D1"/>
<ellipse cx="22.83" cy="22.7913" rx="2.28301" ry="2.27414" transform="rotate(-180 22.83 22.7913)" fill="#13A9D1"/>
<ellipse cx="22.83" cy="15.9688" rx="2.28301" ry="2.27414" transform="rotate(-180 22.83 15.9688)" fill="#13A9D1"/>
<ellipse cx="22.83" cy="9.14652" rx="2.28301" ry="2.27414" transform="rotate(-180 22.83 9.14652)" fill="#13A9D1"/>
<ellipse cx="22.83" cy="2.324" rx="2.28301" ry="2.27414" transform="rotate(-180 22.83 2.324)" fill="#13A9D1"/>
<ellipse cx="15.9809" cy="22.7913" rx="2.28301" ry="2.27414" transform="rotate(-180 15.9809 22.7913)" fill="#13A9D1"/>
<ellipse cx="15.9809" cy="15.9688" rx="2.28301" ry="2.27414" transform="rotate(-180 15.9809 15.9688)" fill="#13A9D1"/>
<ellipse cx="15.9809" cy="9.14652" rx="2.28301" ry="2.27414" transform="rotate(-180 15.9809 9.14652)" fill="#13A9D1"/>
<ellipse cx="15.9809" cy="2.324" rx="2.28301" ry="2.27414" transform="rotate(-180 15.9809 2.324)" fill="#13A9D1"/>
<ellipse cx="9.13202" cy="22.7913" rx="2.28302" ry="2.27414" transform="rotate(-180 9.13202 22.7913)" fill="#13A9D1"/>
<ellipse cx="9.13202" cy="15.9688" rx="2.28302" ry="2.27414" transform="rotate(-180 9.13202 15.9688)" fill="#13A9D1"/>
<ellipse cx="9.13202" cy="9.14652" rx="2.28302" ry="2.27414" transform="rotate(-180 9.13202 9.14652)" fill="#13A9D1"/>
<ellipse cx="9.13202" cy="2.324" rx="2.28302" ry="2.27414" transform="rotate(-180 9.13202 2.324)" fill="#13A9D1"/>
<ellipse cx="2.28291" cy="22.7913" rx="2.28301" ry="2.27414" transform="rotate(-180 2.28291 22.7913)" fill="#13A9D1"/>
<ellipse cx="2.28291" cy="15.9688" rx="2.28301" ry="2.27414" transform="rotate(-180 2.28291 15.9688)" fill="#13A9D1"/>
<ellipse cx="2.28291" cy="9.14652" rx="2.28301" ry="2.27414" transform="rotate(-180 2.28291 9.14652)" fill="#13A9D1"/>
<ellipse cx="2.28291" cy="2.324" rx="2.28301" ry="2.27414" transform="rotate(-180 2.28291 2.324)" fill="#13A9D1"/>
<ellipse cx="22.83" cy="63.7259" rx="2.28301" ry="2.27414" transform="rotate(-180 22.83 63.7259)" fill="#13A9D1"/>
<ellipse cx="22.83" cy="56.9034" rx="2.28301" ry="2.27414" transform="rotate(-180 22.83 56.9034)" fill="#13A9D1"/>
<ellipse cx="22.83" cy="50.0811" rx="2.28301" ry="2.27414" transform="rotate(-180 22.83 50.0811)" fill="#13A9D1"/>
<ellipse cx="22.83" cy="43.2586" rx="2.28301" ry="2.27414" transform="rotate(-180 22.83 43.2586)" fill="#13A9D1"/>
<ellipse cx="22.83" cy="36.4363" rx="2.28301" ry="2.27414" transform="rotate(-180 22.83 36.4363)" fill="#13A9D1"/>
<ellipse cx="22.83" cy="29.6138" rx="2.28301" ry="2.27414" transform="rotate(-180 22.83 29.6138)" fill="#13A9D1"/>
<ellipse cx="15.9809" cy="63.7259" rx="2.28301" ry="2.27414" transform="rotate(-180 15.9809 63.7259)" fill="#13A9D1"/>
<ellipse cx="15.9809" cy="56.9034" rx="2.28301" ry="2.27414" transform="rotate(-180 15.9809 56.9034)" fill="#13A9D1"/>
<ellipse cx="15.9809" cy="50.0811" rx="2.28301" ry="2.27414" transform="rotate(-180 15.9809 50.0811)" fill="#13A9D1"/>
<ellipse cx="15.9809" cy="43.2586" rx="2.28301" ry="2.27414" transform="rotate(-180 15.9809 43.2586)" fill="#13A9D1"/>
<ellipse cx="15.9809" cy="36.4363" rx="2.28301" ry="2.27414" transform="rotate(-180 15.9809 36.4363)" fill="#13A9D1"/>
<ellipse cx="15.9809" cy="29.6138" rx="2.28301" ry="2.27414" transform="rotate(-180 15.9809 29.6138)" fill="#13A9D1"/>
<ellipse cx="9.13202" cy="63.7259" rx="2.28302" ry="2.27414" transform="rotate(-180 9.13202 63.7259)" fill="#13A9D1"/>
<ellipse cx="9.13202" cy="56.9034" rx="2.28302" ry="2.27414" transform="rotate(-180 9.13202 56.9034)" fill="#13A9D1"/>
<ellipse cx="9.13202" cy="50.0811" rx="2.28302" ry="2.27414" transform="rotate(-180 9.13202 50.0811)" fill="#13A9D1"/>
<ellipse cx="9.13202" cy="43.2586" rx="2.28302" ry="2.27414" transform="rotate(-180 9.13202 43.2586)" fill="#13A9D1"/>
<ellipse cx="9.13202" cy="36.4363" rx="2.28302" ry="2.27414" transform="rotate(-180 9.13202 36.4363)" fill="#13A9D1"/>
<ellipse cx="9.13202" cy="29.6138" rx="2.28302" ry="2.27414" transform="rotate(-180 9.13202 29.6138)" fill="#13A9D1"/>
<ellipse cx="2.28291" cy="63.7259" rx="2.28301" ry="2.27414" transform="rotate(-180 2.28291 63.7259)" fill="#13A9D1"/>
<ellipse cx="2.28291" cy="56.9034" rx="2.28301" ry="2.27414" transform="rotate(-180 2.28291 56.9034)" fill="#13A9D1"/>
<ellipse cx="2.28291" cy="50.0811" rx="2.28301" ry="2.27414" transform="rotate(-180 2.28291 50.0811)" fill="#13A9D1"/>
<ellipse cx="2.28291" cy="43.2586" rx="2.28301" ry="2.27414" transform="rotate(-180 2.28291 43.2586)" fill="#13A9D1"/>
<ellipse cx="2.28291" cy="36.4363" rx="2.28301" ry="2.27414" transform="rotate(-180 2.28291 36.4363)" fill="#13A9D1"/>
<ellipse cx="2.28291" cy="29.6138" rx="2.28301" ry="2.27414" transform="rotate(-180 2.28291 29.6138)" fill="#13A9D1"/>
</svg>
