<svg width="65" height="67" viewBox="0 0 65 67" fill="none" xmlns="http://www.w3.org/2000/svg">
<path d="M40.7271 52.3923C40.5493 52.5701 40.7186 52.7394 40.7694 52.8834C41.6839 55.5674 42.5983 58.2431 43.5382 60.9187C43.6821 61.3336 43.6398 61.5622 43.2672 61.8501C41.1081 63.4927 38.9744 65.1692 36.8406 66.8373C36.7475 66.9135 36.6628 67.0151 36.5189 66.9981C35.6552 64.5765 34.7916 62.1549 33.9364 59.7333C32.4377 55.4997 30.939 51.2746 29.4319 47.041C28.3904 44.1029 27.3405 41.1563 26.2905 38.2182C24.5802 33.4004 22.8613 28.591 21.1764 23.7647C20.4482 21.6734 19.5168 19.709 18.0266 18.0325C16.4771 16.2798 14.7159 14.9758 12.2266 15.1198C13.3019 14.5271 14.4365 14.0529 15.5457 13.5279C17.0613 12.7998 18.6277 12.1478 20.1095 11.3688C21.278 10.7507 22.4126 10.8015 23.581 11.2418C25.1983 11.843 26.5615 12.8506 27.84 13.9852C27.9755 14.1037 28.0686 14.273 28.2634 14.2984C28.8561 14.9674 29.525 15.5685 30.0838 16.2798C31.2862 17.8123 32.3276 19.455 33.4538 21.0383C33.7332 21.4278 33.9533 21.8596 34.309 22.1983C34.7492 23.0112 35.3335 23.7393 35.8584 24.5014C36.1379 24.9078 36.358 25.365 36.739 25.6953C36.7644 25.8815 36.8999 26.0085 37.0015 26.1525C38.1361 27.7867 39.2622 29.4208 40.3968 31.0465C41.142 32.1218 41.8617 33.2226 42.6576 34.264C43.4281 35.2716 44.622 35.2462 45.2485 34.0862C45.5026 33.6121 45.6296 33.1125 45.6296 32.5791C45.638 31.3344 45.4687 30.1067 45.3925 28.8704C45.2909 27.321 45.1723 25.763 45.0623 24.2135C44.9522 22.7148 44.8421 21.2246 44.732 19.7259C44.622 18.2018 44.5034 16.6777 44.4018 15.1536C44.3002 13.6295 44.1817 12.1054 44.0631 10.5814C43.9192 8.71011 43.3773 6.97434 42.2173 5.48412C41.1928 4.17171 39.8973 3.33346 38.1446 3.4012C37.7551 3.41813 37.3825 3.5028 36.993 3.49433C37.9752 3.02017 38.9574 2.54601 39.9396 2.08032C41.015 1.57229 42.1072 1.10659 43.1656 0.564692C44.9522 -0.349762 46.6541 -0.104214 48.2713 0.945715C50.3627 2.30046 51.6074 4.29025 52.3356 6.63566C53.6649 10.8777 54.9858 15.1282 56.3067 19.3788C58.9823 27.9475 61.6579 36.5248 64.3336 45.0936C64.3844 45.2629 64.4521 45.4068 64.2489 45.5593C62.4623 46.9309 60.6842 48.3195 58.8976 49.7082C58.8299 49.759 58.7706 49.8182 58.6775 49.8013C57.3566 45.6947 56.0442 41.5966 54.7233 37.49C54.3931 36.4655 54.0798 35.4325 53.7411 34.408C53.6818 34.2302 53.6141 33.9931 53.3686 34.027C53.1315 34.0608 53.1653 34.2979 53.1738 34.4673C53.1992 35.2378 53.1907 36.0167 53.2754 36.7873C53.4278 38.0912 53.4871 39.3951 53.5887 40.6991C53.6564 41.5797 53.7072 42.4603 53.7665 43.3408C53.8681 44.8226 53.9782 46.3128 54.0883 47.7946C54.0967 47.8284 54.0967 47.8539 54.1052 47.8877C54.1306 49.2425 54.0629 50.5972 53.6649 51.9012C53.2416 53.2982 52.6234 54.5853 51.4211 55.4912C50.3627 56.2872 49.2112 56.5073 47.958 55.9739C47.5516 55.8045 47.1621 55.5928 46.7726 55.3981C46.5101 54.9493 46.0614 54.6784 45.7566 54.2635C43.7752 51.5201 41.777 48.7852 39.7872 46.0503C39.3808 45.4915 38.9744 44.9327 38.5595 44.3823C38.4748 44.2638 38.3732 44.1114 38.1869 44.1791C38.0345 44.2384 37.9837 44.3992 37.9583 44.5517C37.9329 44.7549 38.0091 44.9327 38.0684 45.119C38.8558 47.422 39.6433 49.7166 40.4307 52.0197C40.5239 52.1467 40.5747 52.2991 40.7271 52.3923Z" fill="#7A84E5"/>
<path d="M12.2257 15.1112C14.715 14.9758 16.4762 16.2797 18.0257 18.0239C19.5159 19.7004 20.4388 21.6648 21.1755 23.7562C22.8605 28.5825 24.5793 33.3919 26.2897 38.2097C27.3311 41.1478 28.3811 44.0944 29.431 47.0325C30.9297 51.2661 32.4368 55.4912 33.9355 59.7248C34.7992 62.1464 35.6544 64.568 36.518 66.9896C35.4257 66.49 34.4012 65.855 33.3428 65.2877C31.751 64.4325 30.1676 63.535 28.5758 62.6798C27.0348 61.85 25.9594 60.6054 25.2905 59.0135C24.8841 58.0652 24.6132 57.0661 24.2237 56.1178C23.5294 54.4074 22.3948 53.0865 20.7267 52.2229C18.212 50.9189 15.7057 49.5896 13.1994 48.2687C13.0555 48.1925 12.92 48.0739 12.7422 48.1078C12.3612 47.7691 11.887 47.5998 11.4044 47.5236C10.7355 47.4135 10.1258 47.6082 9.79561 48.2094C9.43152 48.8783 9.21137 49.6234 9.03356 50.377L9.00816 50.3685V50.3431C8.97429 50.377 8.94889 50.4024 8.91502 50.4363L8.92349 50.4193C8.88962 50.4447 8.85575 50.4786 8.83035 50.504C8.17838 51.0629 7.46714 51.0629 6.75589 50.6818C4.5629 49.5049 2.38683 48.2941 0.202303 47.1171C-0.0347783 46.9901 -0.0263113 46.8716 0.0414261 46.6599C0.464785 45.4068 0.879677 44.1452 1.29457 42.8836C3.30129 36.838 5.33341 30.8009 7.30626 24.7469C8.09371 22.3422 8.94889 19.9545 9.70247 17.5413C10.0835 16.339 10.854 15.5515 12.0479 15.1705C12.1241 15.1959 12.1918 15.1874 12.2257 15.1112ZM12.0648 40.7075C12.0817 40.9276 12.285 40.9446 12.4204 41.0123C15.1299 42.3755 17.8394 43.7303 20.5574 45.0766C20.6759 45.1358 20.7775 45.2374 20.9553 45.2036C20.9469 45.1443 20.9469 45.0935 20.9299 45.0427C20.1679 42.5787 19.4059 40.1148 18.6269 37.6508C18.5591 37.4476 18.5845 37.2021 18.3898 37.0497C18.3898 36.584 18.1612 36.1691 18.0342 35.7373C17.7124 34.6365 17.1197 33.7051 16.1121 33.0955C15.1977 32.5451 14.3425 32.8754 14.0631 33.8406C13.4704 35.9066 12.8099 37.9557 12.1918 40.0132C12.1156 40.2249 11.9378 40.4535 12.0648 40.7075Z" fill="#5D66AF"/>
<path d="M34.3151 22.1813C33.9595 21.8426 33.7393 21.4108 33.4599 21.0213C32.3253 19.438 31.2923 17.7953 30.09 16.2628C29.5311 15.56 28.8622 14.9588 28.2695 14.2814C29.9122 11.7413 31.5887 9.21808 33.189 6.64405C34.1203 5.15383 35.3227 4.0531 36.9907 3.47733C37.3802 3.47733 37.7528 3.40113 38.1423 3.38419C39.895 3.31645 41.1904 4.1547 42.215 5.46712C43.3834 6.95734 43.9169 8.68464 44.0608 10.5644C44.1793 12.0884 44.2894 13.6125 44.3995 15.1366C44.5011 16.6607 44.6196 18.1848 44.7297 19.7089C44.8398 21.2076 44.9499 22.6978 45.0599 24.1965C45.1785 25.746 45.2885 27.2955 45.3902 28.8534C45.4748 30.0897 45.6357 31.3174 45.6272 32.5621C45.6272 33.0955 45.5002 33.5951 45.2462 34.0692C44.6196 35.2292 43.4342 35.2546 42.6553 34.247C41.8593 33.2056 41.1396 32.1048 40.3945 31.0295C39.2599 29.3953 38.1253 27.7697 36.9992 26.1355C36.8976 25.9915 36.7621 25.8645 36.7367 25.6783C36.7282 25.1956 36.7452 24.713 36.6605 24.2388C36.4827 23.2566 35.7884 21.9781 34.3151 22.1813Z" fill="#5D66AF"/>
<path d="M54.1124 47.7694C54.0024 46.2877 53.9008 44.7974 53.7907 43.3157C53.7314 42.4351 53.6806 41.5545 53.6129 40.6739C53.5028 39.37 53.4435 38.066 53.2996 36.7621C53.2065 36 53.2234 35.2211 53.198 34.4421C53.1895 34.2727 53.1557 34.0357 53.3927 34.0018C53.6298 33.9679 53.706 34.205 53.7653 34.3828C54.0955 35.4073 54.4173 36.4403 54.7475 37.4649C56.0599 41.5714 57.3808 45.6696 58.7017 49.7761C58.236 49.6745 57.838 49.4205 57.4146 49.2342C56.3816 48.7855 55.3487 48.3113 54.3157 47.8541C54.2564 47.7779 54.1886 47.7694 54.1124 47.7694Z" fill="#494F8B"/>
<path d="M40.7264 52.3921C40.574 52.299 40.5232 52.1466 40.4723 51.9857C39.6849 49.6827 38.8975 47.3881 38.11 45.085C38.0507 44.8987 37.9661 44.7209 37.9999 44.5177C38.0253 44.3653 38.0677 44.2044 38.2285 44.1451C38.4064 44.0774 38.508 44.2298 38.6011 44.3483C39.016 44.8987 39.4224 45.4575 39.8288 46.0164C41.8186 48.7513 43.8169 51.4862 45.7982 54.2295C46.103 54.6444 46.5518 54.9154 46.8143 55.3641C44.7737 54.3819 42.75 53.3913 40.7264 52.3921Z" fill="#4A508B"/>
<path d="M9.02344 50.3856C9.20125 49.632 9.42139 48.8954 9.78548 48.218C10.1157 47.6168 10.7253 47.4221 11.3942 47.5322C11.8853 47.6084 12.351 47.7777 12.7321 48.1164C11.5128 48.9038 10.2935 49.6828 9.02344 50.3856Z" fill="#4B518B"/>
<path d="M34.3164 22.1812C35.7897 21.978 36.484 23.2565 36.6618 24.2302C36.7465 24.7129 36.7295 25.1955 36.738 25.6697C36.357 25.3394 36.1368 24.8822 35.8574 24.4758C35.3409 23.7222 34.7652 22.994 34.3164 22.1812Z" fill="#4A508C"/>
<path d="M18.3797 37.0498C18.5744 37.2022 18.5575 37.4478 18.6167 37.651C19.3873 40.1149 20.1493 42.5789 20.9198 45.0428C20.9368 45.0936 20.9368 45.1444 20.9452 45.2037C20.7759 45.2376 20.6658 45.1275 20.5473 45.0767C17.8378 43.7219 15.1198 42.3672 12.4103 41.0124C12.2748 40.9447 12.0716 40.9278 12.0547 40.7076C14.163 39.4883 16.2713 38.2691 18.3797 37.0498Z" fill="#7983E5"/>
<path d="M18.3798 37.0498C16.2715 38.269 14.1716 39.4883 12.0633 40.7076C11.9448 40.4536 12.1226 40.2334 12.1819 40.0133C12.7915 37.9558 13.4519 35.9067 14.0531 33.8407C14.3325 32.8755 15.1962 32.5452 16.1022 33.0956C17.1182 33.7052 17.7025 34.6366 18.0242 35.7374C18.1512 36.1777 18.3798 36.5841 18.3798 37.0498Z" fill="#494F8A"/>
</svg>
