<svg width="192" height="200" viewBox="0 0 192 200" fill="none" xmlns="http://www.w3.org/2000/svg">
<path d="M121.446 156.235C120.916 156.765 121.421 157.27 121.572 157.699C124.299 165.703 127.026 173.682 129.829 181.661C130.258 182.898 130.132 183.58 129.021 184.438C122.582 189.337 116.22 194.336 109.857 199.31C109.579 199.537 109.327 199.84 108.897 199.79C106.322 192.569 103.746 185.347 101.196 178.126C96.7271 165.501 92.258 152.902 87.7636 140.277C84.658 131.516 81.527 122.729 78.3961 113.968C73.2958 99.6007 68.1702 85.2591 63.1455 70.867C60.9741 64.6304 58.1967 58.7726 53.7528 53.7732C49.1322 48.5466 43.8803 44.6582 36.457 45.0875C39.6637 43.32 43.0471 41.9061 46.3548 40.3406C50.8744 38.1692 55.5455 36.225 59.9641 33.902C63.4485 32.0588 66.832 32.2103 70.3164 33.5233C75.139 35.316 79.2041 38.3207 83.0168 41.7041C83.4207 42.0576 83.6985 42.5626 84.2792 42.6383C86.0467 44.633 88.0414 46.4257 89.7078 48.5466C93.2932 53.1168 96.3989 58.0151 99.757 62.7367C100.59 63.8982 101.247 65.1859 102.307 66.1959C103.62 68.6198 105.362 70.7913 106.928 73.0637C107.761 74.2757 108.418 75.6391 109.554 76.6239C109.63 77.1793 110.034 77.5581 110.337 77.9873C113.72 82.8604 117.078 87.7336 120.461 92.5814C122.683 95.7881 124.83 99.0705 127.203 102.176C129.501 105.181 133.061 105.105 134.929 101.646C135.687 100.232 136.066 98.7423 136.066 97.1515C136.091 93.4399 135.586 89.7787 135.359 86.0923C135.056 81.4717 134.702 76.8259 134.374 72.2052C134.046 67.7361 133.717 63.2922 133.389 58.8231C133.061 54.2782 132.707 49.7334 132.404 45.1885C132.101 40.6436 131.748 36.0987 131.394 31.5539C130.965 25.9738 129.349 20.7976 125.89 16.3538C122.835 12.4401 118.972 9.94045 113.745 10.1424C112.584 10.1929 111.473 10.4454 110.311 10.4202C113.24 9.00622 116.169 7.59226 119.098 6.20355C122.305 4.68859 125.562 3.29988 128.718 1.68393C134.046 -1.043 139.121 -0.310769 143.943 2.82014C150.18 6.86003 153.892 12.7936 156.063 19.7877C160.027 32.4376 163.966 45.1127 167.905 57.7879C175.884 83.3402 183.862 108.918 191.841 134.47C191.993 134.975 192.195 135.404 191.589 135.859C186.261 139.949 180.959 144.09 175.631 148.231C175.429 148.382 175.252 148.559 174.975 148.509C171.036 136.263 167.122 124.042 163.183 111.796C162.199 108.741 161.264 105.661 160.254 102.605C160.078 102.075 159.876 101.368 159.143 101.469C158.436 101.57 158.537 102.277 158.563 102.782C158.638 105.08 158.613 107.403 158.866 109.7C159.32 113.589 159.497 117.477 159.8 121.366C160.002 123.992 160.153 126.617 160.33 129.243C160.633 133.662 160.961 138.106 161.29 142.525C161.315 142.626 161.315 142.701 161.34 142.802C161.416 146.842 161.214 150.882 160.027 154.77C158.765 158.937 156.921 162.774 153.336 165.476C150.18 167.85 146.746 168.506 143.009 166.915C141.797 166.41 140.636 165.779 139.474 165.198C138.691 163.86 137.353 163.052 136.444 161.815C130.536 153.634 124.577 145.479 118.644 137.323C117.432 135.657 116.22 133.99 114.982 132.349C114.73 131.996 114.427 131.541 113.871 131.743C113.417 131.92 113.265 132.4 113.19 132.854C113.114 133.46 113.341 133.99 113.518 134.546C115.866 141.414 118.214 148.256 120.562 155.124C120.84 155.503 120.992 155.957 121.446 156.235Z" fill="#7A84E5"/>
<path d="M36.4573 45.062C43.8806 44.658 49.1324 48.5464 53.7531 53.7478C58.1969 58.7472 60.9491 64.605 63.1458 70.8416C68.1704 85.2337 73.296 99.5753 78.3964 113.942C81.502 122.704 84.633 131.49 87.7639 140.252C92.233 152.877 96.7274 165.476 101.197 178.101C103.772 185.322 106.322 192.543 108.898 199.765C105.64 198.275 102.585 196.381 99.429 194.689C94.6822 192.139 89.9606 189.463 85.2137 186.913C80.6183 184.438 77.4117 180.727 75.417 175.98C74.205 173.152 73.397 170.172 72.2355 167.344C70.1651 162.244 66.7817 158.305 61.8076 155.73C54.3085 151.841 46.8348 147.877 39.361 143.938C38.9317 143.711 38.5277 143.358 37.9975 143.459C36.8613 142.449 35.4473 141.944 34.0081 141.716C32.0134 141.388 30.1955 141.969 29.2107 143.762C28.125 145.756 27.4685 147.978 26.9383 150.225L26.8626 150.2V150.124C26.7616 150.225 26.6858 150.301 26.5848 150.402L26.6101 150.352C26.5091 150.427 26.4081 150.528 26.3323 150.604C24.3881 152.271 22.2672 152.271 20.1462 151.134C13.6067 147.625 7.11759 144.014 0.603271 140.504C-0.10371 140.126 -0.0784608 139.772 0.123534 139.141C1.386 135.404 2.62322 131.642 3.86043 127.88C9.84452 109.852 15.9044 91.849 21.7874 73.7957C24.1356 66.6249 26.6858 59.5046 28.933 52.3086C30.0692 48.7232 32.3669 46.375 35.927 45.2388C36.1543 45.3145 36.3563 45.2893 36.4573 45.062ZM35.9775 121.391C36.028 122.047 36.634 122.098 37.038 122.3C45.1178 126.365 53.1976 130.405 61.3026 134.419C61.6561 134.596 61.9591 134.899 62.4893 134.798C62.4641 134.621 62.4641 134.47 62.4136 134.318C60.1411 126.971 57.8687 119.623 55.5458 112.276C55.3438 111.67 55.4195 110.937 54.8388 110.483C54.8388 109.094 54.1571 107.857 53.7783 106.569C52.8188 103.287 51.0514 100.51 48.0467 98.6916C45.3198 97.0504 42.7696 98.0351 41.9364 100.913C40.1689 107.074 38.1995 113.185 36.3563 119.32C36.129 119.951 35.5988 120.633 35.9775 121.391Z" fill="#5D66AF"/>
<path d="M102.333 66.1454C101.272 65.1355 100.616 63.8477 99.7825 62.6863C96.3991 57.9647 93.3187 53.0663 89.7333 48.4962C88.0668 46.4005 86.0721 44.6078 84.3047 42.5878C89.2031 35.013 94.2024 27.4887 98.9745 19.8129C101.752 15.3691 105.337 12.0867 110.311 10.3697C111.473 10.3697 112.584 10.1425 113.745 10.092C118.972 9.88997 122.835 12.3896 125.89 16.3033C129.375 20.7472 130.965 25.898 131.395 31.5034C131.748 36.0483 132.076 40.5931 132.405 45.138C132.708 49.6829 133.061 54.2278 133.389 58.7726C133.718 63.2418 134.046 67.6856 134.374 72.1548C134.728 76.7754 135.056 81.396 135.359 86.0419C135.611 89.7283 136.091 93.3894 136.066 97.1011C136.066 98.6918 135.687 100.181 134.93 101.595C133.061 105.055 129.526 105.13 127.203 102.126C124.83 99.02 122.684 95.7376 120.462 92.5309C117.078 87.6578 113.695 82.81 110.337 77.9368C110.034 77.5076 109.63 77.1289 109.554 76.5734C109.529 75.1342 109.579 73.695 109.327 72.281C108.797 69.3521 106.726 65.5394 102.333 66.1454Z" fill="#5D66AF"/>
<path d="M161.364 142.449C161.036 138.03 160.733 133.586 160.404 129.168C160.228 126.542 160.076 123.916 159.874 121.29C159.546 117.402 159.369 113.513 158.94 109.625C158.662 107.352 158.713 105.029 158.637 102.706C158.612 102.201 158.511 101.495 159.218 101.394C159.925 101.293 160.152 101.999 160.329 102.53C161.313 105.585 162.273 108.665 163.257 111.72C167.171 123.966 171.11 136.187 175.049 148.433C173.66 148.13 172.473 147.372 171.211 146.817C168.131 145.479 165.05 144.065 161.97 142.701C161.793 142.474 161.591 142.449 161.364 142.449Z" fill="#494F8B"/>
<path d="M121.446 156.235C120.992 155.957 120.84 155.503 120.689 155.023C118.341 148.155 115.992 141.313 113.644 134.445C113.468 133.889 113.215 133.359 113.316 132.753C113.392 132.299 113.518 131.819 113.998 131.642C114.528 131.44 114.831 131.895 115.109 132.248C116.346 133.889 117.558 135.556 118.77 137.222C124.703 145.378 130.662 153.533 136.571 161.714C137.48 162.951 138.818 163.759 139.601 165.097C133.515 162.169 127.481 159.214 121.446 156.235Z" fill="#4A508B"/>
<path d="M26.9141 150.251C27.4443 148.004 28.1008 145.807 29.1865 143.787C30.1712 141.994 31.9892 141.414 33.9839 141.742C35.4483 141.969 36.837 142.474 37.9733 143.484C34.3374 145.832 30.7015 148.155 26.9141 150.251Z" fill="#4B518B"/>
<path d="M102.332 66.1452C106.725 65.5392 108.796 69.3519 109.326 72.2556C109.579 73.6948 109.528 75.134 109.553 76.5479C108.417 75.5632 107.761 74.1997 106.927 72.9878C105.387 70.7406 103.67 68.5692 102.332 66.1452Z" fill="#4A508C"/>
<path d="M54.8144 110.483C55.3951 110.937 55.3446 111.67 55.5213 112.276C57.819 119.623 60.0915 126.971 62.3891 134.318C62.4396 134.47 62.4396 134.621 62.4649 134.798C61.9599 134.899 61.6317 134.571 61.2782 134.419C53.1984 130.379 45.0934 126.339 37.0136 122.3C36.6096 122.098 36.0036 122.047 35.9531 121.391C42.2402 117.755 48.5273 114.119 54.8144 110.483Z" fill="#7983E5"/>
<path d="M54.8104 110.483C48.5233 114.119 42.2615 117.755 35.9744 121.391C35.6209 120.633 36.1511 119.977 36.3279 119.32C38.1458 113.185 40.1153 107.074 41.908 100.914C42.7412 98.0352 45.3166 97.0505 48.0183 98.6917C51.0482 100.51 52.7904 103.287 53.7499 106.569C54.1286 107.882 54.8104 109.094 54.8104 110.483Z" fill="#494F8A"/>
</svg>
