<svg width="514" height="534" viewBox="0 0 514 534" fill="none" xmlns="http://www.w3.org/2000/svg">
<path d="M324.595 417.574C323.178 418.991 324.527 420.341 324.932 421.488C332.22 442.881 339.509 464.206 347 485.531C348.147 488.838 347.809 490.66 344.84 492.954C327.632 506.046 310.625 519.408 293.619 532.703C292.877 533.31 292.202 534.12 291.055 533.985C284.171 514.685 277.288 495.384 270.472 476.083C258.527 442.341 246.582 408.666 234.57 374.924C226.27 351.507 217.901 328.022 209.533 304.605C195.901 266.206 182.202 227.875 168.773 189.409C162.969 172.74 155.546 157.083 143.668 143.721C131.319 129.752 117.282 119.36 97.4414 120.507C106.012 115.783 115.055 112.004 123.895 107.82C135.975 102.016 148.46 96.8197 160.27 90.6111C169.582 85.6847 178.625 86.0896 187.938 89.5988C200.828 94.3902 211.693 102.421 221.883 111.464C222.963 112.409 223.705 113.758 225.257 113.961C229.981 119.292 235.313 124.083 239.766 129.752C249.349 141.967 257.65 155.059 266.625 167.679C268.852 170.783 270.607 174.225 273.441 176.924C276.951 183.402 281.607 189.206 285.791 195.28C288.018 198.519 289.773 202.163 292.809 204.795C293.012 206.28 294.092 207.292 294.901 208.439C303.944 221.464 312.92 234.488 321.963 247.445C327.901 256.016 333.638 264.789 339.981 273.09C346.122 281.12 355.638 280.918 360.631 271.672C362.656 267.893 363.668 263.912 363.668 259.66C363.736 249.74 362.386 239.955 361.779 230.102C360.969 217.752 360.024 205.335 359.147 192.985C358.27 181.04 357.392 169.163 356.515 157.218C355.638 145.071 354.693 132.924 353.883 120.777C353.073 108.629 352.128 96.4822 351.184 84.335C350.036 69.4209 345.717 55.5866 336.472 43.7093C328.306 33.2491 317.981 26.5682 304.012 27.108C300.908 27.243 297.938 27.9179 294.834 27.8504C302.662 24.0712 310.49 20.2921 318.319 16.5804C326.889 12.5314 335.595 8.8197 344.03 4.50068C358.27 -2.78766 371.834 -0.830603 384.723 7.53749C401.392 18.335 411.312 34.1939 417.116 52.8872C427.711 86.697 438.239 120.574 448.766 154.452C470.092 222.746 491.417 291.108 512.742 359.402C513.147 360.752 513.687 361.899 512.067 363.114C497.828 374.047 483.656 385.114 469.417 396.182C468.877 396.586 468.404 397.059 467.662 396.924C457.134 364.194 446.674 331.531 436.147 298.801C433.515 290.636 431.018 282.402 428.319 274.237C427.846 272.82 427.306 270.93 425.349 271.2C423.46 271.47 423.73 273.359 423.797 274.709C424 280.85 423.932 287.059 424.607 293.2C425.822 303.593 426.294 313.985 427.104 324.378C427.644 331.396 428.049 338.415 428.521 345.433C429.331 357.243 430.208 369.12 431.085 380.93C431.153 381.2 431.153 381.402 431.22 381.672C431.423 392.47 430.883 403.267 427.711 413.66C424.337 424.795 419.411 435.053 409.828 442.274C401.392 448.617 392.214 450.372 382.227 446.12C378.987 444.77 375.883 443.083 372.779 441.531C370.687 437.954 367.11 435.795 364.681 432.488C348.889 410.623 332.963 388.826 317.104 367.028C313.865 362.574 310.625 358.12 307.319 353.734C306.644 352.789 305.834 351.574 304.349 352.114C303.135 352.586 302.73 353.869 302.527 355.083C302.325 356.703 302.932 358.12 303.405 359.605C309.681 377.961 315.957 396.249 322.233 414.605C322.975 415.617 323.38 416.832 324.595 417.574Z" fill="#7A84E5"/>
<path d="M97.4406 120.439C117.281 119.36 131.318 129.752 143.668 143.654C155.545 157.016 162.901 172.672 168.772 189.341C182.201 227.807 195.901 266.139 209.533 304.537C217.833 327.955 226.201 351.439 234.569 374.856C246.514 408.599 258.526 442.274 270.471 476.016C277.355 495.317 284.171 514.617 291.054 533.918C282.348 529.936 274.183 524.875 265.747 520.353C253.06 513.537 240.44 506.384 227.753 499.568C215.471 492.955 206.901 483.034 201.569 470.347C198.33 462.789 196.171 454.826 193.066 447.267C187.533 433.636 178.49 423.108 165.195 416.225C145.152 405.832 125.177 395.237 105.201 384.709C104.054 384.102 102.974 383.157 101.557 383.427C98.5203 380.728 94.7412 379.378 90.8945 378.771C85.5633 377.893 80.7044 379.445 78.0725 384.237C75.1706 389.568 73.416 395.507 71.9988 401.513L71.7964 401.445V401.243C71.5265 401.513 71.324 401.715 71.0541 401.985L71.1216 401.85C70.8516 402.053 70.5817 402.323 70.3792 402.525C65.1829 406.979 59.5142 406.979 53.8455 403.942C36.367 394.562 19.0234 384.912 1.61238 375.531C-0.277188 374.519 -0.209705 373.574 0.330172 371.887C3.7044 361.899 7.01115 351.844 10.3179 341.789C26.3118 293.605 42.5081 245.488 58.232 197.237C64.5081 178.071 71.324 159.041 77.3301 139.807C80.3669 130.225 86.508 123.949 96.0234 120.912C96.6307 121.114 97.1706 121.047 97.4406 120.439ZM96.1583 324.445C96.2933 326.2 97.9129 326.335 98.9927 326.875C120.588 337.74 142.183 348.537 163.845 359.268C164.79 359.74 165.6 360.55 167.017 360.28C166.95 359.807 166.95 359.402 166.815 358.998C160.741 339.36 154.668 319.722 148.459 300.083C147.919 298.464 148.122 296.507 146.569 295.292C146.569 291.58 144.747 288.274 143.735 284.832C141.171 276.059 136.447 268.636 128.416 263.777C121.128 259.39 114.312 262.022 112.085 269.715C107.361 286.182 102.097 302.513 97.1706 318.912C96.5633 320.599 95.1461 322.421 96.1583 324.445Z" fill="#5D66AF"/>
<path d="M273.508 176.789C270.674 174.089 268.919 170.648 266.692 167.543C257.649 154.924 249.416 141.832 239.833 129.617C235.379 124.016 230.048 119.224 225.324 113.826C238.416 93.5802 251.778 73.4698 264.533 52.9544C271.956 41.0771 281.539 32.3041 294.833 27.7152C297.938 27.7152 300.907 27.1078 304.011 26.9728C317.981 26.433 328.306 33.1139 336.471 43.5741C345.784 55.4514 350.036 69.2182 351.183 84.1998C352.128 96.347 353.005 108.494 353.882 120.642C354.692 132.789 355.637 144.936 356.514 157.083C357.392 169.028 358.269 180.905 359.146 192.85C360.091 205.2 360.968 217.549 361.778 229.967C362.453 239.819 363.735 249.605 363.668 259.525C363.668 263.776 362.655 267.758 360.631 271.537C355.637 280.783 346.189 280.985 339.981 272.954C333.637 264.654 327.901 255.881 321.962 247.31C312.919 234.286 303.876 221.329 294.901 208.304C294.091 207.157 293.011 206.145 292.809 204.66C292.741 200.813 292.876 196.967 292.201 193.188C290.784 185.359 285.251 175.169 273.508 176.789Z" fill="#5D66AF"/>
<path d="M431.286 380.728C430.409 368.918 429.599 357.041 428.722 345.231C428.249 338.212 427.844 331.194 427.305 324.176C426.427 313.783 425.955 303.39 424.808 292.998C424.065 286.924 424.2 280.715 423.998 274.507C423.93 273.157 423.66 271.268 425.55 270.998C427.44 270.728 428.047 272.617 428.519 274.034C431.151 282.2 433.716 290.433 436.347 298.599C446.808 331.329 457.335 363.992 467.863 396.722C464.151 395.912 460.979 393.887 457.605 392.403C449.372 388.826 441.139 385.047 432.906 381.403C432.433 380.795 431.893 380.728 431.286 380.728Z" fill="#494F8B"/>
<path d="M324.596 417.574C323.382 416.832 322.977 415.617 322.572 414.335C316.296 395.979 310.02 377.691 303.744 359.335C303.271 357.85 302.596 356.433 302.866 354.813C303.069 353.599 303.406 352.316 304.689 351.844C306.106 351.304 306.915 352.519 307.658 353.464C310.965 357.85 314.204 362.304 317.443 366.758C333.302 388.556 349.228 410.353 365.02 432.218C367.449 435.525 371.026 437.685 373.118 441.261C356.854 433.433 340.725 425.537 324.596 417.574Z" fill="#4A508B"/>
<path d="M71.9336 401.58C73.3508 395.574 75.1054 389.703 78.0072 384.304C80.6391 379.513 85.498 377.961 90.8293 378.838C94.7434 379.445 98.4551 380.795 101.492 383.494C91.7741 389.771 82.0563 395.979 71.9336 401.58Z" fill="#4B518B"/>
<path d="M273.508 176.789C285.25 175.169 290.784 185.359 292.201 193.12C292.876 196.967 292.741 200.813 292.808 204.592C289.772 201.96 288.017 198.316 285.79 195.077C281.673 189.071 277.084 183.267 273.508 176.789Z" fill="#4A508C"/>
<path d="M146.501 295.292C148.053 296.507 147.918 298.464 148.39 300.083C154.532 319.721 160.605 339.359 166.746 358.997C166.881 359.402 166.881 359.807 166.949 360.28C165.599 360.55 164.722 359.672 163.777 359.267C142.182 348.47 120.519 337.672 98.9242 326.875C97.8444 326.335 96.2248 326.2 96.0898 324.445C112.894 314.728 129.697 305.01 146.501 295.292Z" fill="#7983E5"/>
<path d="M146.501 295.292C129.698 305.01 112.961 314.727 96.1577 324.445C95.2129 322.421 96.6301 320.666 97.1024 318.911C101.961 302.513 107.225 286.181 112.017 269.715C114.244 262.022 121.127 259.39 128.348 263.776C136.446 268.635 141.102 276.059 143.667 284.832C144.679 288.341 146.501 291.58 146.501 295.292Z" fill="#494F8A"/>
</svg>
