<svg width="260" height="260" viewBox="0 0 260 260" fill="none" xmlns="http://www.w3.org/2000/svg">
<g filter="url(#filter0_d_719_10321)">
<path d="M126 246C192.274 246 246 192.274 246 126C246 59.7258 192.274 6 126 6C59.7258 6 6 59.7258 6 126C6 192.274 59.7258 246 126 246Z" fill="url(#paint0_linear_719_10321)"/>
</g>
<path d="M126 246C192.274 246 246 192.274 246 126C246 59.7258 192.274 6 126 6C59.7258 6 6 59.7258 6 126C6 192.274 59.7258 246 126 246Z" fill="url(#paint1_linear_719_10321)"/>
<path d="M11 74.6845L34.6469 65.1251L58.7969 57.0751L82.9469 50.5345L96.5312 47.0126L108.606 46.0063L111.122 110.406L87.9781 115.941L63.325 122.984L38.6719 132.544L26.5969 138.581L16.0312 146.128L11 74.6845Z" fill="#0095B6"/>
<path fill-rule="evenodd" clip-rule="evenodd" d="M107.354 45.0104C108.166 44.9554 108.978 45.1189 109.705 45.4839C110.189 45.8745 110.214 46.3961 110.325 47.4046C111.138 54.9803 112.679 110.431 112.427 111.065C112.091 111.629 111.781 111.61 111.129 111.71C97.0033 113.924 79.0236 118.971 65.2011 123.664C28.7723 136.094 18.4654 145.977 17.1349 146.531C17.0054 146.572 16.8687 146.585 16.7339 146.568C16.5991 146.552 16.4693 146.507 16.3531 146.437C16.237 146.367 16.1372 146.272 16.0604 146.16C15.9836 146.048 15.9316 145.921 15.9078 145.788C14.6357 141.537 11.2519 80.8443 11.0073 75.572C10.9856 75.3675 11.0127 75.1607 11.0863 74.9687C11.16 74.7767 11.2781 74.6048 11.431 74.4672C17.1554 68.256 92.8556 45.0301 107.354 45.0104ZM17.3685 144.247C38.7107 128.561 84.1838 113.88 110.453 109.731C108.606 39.6064 108.439 50.4799 108.295 47.0487C106.985 46.9484 105.667 46.9963 104.368 47.1916C90.7028 48.8377 58.3017 58.1708 44.2528 62.5734C40.9202 63.619 13.6217 72.1827 11.8682 75.2659C11.7404 75.4931 16.0072 135.232 17.3685 144.247Z" fill="#0095B6"/>
<path fill-rule="evenodd" clip-rule="evenodd" d="M22.2637 80.7314C22.3118 81.874 25.5986 125.048 25.8148 124.918C30.7019 122.014 51.2036 114.622 54.0224 113.069C54.4904 112.811 51.906 73.4832 51.3946 71.7187C50.7349 69.4444 22.2589 80.6075 22.2637 80.7314Z" fill="#51CDF2"/>
<path fill-rule="evenodd" clip-rule="evenodd" d="M50.6276 70.5468C50.9122 70.5164 51.1998 70.5616 51.4614 70.6778C51.723 70.7941 51.9493 70.9773 52.1175 71.2089C52.9855 72.7588 54.855 105.116 55.0246 109.267C55.1896 113.402 55.2614 113.598 54.2544 114.11C52.4213 115.022 46.9944 117.109 42.2012 118.986C26.1502 125.274 26.963 125.507 26.166 125.819C26.0362 125.871 25.8969 125.893 25.7576 125.886C25.6183 125.879 25.4822 125.841 25.3585 125.777C25.2348 125.712 25.1265 125.622 25.0407 125.512C24.955 125.402 24.8938 125.275 24.8615 125.139C24.3273 122.876 21.7918 80.7567 21.8486 80.7519C21.8448 80.6702 21.8653 80.5891 21.9074 80.5189C21.9495 80.4487 22.0114 80.3925 22.0853 80.3574C23.1428 79.7915 45.7444 70.5184 50.6276 70.5468ZM22.6977 80.9863C22.7285 81.3564 26.4642 122.124 26.5913 123.388C32.8673 120.207 49.1858 114.212 53.0423 112.404C53.0936 107.998 51.0008 75.5334 50.596 72.2829C47.1254 72.028 26.2283 79.5516 22.6977 80.9863Z" fill="#51CDF2"/>
<path fill-rule="evenodd" clip-rule="evenodd" d="M61.042 68.9931C60.9994 68.5678 61.4271 68.2647 61.7996 68.0461C66.3418 65.3631 94.5929 58.0754 98.4486 58.1606C98.7391 58.1421 99.0264 58.23 99.2567 58.4079C99.4871 58.5858 99.6447 58.8416 99.7002 59.1273C100.23 60.996 101.469 73.3894 101.107 75.101C101.074 75.2834 100.998 75.4551 100.884 75.6013C100.77 75.7474 100.622 75.8636 100.453 75.9399C100.148 76.0263 99.8359 76.0842 99.5202 76.1127C94.323 77.0723 66.2187 84.4949 62.5887 83.8628C62.3882 83.8475 62.1979 83.7684 62.0456 83.637C61.8934 83.5056 61.7872 83.3289 61.7428 83.1328C61.4681 81.7195 61.3072 75.6463 61.1115 70.5722C61.0586 69.1351 61.0373 69.0113 61.042 68.9931ZM97.8504 60.2211C93.9048 60.6543 64.0226 67.0929 61.8793 69.0105C62.0616 70.554 62.7379 80.2162 63.0867 82.4313C66.9013 82.3161 93.0817 75.2288 99.1146 74.0909C99.1612 71.4947 98.0154 60.2045 97.8504 60.2211Z" fill="white"/>
<path d="M61.3125 68.6468L79.425 63.1124L98.0406 59.0874L100.053 74.6843L62.8219 82.7343L61.3125 68.6468Z" fill="white"/>
<path fill-rule="evenodd" clip-rule="evenodd" d="M102.289 83.4383L102.433 83.7114V83.7169L102.334 84.0097C101.759 84.3127 102.65 83.9876 99.1718 84.5487C91.3531 85.8215 77.7192 89.4594 70.4308 91.8087C63.9007 93.9299 66.1047 93.7026 64.4294 93.7926L63.8383 93.2686V93.2631L63.7949 92.4739C64.4191 91.7692 64.2589 91.9097 64.5051 91.7976C71.2065 88.8778 93.4506 83.6916 101.995 83.335L102.289 83.4383Z" fill="white"/>
<path fill-rule="evenodd" clip-rule="evenodd" d="M102.95 93.9027L103.094 94.1749V94.1805L102.995 94.4732C102.421 94.7763 103.311 94.4511 99.8332 95.0122C92.0144 96.2859 78.3805 99.9238 71.0921 102.272C64.3434 104.465 66.8481 104.161 65.0907 104.256L64.4996 103.732V103.727L64.457 102.938C65.0812 102.234 64.921 102.375 65.1673 102.262C71.8686 99.3422 94.1127 94.156 102.657 93.7993L102.95 93.9027Z" fill="white"/>
<path d="M139.801 46.0063L164.454 48.522L189.61 53.5532L214.263 60.0938L230.866 65.1251L239.42 68.647L238.413 139.588L216.276 128.519L191.623 119.966L141.31 108.897L139.801 46.0063Z" fill="white"/>
<path fill-rule="evenodd" clip-rule="evenodd" d="M239.56 69.218C239.774 69.5747 239.74 69.1983 239.772 74.3774C239.796 78.2165 240.138 136.653 239.112 140.372C239.087 140.516 239.029 140.652 238.942 140.769C238.855 140.886 238.742 140.981 238.611 141.046C238.48 141.112 238.336 141.145 238.19 141.144C238.044 141.143 237.9 141.107 237.771 141.04C235.041 139.259 232.213 137.633 229.301 136.168C206.189 124.342 165.802 114.274 141.474 112.062C141.253 112.042 141.044 111.951 140.878 111.802C140.714 111.652 140.6 111.455 140.554 111.237C140.468 110.489 138.344 52.052 138.942 46.9226C138.938 46.607 139.046 46.3002 139.246 46.0559C139.445 45.8115 139.725 45.6451 140.035 45.5858C148.428 42.5602 235.773 63.2656 239.56 69.218ZM238.898 69.7341C238.899 69.7537 238.901 69.7732 238.905 69.7925H238.912C238.907 69.7446 238.889 69.6988 238.862 69.6591L238.867 69.6663C236.468 65.9352 196.806 56.8033 192.483 55.8224C185.806 54.312 147.556 45.9172 140.885 47.389C140.952 50.7759 140.165 41.2834 142.565 110.087C164.256 112.162 199.389 120.608 222.768 131.004C234.46 136.233 237.56 139.132 237.593 138.753C238.528 128.021 238.819 69.7341 238.898 69.7341ZM239.52 70.0663H239.516H239.522C239.462 69.9669 239.084 69.3175 239.52 70.0663Z" fill="white"/>
<path fill-rule="evenodd" clip-rule="evenodd" d="M228.819 75.7472C228.841 76.8907 228.2 120.185 227.975 120.069C222.919 117.47 202.005 111.345 199.093 109.968C198.61 109.739 198.785 70.3267 199.188 68.5385C199.711 66.2239 228.817 75.621 228.819 75.7472Z" fill="#1BB9E5"/>
<path fill-rule="evenodd" clip-rule="evenodd" d="M200.315 67.3061C205.498 67.385 227.03 74.5069 228.95 75.3552C229.031 75.3845 229.102 75.438 229.152 75.5085C229.202 75.579 229.23 75.6632 229.231 75.7498C229.152 75.7498 228.894 75.7537 229.236 75.7498C229.298 78.0754 229.33 117.969 228.938 120.239C228.914 120.376 228.861 120.506 228.782 120.621C228.704 120.735 228.601 120.832 228.482 120.903C228.343 120.984 228.188 121.032 228.028 121.044C227.496 121.054 227.885 120.949 224.435 119.63C217.238 116.904 204.366 113.081 199.731 111.345C199.221 111.214 198.743 110.982 198.325 110.663C197.971 110.21 197.856 110.278 197.797 101.035C197.768 95.9714 197.826 71.7236 198.309 68.4929C198.466 67.516 199.336 67.295 200.315 67.3061ZM200.021 69.0485C199.806 72.4686 199.712 104.108 200.026 109.167C200.058 109.629 219.884 115.469 227.104 118.59C227.179 116.674 228.384 76.6928 228.398 76.0292C224.57 74.7397 203.57 68.6129 200.019 69.0485H200.021ZM199.772 69.0982L199.787 69.0911L199.772 69.0982ZM199.772 69.0982L199.789 69.0911L199.772 69.0982ZM199.79 69.0911L199.779 69.0966L199.791 69.0911H199.79ZM199.776 69.0958L199.791 69.0903L199.776 69.0958Z" fill="#1BB9E5"/>
<path d="M151.371 58.5845L169.987 61.6032L189.106 66.1313L188.603 80.722L150.365 74.1813L151.371 58.5845Z" fill="#0095B6"/>
<path fill-rule="evenodd" clip-rule="evenodd" d="M151.842 57.8655C157.394 57.9744 185.997 63.522 189.025 65.775C189.138 65.8409 189.231 65.9349 189.296 66.0476C189.361 66.1603 189.395 66.288 189.396 66.4181C189.367 67.3596 189.692 76.6153 189.615 79.6267C189.589 80.4805 189.627 81.0092 188.956 81.2838C186.093 82.361 158.935 76.9294 151.968 75.9398C150.149 75.6897 149.708 76.0858 149.61 73.2994C149.499 69.9195 149.763 62.7305 150.062 59.9101C150.217 58.4668 150.34 57.8513 151.842 57.8655ZM151.702 73.821C157.63 74.5675 184.411 80.0694 188.172 79.9415C188.366 77.9158 188.475 68.3657 188.55 66.6051C188.636 65.0166 155.754 60.0388 152.111 59.8975C151.739 64.5287 151.602 69.1759 151.702 73.821Z" fill="#0095B6"/>
<path d="M150.868 84.2437L178.036 89.2749L188.099 92.2937V106.884L149.861 99.8405L150.868 84.2437Z" fill="#0095B6"/>
<path fill-rule="evenodd" clip-rule="evenodd" d="M150.979 83.9031C156.531 84.012 185.134 89.5596 188.162 91.8126C188.274 91.8785 188.367 91.9725 188.432 92.0852C188.497 92.1979 188.532 92.3256 188.533 92.4557C188.504 93.3972 188.829 102.652 188.752 105.664C188.726 106.518 188.763 107.047 188.093 107.317C185.23 108.395 158.072 102.964 151.104 101.973C149.289 101.724 148.845 102.12 148.746 99.3338C148.636 95.954 148.899 88.7641 149.199 85.9446C149.354 84.5044 149.476 83.8889 150.979 83.9031ZM150.836 99.8625C156.764 100.609 183.545 106.111 187.307 105.983C187.5 103.957 187.61 94.4072 187.684 92.6467C187.771 91.0582 154.888 86.0803 151.246 85.939C150.873 90.5703 150.736 95.2174 150.836 99.8625Z" fill="#0095B6"/>
<path fill-rule="evenodd" clip-rule="evenodd" d="M100.777 143.306C108.716 143.34 109.063 153.427 109.063 153.427C109.063 153.427 103.108 177.489 101.108 177.29C96.4259 176.828 90.5831 175.619 85.4135 163.918C81.4734 155.001 80.8452 127.32 80.3102 126.021C79.671 124.466 77.9491 123.143 77.0858 121.616C75.648 119.076 75.5825 115.234 77.6911 113.417C78.5128 112.919 79.4273 112.594 80.3788 112.462C79.566 110.691 78.8862 108.862 78.3452 106.99C77.9862 105.984 77.5174 105.04 77.9814 104.065C78.0861 103.845 78.2413 103.652 78.4345 103.502C78.6277 103.352 78.8534 103.25 79.0933 103.204C79.3332 103.158 79.5807 103.169 79.8155 103.237C80.0504 103.304 80.2661 103.426 80.4451 103.592C81.381 104.46 83.8881 109.263 84.1501 110.357C84.2243 110.669 87.5734 113.791 88.1463 116.049C88.2781 116.571 90.8412 120.513 91.3123 121.246C94.2613 125.843 95.8467 131.331 97.9158 136.36C98.611 138.042 99.8981 142.289 100.776 143.304C102.093 144.868 103.308 146.516 104.412 148.237" fill="white"/>
<path fill-rule="evenodd" clip-rule="evenodd" d="M80.759 102.809C81.8015 103.538 83.6504 107.253 84.1854 108.39C85.2058 110.582 84.5532 109.712 85.2942 110.553C89.0094 114.758 88.3939 115.102 89.1081 116.383C91.2656 120.231 92.6915 121.507 94.9571 127.088C95.6263 128.737 98.7892 137.294 98.8176 137.375C99.3297 138.882 100.366 142.051 101.032 142.964C105.101 143.054 107.448 145.632 108.795 149.473C109.204 150.739 109.463 152.049 109.568 153.375C109.593 153.981 106.149 167.332 104.093 173.236C103.677 174.485 103.162 175.697 102.551 176.863C101.789 178.143 101.389 178.053 100.476 177.967C99.0584 177.839 97.6605 177.55 96.3089 177.106C93.8842 176.245 91.7174 174.784 90.0108 172.858C87.1414 169.535 84.9871 165.656 83.682 161.463C81.2278 152.893 80.4047 137.978 79.7939 129.297C79.5682 126.174 79.5722 126.315 79.1792 125.697C78.5542 124.724 77.4304 123.668 76.6476 122.516C74.8224 119.791 74.5525 115.372 76.8844 113.024C77.5238 112.432 78.3169 112.032 79.1729 111.87C78.6873 110.691 78.2617 109.489 77.8976 108.267C77.4644 106.889 77.3697 106.754 77.1874 106.17C76.2483 103.082 78.8919 101.545 80.759 102.809ZM100.929 176.614L100.937 176.608L100.929 176.614ZM100.942 176.605L100.932 176.614L100.94 176.608L100.942 176.605ZM100.935 176.611H100.94H100.935ZM79.3291 103.99C79.0363 103.995 78.7956 104.141 78.6575 104.564C78.5859 105.24 78.7218 105.922 79.0474 106.519C79.6086 108.411 80.298 110.263 81.111 112.062C81.2007 112.226 81.2326 112.416 81.2015 112.601C81.1705 112.785 81.0783 112.954 80.9397 113.08C80.6099 113.332 80.6241 113.238 79.8215 113.429C79.2674 113.535 78.7372 113.741 78.2567 114.036C76.7573 115.239 76.3225 118.575 77.8408 121.23C78.2022 121.806 78.6153 122.349 79.075 122.85C81.343 125.465 81.2254 125.603 81.4424 128.528C81.9601 135.528 82.4793 145.616 83.8516 154.285C84.7915 160.164 85.6272 163.367 88.5628 168.253C90.3778 171.144 92.2362 173.382 95.2349 174.989C97.0428 175.868 99.0007 176.396 101.005 176.546C101.742 175.36 102.335 174.091 102.774 172.765C104.879 166.873 106.687 160.356 108.297 154.337C108.598 153.185 108.57 153.532 108.504 152.758C108.044 149.001 106.632 145.255 103.036 144.016C102.577 143.866 102.104 143.762 101.625 143.705C102.721 145.1 103.743 146.551 104.687 148.053L104.59 148.526L104.117 148.424C98.9146 140.748 101.183 146.257 97.6599 137.069C97.39 136.385 96.9978 135.499 96.5733 134.402C95.5253 131.767 94.7038 129.49 93.5919 126.961C91.2837 121.969 91.1038 122.317 88.4136 117.994C88.0231 117.427 87.6943 116.82 87.4327 116.184C86.9119 114.383 84.4498 111.964 83.6812 111.038C83.2574 110.517 83.6425 110.738 82.3397 108.186C81.7505 107.022 81.0957 105.892 80.3787 104.802C80.0883 104.367 79.857 103.98 79.3291 103.99ZM88.8327 115.852V115.847V115.852ZM88.8327 115.852V115.841V115.852ZM84.8286 110.009L84.8215 109.998L84.8286 110.009Z" fill="white"/>
<path fill-rule="evenodd" clip-rule="evenodd" d="M76.6382 114.588C76.2786 114.431 75.8801 114.385 75.4943 114.457C75.1086 114.529 74.7532 114.715 74.4744 114.991C73.7097 115.71 73.8944 116.946 74.2171 117.862C74.9012 119.432 75.9025 120.844 77.1582 122.01C77.7793 122.475 79.3528 122.209 79.5596 121.283C79.7963 120.229 79.3552 119.374 78.8943 118.411C78.3293 117.229 77.638 115.446 76.6382 114.588Z" fill="white"/>
<path fill-rule="evenodd" clip-rule="evenodd" d="M75.7319 113.998C76.1453 113.989 76.5505 114.114 76.888 114.352C77.4945 114.85 78.0116 115.448 78.4174 116.12C78.8411 116.795 79.7786 118.48 79.9791 118.897C80.3122 119.532 80.4717 120.243 80.4415 120.959C80.4443 121.353 80.3303 121.74 80.1137 122.069C79.8971 122.399 79.5877 122.656 79.2247 122.81C78.8669 122.982 78.4767 123.075 78.08 123.084C77.6834 123.093 77.2894 123.017 76.9243 122.862C76.0065 122.188 75.2331 121.337 74.65 120.359C73.8112 119.072 73.0773 117.688 73.2691 116.163C73.3262 115.557 73.613 114.994 74.0708 114.592C74.5286 114.189 75.1228 113.977 75.7319 113.998ZM75.2151 115.082C75.0598 115.172 74.9266 115.295 74.825 115.443C74.7235 115.591 74.6561 115.759 74.6279 115.936C74.5957 116.51 74.7041 117.083 74.9436 117.605C75.6163 118.986 76.5275 120.238 77.6353 121.302C77.8162 121.375 78.0134 121.397 78.2058 121.366C78.3982 121.335 78.5785 121.252 78.7275 121.126C78.8629 120.584 78.799 120.011 78.5476 119.512C78.5176 119.433 77.4736 116.715 77.4428 116.636C77.2057 115.989 76.861 115.387 76.4232 114.856L76.4145 114.85L76.4319 114.863L76.4224 114.857L76.4366 114.867L76.4256 114.861L76.4374 114.869L76.4248 114.864C76.219 114.814 76.0052 114.809 75.797 114.846C75.5888 114.884 75.3906 114.964 75.2151 115.082Z" fill="white"/>
<path fill-rule="evenodd" clip-rule="evenodd" d="M79.9957 112.59C79.636 112.433 79.2375 112.388 78.8518 112.46C78.4661 112.532 78.1109 112.718 77.8319 112.994C77.0672 113.712 77.2519 114.949 77.5739 115.864C78.2585 117.435 79.2597 118.847 80.515 120.012C81.136 120.477 82.7103 120.212 82.9171 119.285C83.1538 118.232 82.7127 117.376 82.2518 116.414C81.6868 115.232 80.9963 113.448 79.9957 112.59Z" fill="white"/>
<path fill-rule="evenodd" clip-rule="evenodd" d="M79.0929 112.001C79.5062 111.992 79.9114 112.116 80.2489 112.355C80.8552 112.853 81.3723 113.451 81.7783 114.122C82.202 114.798 83.1387 116.482 83.34 116.9C83.6739 117.534 83.8342 118.246 83.8048 118.962C83.8075 119.356 83.6934 119.742 83.4768 120.072C83.2603 120.401 82.951 120.659 82.5879 120.813C82.2301 120.985 81.8397 121.078 81.4429 121.087C81.0461 121.096 80.652 121.02 80.2868 120.864C79.3694 120.191 78.5963 119.34 78.0133 118.362C77.1745 117.075 76.4406 115.691 76.6323 114.166C76.6895 113.56 76.9759 112.998 77.4332 112.596C77.8905 112.193 78.4841 111.98 79.0929 112.001ZM78.576 113.085C78.4208 113.175 78.2875 113.298 78.186 113.446C78.0844 113.593 78.0171 113.762 77.9889 113.939C77.9567 114.513 78.065 115.086 78.3045 115.608C78.9771 116.989 79.888 118.241 80.9955 119.305C81.1765 119.377 81.3738 119.399 81.5663 119.368C81.7588 119.337 81.9392 119.255 82.0884 119.129C82.2236 118.587 82.1591 118.014 81.9069 117.515C81.8777 117.436 80.8329 114.718 80.8021 114.638C80.5675 113.991 80.2252 113.389 79.7897 112.856L79.781 112.851L79.7983 112.863L79.7881 112.858L79.8023 112.867L79.7912 112.862L79.8039 112.87L79.7912 112.863C79.5843 112.814 79.3695 112.809 79.1604 112.847C78.9512 112.885 78.7522 112.966 78.576 113.085Z" fill="white"/>
<path fill-rule="evenodd" clip-rule="evenodd" d="M87.8201 116.276C87.9493 115.906 87.9643 115.506 87.8631 115.127C87.7619 114.748 87.5493 114.408 87.2527 114.152C86.477 113.442 85.257 113.723 84.3676 114.113C82.8526 114.914 81.519 116.019 80.4503 117.359C80.0337 118.012 80.418 119.56 81.3586 119.696C82.4279 119.853 83.2486 119.347 84.1743 118.815C85.3114 118.161 87.0388 117.336 87.8201 116.276Z" fill="white"/>
<path fill-rule="evenodd" clip-rule="evenodd" d="M85.8718 113.041C86.2616 113.028 86.6485 113.112 86.9982 113.284C87.3478 113.457 87.6494 113.713 87.8762 114.03C88.1409 114.383 88.2998 114.803 88.3344 115.243C88.3691 115.682 88.278 116.122 88.0719 116.511C87.5575 117.236 86.9141 117.859 86.174 118.35C85.2244 119.035 84.2331 119.66 83.2061 120.222C82.6988 120.45 82.1469 120.562 81.5907 120.55C81.1999 120.555 80.8162 120.445 80.4877 120.233C80.1591 120.021 79.9003 119.717 79.7434 119.359C79.5589 119.007 79.454 118.618 79.4363 118.221C79.4186 117.824 79.4884 117.427 79.6408 117.06C80.1261 116.093 81.8117 114.756 82.776 114.113C83.6731 113.446 84.7541 113.071 85.8718 113.041ZM86.1875 114.376C85.26 114.489 84.385 114.868 83.6685 115.467C82.7276 116.128 81.8849 116.918 81.1654 117.815C81.0707 117.978 81.1812 118.734 81.4692 118.867C82.0434 118.925 82.6213 118.801 83.1217 118.513C85.4204 117.409 86.7304 116.923 87.5313 116.085L87.5361 116.076C87.5629 115.877 87.5476 115.675 87.4911 115.482C87.4316 115.178 87.2707 114.902 87.0344 114.701C86.7982 114.5 86.5007 114.385 86.1906 114.374L86.1875 114.376Z" fill="white"/>
<path fill-rule="evenodd" clip-rule="evenodd" d="M108.496 155.291C108.496 155.291 109.475 147.731 101.394 143.243C99.486 142.183 119.725 131.361 142.578 130.561C173.477 129.478 181.737 158.676 181.562 166.125C181.483 172.201 179.99 178.176 177.201 183.574C174.412 188.973 170.404 193.648 165.494 197.228L161.69 194.737L106.177 202.66C106.177 202.66 101.55 188.738 97.6773 186.33C96.6309 185.679 101.869 177.747 101.869 177.747C105.255 158.948 108.496 155.291 108.496 155.291Z" fill="#242D3C"/>
<path fill-rule="evenodd" clip-rule="evenodd" d="M107.411 155.727C107.892 154.957 107.8 155.247 107.823 154.906C107.856 153.227 107.536 151.56 106.883 150.012C106.231 148.465 105.26 147.072 104.035 145.923C101.947 143.951 100.742 143.775 100.518 143.288C99.356 140.727 119.141 131.905 137.646 130.109C144.011 129.505 149.553 129.557 155.754 131.422C169.668 135.656 178.764 148.299 181.503 161.34C181.972 163.356 182.138 165.43 181.996 167.495C181.67 174.253 179.64 180.819 176.095 186.581C172.817 191.868 168.44 196.091 165.651 197.878C165.511 197.983 165.343 198.042 165.168 198.047C164.993 198.053 164.821 198.004 164.675 197.908L161.137 195.59C161.222 195.59 106.068 203.449 105.561 203.288C105.144 203.082 105.235 203.032 104.64 201.358C103.515 198.102 99.9415 188.761 97.0872 186.849C96.9052 186.753 96.7621 186.597 96.6824 186.407C96.4093 185.689 96.9854 184.434 97.3602 183.69C98.4584 181.565 99.6808 179.506 101.021 177.525C101.113 177.52 103.646 162.075 107.411 155.727ZM134.671 131.846C126.371 132.884 118.237 134.984 110.471 138.092C108.477 138.91 102.905 141.307 101.452 142.924C105.472 145.302 107.64 148.545 108.322 152.21C108.522 153.226 108.575 154.265 108.48 155.296C107.76 156.408 107.171 157.6 106.725 158.847C103.726 166.466 102.188 177.589 101.947 177.995C100.912 179.548 98.2449 183.882 97.7745 185.826C97.758 185.995 97.7595 185.725 98.7649 186.745C101.693 189.883 104.896 197.814 106.292 201.841C106.966 201.745 160.111 193.889 161.576 193.889C161.654 193.912 161.728 193.946 161.796 193.991C165.379 196.334 165.081 196.201 165.16 196.143C166.838 194.903 168.396 193.511 169.816 191.983C175.112 186.387 178.604 179.329 179.838 171.725C180.627 166.378 180.65 163.583 178.846 157.841C178.172 155.716 177.337 153.644 176.35 151.645C167.422 134.204 153.499 129.57 134.671 131.846Z" fill="#242D3C"/>
<path fill-rule="evenodd" clip-rule="evenodd" d="M161.525 194.541C161.525 194.541 133.166 176.778 132.947 176.821C99.7609 183.467 88.7209 190.684 87.0827 190.931C84.3949 191.338 81.4798 191.338 78.6507 191.768C77.2848 191.975 69.9908 192.287 70.0492 193.935C70.2173 198.53 78.4748 194.529 79.327 198.381C79.577 199.167 80.0575 199.86 80.7061 200.369C81.3547 200.878 82.1415 201.18 82.9642 201.236C86.7094 201.409 88.6917 199.653 89.6876 199.143C90.0735 198.948 96.9792 200.996 104.478 202.522C150.518 211.894 161.25 194.451 161.525 194.541Z" fill="white"/>
<path fill-rule="evenodd" clip-rule="evenodd" d="M161.702 194.828C161.641 194.916 160.895 195.767 160.472 196.187C158.736 197.887 156.768 199.332 154.627 200.48C129.468 213.501 90.9848 199.296 89.7656 200.071C87.9322 201.382 85.7368 202.09 83.4833 202.098C82.6794 202.134 81.8789 201.972 81.153 201.624C80.5597 201.364 80.0256 200.986 79.5832 200.513C79.1408 200.04 78.7993 199.481 78.5796 198.872C78.5363 198.566 78.4199 198.275 78.2403 198.024C76.8072 196.473 71.677 198.356 69.7736 195.79C69.4053 195.252 69.206 194.617 69.2015 193.966C69.1755 192.633 70.745 192.114 72.0211 191.794C74.1019 191.38 76.2076 191.101 78.3247 190.961C81.5909 190.502 82.7549 190.566 85.591 190.277C86.9918 190.132 86.7747 190.113 86.9649 190.105C91.1545 188.462 100.38 182.967 129.017 176.927C133.41 176.041 132.945 176.111 133.286 176.249C140.551 180.668 156.328 190.82 161.709 194.249C161.578 194.458 161.373 194.786 161.709 194.254L161.757 194.289C161.794 194.325 161.823 194.369 161.841 194.418C161.858 194.467 161.865 194.52 161.86 194.571C161.854 194.623 161.837 194.673 161.81 194.718C161.783 194.762 161.746 194.8 161.702 194.828ZM89.8903 198.292C92.8511 198.5 133.656 211.957 155.546 198.981C157.577 197.818 159.411 196.343 160.983 194.609C160.56 194.352 135.561 179.048 132.857 177.513C122.647 179.681 111.184 182.485 101.311 186.008C96.9167 187.552 92.6087 189.33 88.4051 191.334C87.3997 191.785 87.3193 191.789 84.9739 192.024C81.5341 192.302 81.224 192.293 79.424 192.512C77.186 192.828 73.4029 192.986 71.4284 193.745C71.2451 193.812 71.0713 193.903 70.9115 194.016C70.9121 194.215 70.9585 194.412 71.0471 194.59C71.1358 194.769 71.2644 194.925 71.4229 195.046C72.68 195.978 76.3471 195.169 78.5441 196.165C80.06 196.939 80.0553 198.011 80.296 198.595C80.5463 199.064 80.902 199.468 81.3352 199.775C81.7683 200.083 82.267 200.286 82.792 200.368C84.7068 200.537 86.6235 200.065 88.241 199.027C89.21 198.449 89.3765 198.257 89.8879 198.292H89.8903ZM161.533 194.879H161.537H161.545H161.533Z" fill="white"/>
<path fill-rule="evenodd" clip-rule="evenodd" d="M149.718 152.722L149.67 153.201C146.198 156.72 141.744 162.878 139.202 166.621C138.578 167.539 133.532 175.071 133.459 176.323V176.315L133.455 176.338V176.346V176.357V176.368V176.375V176.404L133.176 176.798C132.671 176.445 132.805 176.555 132.761 176.44C132.625 173.16 141.224 158.344 149.239 152.678L149.718 152.722Z" fill="white"/>
<path fill-rule="evenodd" clip-rule="evenodd" d="M155.62 97.5352C149.205 91.2126 134.579 85.392 126.124 95.3074C126.124 95.3074 121.812 102.71 124.952 119.161C125.303 121.013 125.994 122.784 126.99 124.385C128.82 126.893 133.25 127.553 136.206 127.43C137.345 127.383 138.464 127.145 139.564 127.099C139.737 127.092 140.427 126.856 140.575 126.994C141.334 127.689 141.856 132.315 142.075 132.518C142.919 133.296 143.947 133.847 145.064 134.117C146.18 134.388 147.346 134.369 148.453 134.063C149.996 133.738 152.865 132.782 153.453 131.469C153.717 130.883 152.77 125.156 153.007 124.885C157.115 120.215 155.933 115.944 156.61 115.209C156.694 115.116 158.425 114.874 158.875 114.67C160.619 113.888 161.823 110.936 161.378 109.105C161.266 108.561 161.008 108.058 160.633 107.648C160.258 107.239 159.779 106.939 159.247 106.781C158.504 106.568 156.186 108.051 156.186 108.051L155.62 97.5352Z" fill="white"/>
<path fill-rule="evenodd" clip-rule="evenodd" d="M159.172 106.224C160.033 106.375 160.799 106.861 161.303 107.574C162.544 109.266 162.128 111.558 161.131 113.328C159.803 115.476 158.764 115.406 157.121 115.781C157.03 117.193 156.839 118.596 156.547 119.98C156.025 121.913 155.075 123.703 153.768 125.22C153.735 125.64 154.261 129.395 154.315 130.681C154.378 131.059 154.339 131.447 154.201 131.805C154.064 132.162 153.834 132.476 153.534 132.715C152.896 133.255 152.177 133.69 151.403 134.005C147.821 135.477 144.652 135.695 141.735 133.345C141.248 132.922 141.221 132.89 140.953 131.444C140.146 127.171 140.123 128.169 140.111 127.857C139.586 127.954 139.056 128.017 138.524 128.045C137.337 128.236 136.136 128.317 134.934 128.286C132.883 128.257 130.858 127.817 128.978 126.994C128.149 126.629 127.401 126.103 126.777 125.446C126.154 124.789 125.668 124.013 125.348 123.166C124.214 120.604 123.928 118.407 123.522 115.583C122.909 111.328 122.837 107.013 123.31 102.741C123.584 100.187 124.243 97.6899 125.265 95.3337C125.401 95.0043 125.606 94.7082 125.867 94.4657C126.678 93.5755 127.587 92.7793 128.576 92.0919C136.607 86.4441 149.326 90.5137 155.86 97.2908C155.986 97.436 155.963 97.5228 155.98 97.7863C156.666 107.991 156.517 107.263 156.773 107.118C157.493 106.639 158.314 106.333 159.172 106.224ZM133.168 91.3541C130.866 92.1126 128.801 93.4565 127.175 95.254C126.701 95.7835 126.757 95.707 126.648 95.9437C125.356 98.5905 124.705 103.273 124.641 106.493C124.478 110.579 125.202 120.048 127.47 123.582C127.835 124.169 128.331 124.663 128.92 125.024C130.748 126.208 133.582 126.626 135.772 126.591C136.735 126.551 137.694 126.459 138.647 126.318C138.985 126.301 139.322 126.266 139.656 126.215C140.506 126.019 140.943 126.003 141.438 126.714C142.137 127.929 142.419 130.272 142.798 132.028C143.653 132.794 144.727 133.274 145.868 133.398C148.417 133.694 151.998 132.167 152.621 131.286C152.7 131.176 152.683 131.201 152.69 131.064C152.602 128.958 152.262 127.087 152.186 125.277C152.204 124.419 152.299 124.579 152.896 123.803C153.649 122.875 154.263 121.842 154.718 120.738C155.299 119.133 155.631 117.45 155.703 115.745C155.898 114.614 156.275 114.549 156.867 114.429C158.563 114.106 158.609 114.17 159.249 113.646C159.778 113.126 160.195 112.504 160.474 111.817C160.753 111.13 160.888 110.393 160.871 109.652C160.829 108.975 160.539 108.338 160.057 107.86C159.973 107.781 159.884 107.708 159.789 107.642C159.576 107.494 159.342 107.38 159.095 107.303C158.258 107.499 157.46 107.837 156.736 108.302C156.36 108.523 156.391 108.523 156.209 108.544C156.096 108.548 155.985 108.512 155.895 108.442C155.805 108.372 155.743 108.274 155.718 108.163C155.705 108.034 155.755 109.209 155.295 97.825C155.288 97.6672 155.309 97.7114 155.23 97.6364C149.67 92.5283 140.414 88.9788 133.168 91.3541ZM156.885 115.841L156.903 115.835L156.885 115.841ZM156.893 115.841H156.9H156.893ZM159.114 107.308H159.104H159.114ZM159.114 107.308H159.099H159.114ZM159.096 107.308H159.109H159.096Z" fill="white"/>
<path fill-rule="evenodd" clip-rule="evenodd" d="M125.237 98.8477C125.449 98.3798 124.152 98.9495 123.699 98.7041C122.781 98.2046 121.816 97.5125 121.266 95.0804C120.802 93.0358 122.719 91.0101 122.649 90.9477C120.092 88.5985 119.949 85.1712 122.561 82.3343C124.01 80.7623 125.876 81.3794 127.513 81.3084C127.762 81.2982 128.205 79.6623 128.43 79.3656C129.395 78.0706 130.823 77.1984 132.415 76.9311C133.059 76.843 133.715 76.8977 134.335 77.0914C134.955 77.285 135.525 77.6129 136.004 78.0517C136.538 78.4589 137.684 79.1604 137.684 79.1604C138.31 78.4489 139.014 77.8109 139.784 77.2586C141.291 76.5119 142.964 76.1613 144.645 76.2398C147.407 76.2603 149.556 79.4816 150.136 79.4571C150.294 79.4508 154.659 76.8403 158.56 78.9237C160.727 80.0829 162.734 81.5128 163.465 84.053C163.912 85.8996 163.972 87.8189 163.641 89.6898C163.641 89.6898 169.737 89.9826 169.669 97.0572C169.637 100.45 166.433 102.243 166.433 102.272C166.48 103.394 168.175 104.296 167.23 106.139C166.01 108.523 163.995 107.631 163.6 108.286C163.436 108.556 164.761 111.064 161.519 111.916C161.334 111.964 162.545 107.235 159.129 106.16C156.32 105.278 152.946 103.508 152.112 100.693C151.782 99.5714 152.147 97.0627 150.85 96.4827C150.352 96.2594 149.623 97.5315 149.174 97.6412C145.144 98.6221 143.728 98.0176 140.206 96.0195C139.486 95.6107 138.927 94.4546 138.137 94.2921C136.701 93.9961 134.986 97.0146 133.45 97.2995C132.148 97.5409 129.335 96.0542 128.868 96.3115C128.13 96.7202 128.074 98.0476 127.324 98.4626C126.655 98.8328 124.74 98.1936 124.772 98.2062" fill="#3E4959"/>
<path fill-rule="evenodd" clip-rule="evenodd" d="M155.311 77.6173C156.845 77.6301 158.343 78.0888 159.621 78.9375C160.672 79.5235 161.621 80.2737 162.435 81.1597C164.343 83.2612 164.607 86.4469 164.23 89.2476C165.254 89.4042 166.231 89.7889 167.087 90.3732C167.942 90.9575 168.656 91.7265 169.175 92.6235C169.879 93.9647 170.225 95.4641 170.182 96.9779C170.143 98.0894 169.833 99.1745 169.278 100.139C168.724 101.103 167.942 101.916 167.001 102.509C167.311 103.477 169.01 104.652 167.204 107.125C166.725 107.739 166.049 108.168 165.289 108.339C164.579 108.502 164.254 108.472 164.115 108.536C164.322 109.27 164.273 110.052 163.977 110.755C163.747 111.169 163.43 111.527 163.048 111.806C162.665 112.084 162.226 112.275 161.761 112.366C161.661 112.415 161.549 112.431 161.439 112.413C161.329 112.395 161.228 112.344 161.148 112.266C160.89 111.961 161.022 111.784 161.062 110.888C161.157 109.501 160.927 107.746 159.751 106.995C159.079 106.518 154.328 105.486 152.286 102.177C152.005 101.725 151.793 101.235 151.655 100.721C151.41 99.8401 151.588 97.7371 150.929 97.0576C150.866 96.9895 150.791 96.9324 150.709 96.8888C150.527 96.8966 149.947 97.6842 149.463 97.9659C148.941 98.1245 148.407 98.2426 147.867 98.3195C145.098 98.748 143.893 98.3818 141.427 97.1081C139.655 96.1272 139.821 96.2646 139.06 95.4281C138.744 95.073 138.336 94.5916 137.902 94.6018C136.677 94.6208 134.988 97.4333 133.344 97.6006C132.011 97.7095 129.618 96.5171 129.004 96.5313C128.949 96.5313 128.879 96.5976 128.836 96.6315C128.26 97.2423 128.196 98.1253 127.552 98.583C126.975 98.9776 126.107 98.748 125.421 98.6075C125.444 98.6463 125.458 98.6897 125.462 98.7346C125.466 98.7795 125.46 98.8248 125.445 98.8671C125.424 98.946 125.445 98.9231 125.146 99.0391C125.044 98.7772 125.213 98.8663 124.278 98.9729C124.13 99.0052 123.976 99.0068 123.827 98.9775C123.677 98.9482 123.536 98.8886 123.41 98.8024C122.879 98.5037 122.413 98.1006 122.041 97.6175C121.669 97.1343 121.399 96.581 121.246 95.9907C120.864 95.0877 120.822 94.0763 121.13 93.1451C121.4 92.3763 121.785 91.653 122.272 91.0002C121.62 90.3773 121.101 89.6276 120.749 88.797C120.242 87.5288 120.203 86.1214 120.638 84.8268C120.88 84.1112 121.232 83.438 121.683 82.8319C122.217 81.9561 123.056 81.3094 124.039 81.0169C125.132 80.8496 126.241 80.8164 127.342 80.9182C127.59 80.455 127.788 79.6556 128.06 79.1766C128.595 78.4351 129.276 77.8114 130.062 77.3442C130.847 76.8769 131.721 76.5761 132.627 76.4604C134.721 76.2379 135.816 77.45 137.599 78.5674C138.11 78.0011 138.673 77.4828 139.279 77.0191C141.351 75.8461 143.787 75.4898 146.109 76.0201C148.07 76.7177 149.595 78.5682 150.125 78.9186C151.73 78.0907 153.505 77.6453 155.311 77.6173ZM150.79 96.0341C151.074 96.111 151.334 96.2579 151.545 96.4615C151.757 96.665 151.915 96.9186 152.003 97.1989C152.444 98.1869 152.282 99.9474 152.634 100.829C153.531 103.075 155.915 104.431 158.158 105.309C159.366 105.767 159.934 105.804 160.691 106.488C161.965 107.646 162.164 109.479 162.045 111.204C162.306 111.094 162.547 110.939 162.755 110.747C162.96 110.54 163.108 110.283 163.185 110.002C163.262 109.721 163.265 109.425 163.194 109.142C163.102 108.479 162.937 108.214 163.313 107.836C164.005 107.241 165.117 107.692 166.103 106.815C166.567 106.392 166.881 105.829 166.997 105.211C167.061 104.051 165.893 103.308 165.923 102.225C165.929 102.152 165.951 102.081 165.987 102.018C165.979 101.801 167.244 101.381 168.337 99.7012C168.794 99.0027 169.07 98.2008 169.139 97.3686C169.243 94.1931 168.121 91.6079 165.13 90.5417C163.703 90.0328 163.483 90.3918 163.186 89.931C162.993 89.4843 163.431 88.9911 163.325 86.4406C163.292 85.4924 163.112 84.555 162.791 83.6621C162.694 83.4129 162.581 83.1702 162.453 82.9353C162.183 82.7135 162.014 81.3799 158.321 79.3707C157.478 78.924 156.546 78.6711 155.593 78.6305C153.746 78.6312 151.926 79.077 150.287 79.9302C149.439 80.1504 148.586 78.4656 146.621 77.3261C145.846 76.8504 144.937 76.6399 144.031 76.7264C142.734 76.7313 141.453 77.007 140.269 77.536C139.499 77.982 138.812 78.5582 138.239 79.239C137.959 79.5388 137.982 79.5309 137.826 79.5972C137.584 79.654 137.548 79.6225 137.047 79.3045C135.479 78.2928 134.442 77.1462 132.694 77.3316C131.917 77.4278 131.168 77.6794 130.491 78.0713C129.814 78.4633 129.223 78.9876 128.754 79.613C128.522 79.9658 128.213 81.3388 127.749 81.634C127.242 81.9141 125.039 81.2591 123.622 81.9631C122.535 82.7125 121.718 83.7915 121.291 85.0407C120.963 85.9431 120.904 86.9216 121.121 87.8571C121.367 88.8641 121.888 89.7828 122.627 90.5102C122.895 90.7801 122.926 90.773 122.942 90.9237C122.952 91.1375 122.813 91.1951 122.361 91.8896C121.704 92.7599 121.397 93.8446 121.5 94.9301C121.647 95.7334 121.935 96.5046 122.349 97.2084C122.716 97.7558 123.217 98.2007 123.803 98.501C124.163 98.5494 124.529 98.532 124.883 98.4497L124.712 98.3968L124.746 98.4031L124.762 98.3526L124.667 98.3786C124.642 98.3642 124.619 98.3442 124.602 98.3203C124.585 98.2963 124.573 98.2688 124.567 98.2398C124.561 98.2108 124.562 98.1808 124.569 98.1521C124.576 98.1233 124.589 98.0964 124.607 98.0732C124.736 97.9415 124.76 97.9943 125.269 98.1261C125.888 98.3339 126.55 98.383 127.193 98.269C127.918 97.887 128.038 96.0594 129.016 96.027C129.771 96.027 131.467 96.8667 132.815 97.0205C133.114 97.0606 133.418 97.028 133.701 96.9253C133.984 96.8227 134.239 96.6531 134.442 96.4311C136.362 94.8473 137.528 92.8145 139.318 94.695C139.847 95.3985 140.561 95.9422 141.38 96.2661C144.299 97.8073 145.568 98.0938 149.067 97.2415C149.745 96.6544 150.155 95.9955 150.79 96.0341ZM125.056 98.7914L125.063 98.8119V98.8174L125.052 98.7866L125.056 98.7914ZM149.067 97.2431H149.072H149.067Z" fill="#3E4959"/>
<path fill-rule="evenodd" clip-rule="evenodd" d="M133.746 121.809V121.818V121.799V121.807L133.741 121.789L133.746 121.796L133.737 121.779L133.743 121.786L133.734 121.769L133.74 121.776L133.731 121.759L133.737 121.766L133.729 121.75L133.733 121.757L133.722 121.741L133.731 121.748L133.72 121.733L133.728 121.739L133.717 121.726L133.722 121.732L133.711 121.72L133.719 121.725L133.709 121.714L133.717 121.72L133.706 121.709L133.714 121.714L133.703 121.705L133.711 121.709L133.7 121.7L133.711 121.705L133.698 121.697L133.708 121.702L133.697 121.694H133.708L133.697 121.688H133.708L133.697 121.683H133.708L133.697 121.678H133.707L133.7 121.672H133.713L133.705 121.668H133.72H133.71H133.728H133.72H133.738H133.73H133.752H133.746C134.072 121.624 134.388 121.521 134.677 121.364L134.692 121.355L134.677 121.361L134.697 121.345L134.68 121.353L134.689 121.342L134.664 121.355L134.676 121.345L134.649 121.362L134.658 121.352L134.639 121.365C134.754 121.237 134.85 121.093 134.924 120.937V120.923C135.088 120.589 135.188 120.228 135.219 119.857V119.847C135.282 119.461 135.23 119.065 135.068 118.709C134.907 118.353 134.644 118.052 134.312 117.845C133.917 117.608 133.535 117.649 133.667 117.625H133.654L133.674 117.619C133.308 117.679 132.957 117.811 132.643 118.008V118.001L132.628 118.016V118.01L132.613 118.024L132.618 118.016L132.603 118.031L132.608 118.022L132.603 118.028L132.596 118.035L132.6 118.026L132.59 118.038L132.595 118.028L132.585 118.039V118.028L132.581 118.039V118.027L132.576 118.038L132.581 118.027L132.573 118.038L132.578 118.025L132.573 118.036V118.023L132.569 118.034V118.019V118.031V118.016L132.564 118.027V118.012V118.023V118.012V118.023V118.008V118.019V118.003V118.014V117.997V118.009V117.993V118.004V117.987V117.998V117.982V117.993V117.977V117.988L132.558 117.971V117.983L132.552 117.967V117.978L132.547 117.963V117.974L132.538 117.96V117.971L132.532 117.956V117.964L132.524 117.95L132.53 117.962L132.42 118.435L131.947 118.325C131.895 118.257 131.858 118.179 131.839 118.096C131.82 118.013 131.819 117.926 131.836 117.843C131.963 117.425 132.218 117.058 132.565 116.793C132.892 116.492 133.302 116.296 133.743 116.232C134.183 116.168 134.632 116.238 135.032 116.433C137.454 117.484 137.456 121.186 135.556 122.352C135.218 122.524 134.845 122.617 134.466 122.623C134.086 122.63 133.71 122.549 133.367 122.388C133.265 122.338 133.181 122.258 133.125 122.16C133.069 122.061 133.043 121.949 133.051 121.836L133.394 121.501L133.728 121.848V121.859V121.841V121.85V121.823V121.833V121.814V121.822L133.746 121.809Z" fill="black"/>
<path fill-rule="evenodd" clip-rule="evenodd" d="M118.785 100.128C118.926 100.201 122.112 97.0113 122.112 97.0113C124.266 96.7343 147.937 95.1379 152.983 98.3718C154.763 99.5121 154.429 108.96 153.924 111.772C153.612 113.502 149.948 115.244 149.948 115.244C149.948 115.244 137.429 117.799 118.33 114.253C117.781 114.15 118.785 100.128 118.785 100.128Z" fill="#13A9D1"/>
<path fill-rule="evenodd" clip-rule="evenodd" d="M152.77 97.323C153.145 97.455 153.484 97.6716 153.762 97.9562C154.04 98.2407 154.248 98.5855 154.371 98.9636C155.548 101.932 155.194 109.873 154.755 111.955C154.672 112.357 154.502 112.737 154.257 113.066C153.292 114.214 152.095 115.144 150.743 115.794C150.373 116.027 149.951 116.162 149.515 116.189C142.519 117.337 131.457 117.403 119.556 115.12C117.978 114.82 117.649 114.959 117.594 113.657C117.519 111.867 117.811 107.904 117.947 106.144C118.471 99.3897 118.409 99.9934 118.673 99.8103C119.612 99.005 120.495 98.1376 121.318 97.2141C122.004 96.511 121.727 96.612 122.834 96.4928C128.84 95.8536 147.307 94.6652 152.77 97.323ZM134.262 97.0515C133.092 97.0515 122.521 97.2188 122.286 97.4556C121.806 97.9133 119.688 99.9413 119.122 100.343C118.939 104.331 118.659 110.002 118.813 113.713C127.696 115.246 140.922 116.001 149.684 114.431C150.832 113.894 151.874 113.152 152.756 112.241C152.901 112.083 153.01 111.897 153.078 111.695C153.527 109.776 153.872 100.576 152.573 99.0883L152.554 99.0701C152.196 98.8409 151.809 98.6614 151.403 98.5367C147.277 97.1439 138.742 97.0515 134.262 97.0515ZM118.855 113.978L118.85 113.963V113.968V113.973V113.96L118.855 113.978ZM118.846 113.96L118.853 113.972V113.96L118.846 113.96ZM118.689 99.8032C118.762 99.7809 118.841 99.784 118.912 99.8119C118.841 99.7837 118.762 99.7806 118.689 99.8032ZM118.666 99.8119H118.671H118.666Z" fill="#13A9D1"/>
<path fill-rule="evenodd" clip-rule="evenodd" d="M118.786 100.127C118.786 100.127 116.502 113.26 118.33 114.253C124.239 117.454 149.724 117.075 150.095 114.902C150.736 111.133 151.01 101.371 149.613 101.566C145.529 102.12 122.606 101.881 118.786 100.127Z" fill="#51CDF2"/>
<path fill-rule="evenodd" clip-rule="evenodd" d="M118.457 100.07C118.466 100.019 118.487 99.9713 118.517 99.9296C118.547 99.888 118.587 99.8538 118.633 99.8295C118.678 99.8053 118.729 99.7917 118.78 99.7898C118.832 99.7879 118.883 99.7976 118.93 99.8183C122.471 101.244 139.234 101.098 143.084 101.034C145.302 101.064 147.52 100.962 149.725 100.729C150.719 100.803 150.996 101.891 151.184 102.799C151.605 106.744 151.544 110.726 151.001 114.656C151.006 114.915 150.943 115.171 150.818 115.398C150.694 115.625 150.512 115.816 150.291 115.951C147.351 117.913 127.399 118.05 119.759 115.545C119.014 115.338 118.314 114.995 117.694 114.533C116.05 112.647 118.016 102.741 118.454 100.069C118.536 100.084 118.659 100.105 118.457 100.07ZM138.921 115.741C140.874 115.698 147.561 115.462 149.295 114.567C149.554 112.656 149.708 110.733 149.756 108.806C149.852 106.823 149.764 104.836 149.493 102.87C149.464 102.719 149.425 102.57 149.376 102.423C144.927 102.868 135.018 102.473 130.027 102.13C127.686 101.965 121.275 101.455 119.069 100.607C118.675 103.399 118.007 109.13 118.244 111.908C118.237 112.517 118.367 113.119 118.626 113.67V113.676L118.621 113.668L118.626 113.676H118.632L118.637 113.683C122.488 115.663 134.294 115.837 138.921 115.741ZM118.656 113.704L118.648 113.695H118.654L118.646 113.687H118.652L118.641 113.68H118.646L118.635 113.671H118.641L118.63 113.665L118.638 113.673L118.633 113.665L118.644 113.676L118.636 113.668L118.646 113.677L118.636 113.669L118.656 113.704ZM118.646 113.695L118.641 113.69L118.646 113.695ZM118.641 113.69H118.648L118.641 113.685V113.69Z" fill="#51CDF2"/>
<path fill-rule="evenodd" clip-rule="evenodd" d="M150.751 104.528C151.73 105.016 168.379 94.9746 169.261 94.3086C170.384 93.461 170.471 98.6977 169.412 100.027C167.812 102.033 151.249 111.142 150.778 109.991C150.719 109.847 150.751 104.528 150.751 104.528Z" fill="#1BB9E5"/>
<path fill-rule="evenodd" clip-rule="evenodd" d="M150.881 104.21H150.889L150.87 104.205H150.878L150.863 104.2H150.87H150.855H150.863L150.849 104.196H150.857H150.845H150.852H150.841C151.084 104.135 151.32 104.051 151.546 103.943C153.908 102.917 167.441 94.4938 168.178 94.0235C168.872 93.5784 168.702 93.6755 168.847 93.5784C169.002 93.4792 169.177 93.417 169.359 93.3966C169.542 93.3761 169.727 93.3981 169.899 93.4607C170.072 93.5233 170.228 93.6249 170.355 93.7575C170.482 93.8902 170.576 94.0503 170.631 94.2255C171.24 95.4432 171.099 99.0029 170.225 100.344C168.726 102.604 154.19 110.36 151.193 110.636C150.967 110.668 150.737 110.624 150.538 110.512C150.116 110.227 150.212 109.959 150.283 107.708C150.287 107.587 150.392 104.825 150.412 104.524C150.412 104.467 150.426 104.411 150.453 104.361C150.48 104.31 150.52 104.268 150.568 104.238C150.616 104.207 150.671 104.189 150.728 104.186C150.785 104.183 150.842 104.194 150.893 104.218H150.901L150.881 104.21ZM151.309 109.91V109.894V109.903V109.886V109.894V109.872V109.91ZM156.302 102.595C154.629 103.489 152.888 104.249 151.094 104.867C151.122 105.745 151.204 108.147 151.273 109.487C151.759 109.34 152.233 109.158 152.693 108.943C154.83 107.987 168.018 100.906 168.854 99.302C169.147 98.5195 169.299 97.6912 169.302 96.8557C169.322 96.3469 169.292 95.8373 169.213 95.3343C165.486 97.678 159.899 100.789 156.302 102.595Z" fill="#1BB9E5"/>
<path fill-rule="evenodd" clip-rule="evenodd" d="M145.928 105.123V105.129L145.837 105.421L145.561 105.579C141.895 106.088 138.198 106.347 134.497 106.354C132.063 106.38 124.747 106.259 122.49 105.458L121.914 104.917L121.887 104.128V104.122L122.426 103.548C123.609 103.505 122.85 103.478 123.981 103.732C126.939 104.341 133.029 104.664 136.037 104.789C145.092 105.151 144.844 104.571 145.771 104.856L145.928 105.123Z" fill="#1BB9E5"/>
<path fill-rule="evenodd" clip-rule="evenodd" d="M116.871 142.698C110.028 151.886 105.204 162.415 102.713 173.597C101.877 177.317 102.307 176.574 101.706 177.05L101.41 176.669C102.293 163.825 107.565 151.675 116.344 142.257L116.827 142.214L116.871 142.698Z" fill="white"/>
<defs>
<filter id="filter0_d_719_10321" x="0" y="0" width="260" height="260" filterUnits="userSpaceOnUse" color-interpolation-filters="sRGB">
<feFlood flood-opacity="0" result="BackgroundImageFix"/>
<feColorMatrix in="SourceAlpha" type="matrix" values="0 0 0 0 0 0 0 0 0 0 0 0 0 0 0 0 0 0 127 0" result="hardAlpha"/>
<feOffset dx="4" dy="4"/>
<feGaussianBlur stdDeviation="5"/>
<feComposite in2="hardAlpha" operator="out"/>
<feColorMatrix type="matrix" values="0 0 0 0 0.0745098 0 0 0 0 0.662745 0 0 0 0 0.819608 0 0 0 0.25 0"/>
<feBlend mode="normal" in2="BackgroundImageFix" result="effect1_dropShadow_719_10321"/>
<feBlend mode="normal" in="SourceGraphic" in2="effect1_dropShadow_719_10321" result="shape"/>
</filter>
<linearGradient id="paint0_linear_719_10321" x1="222.522" y1="211.565" x2="-20.087" y2="-27.3913" gradientUnits="userSpaceOnUse">
<stop stop-color="#2DC3EC"/>
<stop offset="1" stop-color="white"/>
</linearGradient>
<linearGradient id="paint1_linear_719_10321" x1="222.522" y1="211.565" x2="-20.087" y2="-27.3913" gradientUnits="userSpaceOnUse">
<stop stop-color="#13A9D1"/>
<stop offset="0.942708" stop-color="white"/>
</linearGradient>
</defs>
</svg>
