<svg width="279" height="181" viewBox="0 0 279 181" fill="none" xmlns="http://www.w3.org/2000/svg">
<mask id="mask0_874_12850" style="mask-type:alpha" maskUnits="userSpaceOnUse" x="0" y="0" width="279" height="181">
<rect width="279" height="181" fill="#C4C4C4"/>
</mask>
<g mask="url(#mask0_874_12850)">
<path d="M39.4707 35.1684L78.554 74.2518L78.554 142.286L109.821 173.553L109.821 250.561L78.5541 281.828L78.5541 381.997" stroke="#0095B6" stroke-width="3"/>
<path d="M37.5604 38.0111C34.9671 38.0111 32.8649 35.9088 32.8649 33.3156C32.8649 30.7224 34.9671 28.6201 37.5604 28.6201C40.1536 28.6201 42.2559 30.7224 42.2559 33.3156C42.2559 35.9088 40.1536 38.0111 37.5604 38.0111Z" fill="#0095B6" stroke="#0095B6" stroke-width="3"/>
<path d="M51.6289 141.128L71.1706 160.67L90.7123 180.212L90.7123 248.246L59.1563 280.091L59.1564 382.866" stroke="#0095B6" stroke-width="3"/>
<circle cx="49.7166" cy="139.276" r="4.69548" transform="rotate(90 49.7166 139.276)" fill="#0095B6" stroke="#0095B6" stroke-width="3"/>
<path d="M150.838 10.6144L127.579 33.8728L104.321 57.1312L104.321 138.105L141.879 176.008L141.879 385.761" stroke="#0095B6" stroke-width="3"/>
<path d="M150.465 15.4299C153.058 15.4299 155.16 13.3277 155.16 10.7345C155.16 8.14128 153.058 6.03906 150.465 6.03906C147.872 6.03906 145.77 8.14128 145.77 10.7345C145.77 13.3277 147.872 15.4299 150.465 15.4299Z" fill="#0095B6" stroke="#0095B6" stroke-width="3"/>
<path d="M230.74 114.258L207.482 137.517L184.223 160.775L184.223 241.749L221.781 279.651L221.781 401.974" stroke="#0095B6" stroke-width="3"/>
<path d="M230.949 119.073C233.543 119.073 235.645 116.971 235.645 114.378C235.645 111.785 233.543 109.683 230.949 109.683C228.356 109.683 226.254 111.785 226.254 114.378C226.254 116.971 228.356 119.073 230.949 119.073Z" fill="#0095B6" stroke="#0095B6" stroke-width="3"/>
<path d="M127.03 61.123L127.03 94.0154L127.03 126.908L162.673 162.551L162.673 387.497" stroke="#0095B6" stroke-width="3"/>
<circle r="4.69543" transform="matrix(0.707106 0.707107 0.707106 -0.707107 126.977 60.8584)" fill="#0095B6" stroke="#0095B6" stroke-width="3"/>
</g>
</svg>
