<svg width="257" height="257" viewBox="0 0 257 257" fill="none" xmlns="http://www.w3.org/2000/svg">
<g filter="url(#filter0_d_719_9797)">
<path d="M124.5 243C189.946 243 243 189.946 243 124.5C243 59.0543 189.946 6 124.5 6C59.0543 6 6 59.0543 6 124.5C6 189.946 59.0543 243 124.5 243Z" fill="url(#paint0_linear_719_9797)"/>
</g>
<path d="M124.687 242.688C190.237 242.688 243.375 189.55 243.375 124C243.375 58.4511 190.237 5.31284 124.687 5.31284C59.1382 5.31284 6 58.4511 6 124C6 189.55 59.1382 242.688 124.687 242.688Z" fill="url(#paint1_linear_719_9797)"/>
<path d="M80.4088 166.089H56.1934V175.961H80.4088V166.089Z" fill="white"/>
<path d="M112.299 146.362H88.084V175.961H112.299V146.362Z" fill="white"/>
<path d="M144.172 126.636H119.957V175.961H144.172V126.636Z" fill="white"/>
<path d="M176.062 106.909H151.848V175.961H176.062V106.909Z" fill="white"/>
<path d="M207.952 87.1661H183.736V175.961H207.952V87.1661Z" fill="white"/>
<path d="M25.5197 170.349L25.3281 169.156C27.9471 168.731 30.5847 168.195 33.1711 167.556L33.4611 168.733C30.8434 169.377 28.1719 169.921 25.5197 170.349ZM41.2449 166.48L40.8632 165.332C43.3532 164.504 45.8791 163.559 48.369 162.522L48.8339 163.64C46.3187 164.688 43.7648 165.644 41.2449 166.48ZM56.2047 160.265L55.6647 159.183C57.9891 158.02 60.3667 156.743 62.727 155.381L63.3308 156.431C60.9506 157.803 58.5524 159.095 56.2047 160.265ZM70.2295 152.202L69.5711 151.187C71.7372 149.783 73.9731 148.258 76.219 146.659L76.9213 147.644C74.6608 149.253 72.4102 150.786 70.2295 152.202ZM83.4209 142.826L82.684 141.867C84.7124 140.309 86.8353 138.628 88.9901 136.876L89.7549 137.816C87.5908 139.575 85.4606 141.261 83.4209 142.826ZM95.9606 132.652L95.1765 131.73C97.0659 130.127 99.0644 128.409 101.283 126.474L102.077 127.387C99.8551 129.324 97.8546 131.048 95.9606 132.652ZM108.147 122.058L107.345 121.15L113.394 115.803L114.194 116.712L108.147 122.058ZM120.26 111.387L119.466 110.472C121.499 108.701 123.542 106.939 125.595 105.195L126.379 106.118C124.328 107.86 122.292 109.617 120.26 111.387ZM132.584 100.963L131.819 100.024C133.993 98.2559 136.129 96.5647 138.169 94.9978L138.906 95.9568C136.878 97.5157 134.751 99.2017 132.584 100.963ZM145.379 91.1525L144.673 90.1668C146.925 88.5607 149.174 87.0185 151.361 85.5913L152.024 86.6048C149.849 88.024 147.614 89.5543 145.379 91.1525ZM158.86 82.3764L158.251 81.3302C160.618 79.9469 163.008 78.6407 165.355 77.4456L165.905 78.5243C163.58 79.7095 161.211 81.0043 158.86 82.3764ZM173.153 75.1173L172.674 74.0059C175.174 72.9286 177.714 71.935 180.222 71.0558L180.622 72.1983C178.142 73.0695 175.627 74.0498 173.153 75.1173Z" fill="white"/>
<path d="M177.479 48.1452L180.205 71.8186L245.999 30.7772L177.479 48.1452Z" fill="#002C33"/>
<path d="M183.859 52.4328L207.188 68.1235L245.999 30.7772L183.859 52.4328Z" fill="#F2F2F2"/>
<path d="M163.27 38.5863L177.479 48.1452L246 30.7772L163.27 38.5863Z" fill="#F2F2F2"/>
<path d="M180.205 71.8186L183.86 52.4328L197.062 61.302L180.205 71.8186Z" fill="#3E4959"/>
<defs>
<filter id="filter0_d_719_9797" x="0" y="0" width="257" height="257" filterUnits="userSpaceOnUse" color-interpolation-filters="sRGB">
<feFlood flood-opacity="0" result="BackgroundImageFix"/>
<feColorMatrix in="SourceAlpha" type="matrix" values="0 0 0 0 0 0 0 0 0 0 0 0 0 0 0 0 0 0 127 0" result="hardAlpha"/>
<feOffset dx="4" dy="4"/>
<feGaussianBlur stdDeviation="5"/>
<feComposite in2="hardAlpha" operator="out"/>
<feColorMatrix type="matrix" values="0 0 0 0 0.0745098 0 0 0 0 0.662745 0 0 0 0 0.819608 0 0 0 0.25 0"/>
<feBlend mode="normal" in2="BackgroundImageFix" result="effect1_dropShadow_719_9797"/>
<feBlend mode="normal" in="SourceGraphic" in2="effect1_dropShadow_719_9797" result="shape"/>
</filter>
<linearGradient id="paint0_linear_719_9797" x1="219.815" y1="208.996" x2="-19.7609" y2="-26.9739" gradientUnits="userSpaceOnUse">
<stop stop-color="#2DC3EC"/>
<stop offset="1" stop-color="white"/>
</linearGradient>
<linearGradient id="paint1_linear_719_9797" x1="220.153" y1="208.63" x2="-19.8018" y2="-27.7131" gradientUnits="userSpaceOnUse">
<stop stop-color="#13A9D1"/>
<stop offset="0.942708" stop-color="white"/>
</linearGradient>
</defs>
</svg>
