<svg width="208" height="175" viewBox="0 0 208 175" fill="none" xmlns="http://www.w3.org/2000/svg">
<mask id="mask0_426_5660" style="mask-type:alpha" maskUnits="userSpaceOnUse" x="0" y="0" width="208" height="175">
<rect width="208" height="175" fill="#002C33"/>
</mask>
<g mask="url(#mask0_426_5660)">
<path d="M49.0763 112.237L86.9741 112.237L119.959 145.222L150.278 145.222L187.614 182.558L187.614 212.877L236.179 261.442" stroke="#51CDF2" stroke-width="2"/>
<path d="M49.5486 114.561C48.2802 115.83 46.2237 115.83 44.9553 114.561C43.6869 113.293 43.6869 111.236 44.9553 109.968C46.2237 108.7 48.2802 108.7 49.5486 109.968C50.817 111.236 50.817 113.293 49.5486 114.561Z" fill="#51CDF2" stroke="#51CDF2" stroke-width="2"/>
<path d="M106.346 157.714L125.295 157.714L144.244 157.714L177.229 190.699L177.37 221.439L227.198 271.267" stroke="#51CDF2" stroke-width="2"/>
<path d="M106.816 160.039C105.548 161.308 103.491 161.308 102.223 160.039C100.954 158.771 100.954 156.714 102.223 155.446C103.491 154.178 105.548 154.178 106.816 155.446C108.085 156.714 108.085 158.771 106.816 160.039Z" fill="#51CDF2" stroke="#51CDF2" stroke-width="2"/>
<path d="M91.1672 46.3376L91.1672 68.8905L91.1672 91.4435L130.426 130.702L167.012 130.87L268.707 232.565" stroke="#51CDF2" stroke-width="2"/>
<path d="M93.3413 48.8726C94.6097 47.6042 94.6097 45.5477 93.3413 44.2793C92.0729 43.0109 90.0164 43.0109 88.748 44.2793C87.4796 45.5477 87.4796 47.6042 88.748 48.8726C90.0164 50.141 92.0729 50.141 93.3413 48.8726Z" fill="#51CDF2" stroke="#51CDF2" stroke-width="2"/>
<path d="M180.156 57.8479L180.156 80.4009L180.156 102.954L219.415 142.213L256.001 142.38L315.307 201.686" stroke="#51CDF2" stroke-width="2"/>
<path d="M182.613 60.1016C183.881 58.8332 183.881 56.7767 182.613 55.5083C181.344 54.2399 179.288 54.2399 178.019 55.5083C176.751 56.7767 176.751 58.8332 178.019 60.1016C179.288 61.37 181.344 61.37 182.613 60.1016Z" fill="#51CDF2" stroke="#51CDF2" stroke-width="2"/>
<path d="M104.115 82.3679L120.062 98.3152L136.009 114.263L170.571 114.263L279.633 223.324" stroke="#51CDF2" stroke-width="2"/>
<circle r="3.24794" transform="matrix(1 8.35883e-07 -7.51589e-07 -1 103.959 82.266)" fill="#51CDF2" stroke="#51CDF2" stroke-width="2"/>
</g>
</svg>
