<svg width="629" height="629" viewBox="0 0 629 629" fill="none" xmlns="http://www.w3.org/2000/svg">
<path d="M410.701 356.304C411.442 356.304 412.187 356.285 412.937 356.247C413.687 356.209 414.442 356.152 415.202 356.076C424.952 355.091 434.059 350.952 442.295 343.855C450.531 336.758 457.896 326.703 464.16 313.888C465.605 310.929 465.715 307.665 464.724 304.78C463.733 301.894 461.642 299.386 458.684 297.939C455.728 296.494 452.464 296.384 449.578 297.375C446.691 298.366 444.182 300.457 442.736 303.415C439.697 309.633 435.646 316.52 430.639 322.025C425.631 327.531 419.668 331.656 412.805 332.349C406.992 332.942 401.291 330.783 396.416 327.188C391.541 323.593 387.492 318.563 384.983 313.413C381.877 307.036 380.19 299.894 379.322 292.446C378.454 284.999 378.405 277.246 378.577 269.65C378.602 268.504 378.632 267.356 378.664 266.208C378.696 265.061 378.73 263.912 378.764 262.763C378.987 255.205 379.213 247.519 378.898 239.769C378.583 232.02 377.726 224.207 375.782 216.397C374.986 213.203 372.97 210.633 370.354 209.061C367.739 207.488 364.524 206.913 361.332 207.706C358.137 208.502 355.566 210.517 353.994 213.131C352.421 215.746 351.846 218.961 352.641 222.156C354.189 228.375 354.865 234.82 355.101 241.476C355.338 248.132 355.136 254.999 354.928 262.061C354.893 263.238 354.859 264.414 354.827 265.59C354.794 266.766 354.764 267.94 354.737 269.113C354.531 278.21 354.623 287.565 355.823 296.811C357.021 306.057 359.327 315.193 363.545 323.855C367.592 332.166 373.979 340.279 382.054 346.313C390.129 352.347 399.895 356.304 410.701 356.304Z" fill="#FCD290"/>
<path d="M453.44 320.578C455.645 320.578 457.809 319.963 459.679 318.819C461.549 317.676 463.126 316.003 464.16 313.888C466.449 309.206 468.574 304.408 470.524 299.527C472.473 294.646 474.246 289.684 475.828 284.673C476.821 281.533 476.446 278.289 475.038 275.582C473.631 272.875 471.19 270.705 468.051 269.713C464.912 268.722 461.668 269.096 458.961 270.504C456.253 271.912 454.083 274.351 453.091 277.491C451.685 281.94 450.111 286.345 448.382 290.676C446.653 295.007 444.766 299.264 442.736 303.416C441.291 306.375 441.181 309.639 442.172 312.525C443.163 315.411 445.254 317.918 448.212 319.365C449.054 319.777 449.921 320.081 450.798 320.281C451.675 320.48 452.561 320.578 453.44 320.578Z" fill="#FCD290"/>
<path d="M464.463 293.008C466.995 293.008 469.435 292.195 471.443 290.747C473.451 289.299 475.027 287.215 475.829 284.672C478.931 274.851 481.313 264.858 482.962 254.762C484.612 244.666 485.53 234.468 485.704 224.237C485.76 220.946 484.476 217.943 482.356 215.749C480.235 213.554 477.278 212.17 473.986 212.113C473.952 212.112 473.917 212.112 473.883 212.112C473.848 212.111 473.814 212.111 473.78 212.111C470.534 212.111 467.583 213.413 465.429 215.528C463.274 217.644 461.917 220.574 461.862 223.831C461.707 232.91 460.892 241.963 459.427 250.927C457.962 259.891 455.846 268.766 453.091 277.49C452.099 280.629 452.474 283.873 453.882 286.581C455.289 289.288 457.729 291.458 460.869 292.45C461.466 292.639 462.067 292.778 462.668 292.87C463.268 292.963 463.869 293.008 464.463 293.008Z" fill="#13A9D1"/>
<path d="M451.224 277.794L463.866 283.315L476.508 288.836C477.2 289.138 477.702 289.693 477.955 290.345C478.209 290.996 478.212 291.745 477.905 292.435L474.692 299.663L471.478 306.892C471.182 307.557 470.651 308.047 470.025 308.304C469.398 308.561 468.677 308.585 467.999 308.32L455.446 303.139L442.893 297.957C442.137 297.661 441.594 297.068 441.335 296.37C441.076 295.672 441.102 294.868 441.482 294.151L444.606 286.582L447.73 279.014C448.063 278.385 448.61 277.938 449.237 277.719C449.865 277.5 450.571 277.509 451.224 277.794Z" fill="#ECF6FA"/>
<path d="M463.687 356.811H511.379H559.071V297.634V238.458C559.071 226.3 554.144 215.293 546.176 207.326C538.208 199.358 527.201 194.43 515.044 194.43H511.379H507.714C495.556 194.43 484.549 199.358 476.582 207.326C468.615 215.294 463.687 226.3 463.687 238.458V297.634V356.811H463.687Z" fill="#1BB9E5"/>
<path d="M463.687 356.811C463.687 369.981 469.025 381.904 477.655 390.534C486.286 399.165 498.209 404.503 511.378 404.503C524.548 404.503 536.471 399.165 545.102 390.534C553.732 381.904 559.07 369.981 559.07 356.811H511.378H463.687Z" fill="#502D43"/>
<path d="M514.267 377.25H538.112V602.792H514.267V377.25Z" fill="#502D43"/>
<path d="M484.385 602.792V388.256C484.385 385.217 485.617 382.465 487.609 380.474C489.601 378.482 492.352 377.25 495.392 377.25H497.224C500.263 377.25 503.015 378.482 505.007 380.474C506.999 382.465 508.23 385.217 508.23 388.256V602.792H484.385Z" fill="#502D43"/>
<path d="M476.693 469.326L522.933 488.014L569.174 506.703C569.898 506.995 570.672 506.967 571.338 506.684C572.004 506.401 572.563 505.865 572.855 505.141L585.99 472.641L599.125 440.141C599.418 439.417 599.389 438.644 599.106 437.977C598.824 437.311 598.287 436.753 597.563 436.46L551.322 417.772L505.081 399.083C504.358 398.791 503.583 398.819 502.918 399.102C502.252 399.385 501.693 399.921 501.401 400.645L488.266 433.145L475.131 465.645C474.838 466.369 474.866 467.143 475.149 467.809C475.432 468.475 475.969 469.033 476.693 469.326Z" fill="#0095B6"/>
<path d="M531.927 486.409C533.641 486.409 535.347 486.041 536.918 485.317C538.489 484.593 539.927 483.511 541.104 482.085C541.978 481.025 552.68 467.749 562.727 442.16C572.774 416.571 582.166 378.67 580.419 328.358C580.134 320.166 579.547 312.109 578.666 304.244C577.784 296.38 576.607 288.706 575.14 281.28C574.503 278.049 572.615 275.381 570.08 273.683C567.545 271.984 564.361 271.253 561.133 271.894C557.903 272.532 555.237 274.418 553.539 276.953C551.841 279.488 551.109 282.67 551.747 285.901C553.09 292.704 554.169 299.746 554.978 306.978C555.786 314.209 556.325 321.629 556.587 329.187C558.166 374.654 549.781 408.981 540.954 431.998C532.128 455.014 522.861 466.722 522.675 466.951C520.609 469.501 519.763 472.652 520.069 475.685C520.375 478.717 521.833 481.632 524.374 483.709C525.484 484.617 526.708 485.292 527.987 485.741C529.265 486.189 530.599 486.409 531.927 486.409Z" fill="#FCD290"/>
<path d="M563.43 295.515C563.813 295.515 564.2 295.496 564.587 295.459C564.974 295.421 565.364 295.364 565.754 295.287C568.984 294.649 571.65 292.762 573.348 290.228C575.046 287.693 575.778 284.51 575.14 281.28C570.854 259.578 564.765 243.308 559.663 232.352C554.561 221.395 550.448 215.751 550.114 215.3C548.154 212.655 545.308 211.054 542.289 210.605C539.271 210.155 536.082 210.857 533.436 212.818C530.798 214.772 529.199 217.607 528.744 220.616C528.29 223.624 528.98 226.804 530.919 229.449C531.062 229.649 534.422 234.408 538.669 243.794C542.916 253.179 548.052 267.193 551.746 285.901C552.306 288.741 553.833 291.144 555.917 292.838C558.001 294.532 560.642 295.515 563.43 295.515Z" fill="#13A9D1"/>
<path d="M549.596 284.832L563.2 282.543L576.804 280.255C577.549 280.13 578.273 280.319 578.841 280.727C579.409 281.134 579.821 281.759 579.942 282.504L581.203 290.314L582.464 298.123C582.58 298.841 582.403 299.542 582.019 300.099C581.635 300.657 581.044 301.072 580.332 301.221L566.239 304.149L552.146 307.078C551.351 307.243 550.572 307.044 549.973 306.601C549.375 306.158 548.957 305.471 548.883 304.662L548.111 296.212L547.339 287.763C547.274 287.054 547.488 286.38 547.893 285.855C548.298 285.328 548.895 284.95 549.596 284.832Z" fill="#ECF6FA"/>
<path d="M503.896 228.497H505.007H506.119C509.806 228.497 513.143 227.002 515.559 224.586C517.975 222.17 519.47 218.833 519.47 215.146V195.207V175.269H505.007H490.545V195.207V215.146C490.545 218.833 492.04 222.17 494.455 224.586C496.872 227.002 500.209 228.497 503.896 228.497Z" fill="#ECF6FA"/>
<path d="M503.896 214.87H505.007H506.119C509.806 214.87 513.143 213.376 515.559 210.96C517.975 208.544 519.47 205.206 519.47 201.519V181.581V161.643H505.007H490.545V181.581V201.519C490.545 205.206 492.04 208.543 494.455 210.96C496.871 213.376 500.209 214.87 503.896 214.87Z" fill="#FCD290"/>
<path d="M486.573 203.089H489.378H492.183C501.488 203.089 509.912 199.317 516.01 193.22C522.109 187.121 525.88 178.698 525.88 169.392V147.735V126.077C525.88 116.772 522.108 108.348 516.01 102.249C509.913 96.1513 501.488 92.3799 492.183 92.3799H489.378H486.573C477.268 92.3799 468.844 96.1518 462.746 102.249C456.647 108.348 452.876 116.771 452.876 126.077V147.735V169.392C452.876 178.697 456.648 187.121 462.746 193.22C468.844 199.317 477.268 203.089 486.573 203.089Z" fill="#FCD290"/>
<path d="M462.02 85.1353H484.422H506.824C512.032 85.1353 516.768 87.2534 520.215 90.6705C523.661 94.0875 525.819 98.8039 525.87 104.001H525.875H525.88V134.35V164.699H523.458H521.037C515.955 164.699 511.354 162.639 508.024 159.309C504.694 155.979 502.634 151.378 502.634 146.297V134.772V123.247H482.327H462.02C456.779 123.247 452.015 121.103 448.561 117.649C445.107 114.196 442.964 109.431 442.964 104.191C442.964 98.9502 445.107 94.1866 448.561 90.7323C452.015 87.2781 456.779 85.1353 462.02 85.1353Z" fill="#502D43"/>
<path d="M478.932 155.498H501.104H523.276C525.659 155.498 527.816 154.532 529.378 152.971C530.939 151.409 531.905 149.252 531.905 146.869V146.151V145.433C531.905 143.05 530.939 140.892 529.378 139.331C527.816 137.769 525.659 136.803 523.276 136.803H501.104H478.932C476.55 136.803 474.392 137.769 472.831 139.331C471.269 140.892 470.303 143.05 470.303 145.433V146.151V146.869C470.303 149.252 471.269 151.409 472.831 152.971C474.392 154.532 476.55 155.498 478.932 155.498Z" fill="#A2B1B5"/>
<path d="M455.567 155.498H472.628H489.69C492.073 155.498 494.23 154.532 495.792 152.971C497.353 151.409 498.319 149.252 498.319 146.869V146.151V145.433C498.319 143.05 497.353 140.892 495.792 139.331C494.23 137.769 492.073 136.803 489.69 136.803H472.628H455.567C453.184 136.803 451.026 137.769 449.465 139.331C447.903 140.892 446.937 143.05 446.937 145.433V146.151V146.869C446.937 149.252 447.903 151.409 449.465 152.971C451.026 154.532 453.184 155.498 455.567 155.498Z" fill="#ECF6FA"/>
<path d="M488.973 150.389C490.141 150.389 491.201 149.913 491.968 149.146C492.736 148.379 493.211 147.319 493.211 146.15C493.211 144.982 492.736 143.923 491.968 143.156C491.201 142.389 490.141 141.913 488.973 141.913H472.629H456.285C455.118 141.913 454.058 142.389 453.291 143.156C452.524 143.923 452.048 144.983 452.048 146.15C452.048 147.319 452.524 148.379 453.291 149.146C454.058 149.913 455.118 150.389 456.285 150.389H472.629H488.973Z" fill="#0095B6"/>
<path d="M373.711 221.752L373.948 221.661L374.185 221.571C374.971 221.27 375.561 220.68 375.879 219.968C376.197 219.256 376.243 218.423 375.943 217.637L371.492 205.995L367.04 194.352C366.74 193.567 366.149 192.977 365.437 192.659C364.726 192.341 363.892 192.295 363.106 192.595L362.87 192.686L362.633 192.776C361.847 193.077 361.257 193.667 360.939 194.379C360.621 195.091 360.574 195.924 360.875 196.71L365.326 208.352L369.777 219.995C370.078 220.78 370.669 221.37 371.38 221.688C372.093 222.006 372.926 222.053 373.711 221.752Z" fill="#FCD290"/>
<path d="M523.444 602.791H456.912L484.384 587.708L503.903 594.203L523.444 585.614V602.791Z" fill="#502D43"/>
<path opacity="0.07" d="M456.461 141.913L53.0361 56.0776L58.164 236.868L456.461 150.388V141.913Z" fill="#A2B1B5"/>
<path opacity="0.07" d="M489.147 141.913L226.846 146.622L230.693 240.771L365.638 291.309L489.147 150.388V141.913Z" fill="#A2B1B5"/>
<path opacity="0.08" d="M493.386 146.15L353.238 451.289L282.896 422.497V366.679L478.316 142.124L493.386 146.15Z" fill="#A2B1B5"/>
<path opacity="0.07" d="M255.683 451.948L472.805 150.388V141.913L58.1642 236.868L66.4068 383.199L255.683 451.948Z" fill="#A2B1B5"/>
<path d="M249.837 427.721C249.548 427.613 249.253 427.383 248.996 427.039C247.184 424.619 245.386 422.093 243.652 419.535C243.073 418.68 242.97 417.545 243.421 416.984C243.872 416.424 244.71 416.64 245.306 417.48L250.572 424.876C251.167 425.711 251.299 426.853 250.87 427.444C250.62 427.786 250.235 427.87 249.837 427.721Z" fill="#ECF6FA"/>
<path d="M301.856 469.83C301.84 469.824 301.823 469.816 301.806 469.809C286.528 463.369 271.735 452.793 259.027 439.229C258.351 438.507 258.067 437.33 258.392 436.598C258.715 435.862 259.527 435.855 260.203 436.577C272.531 449.739 286.9 460.004 301.757 466.269C302.506 466.584 303.124 467.632 303.138 468.61C303.151 469.566 302.581 470.102 301.856 469.83Z" fill="#ECF6FA"/>
<path d="M314.361 474.066C313.68 473.811 313.066 472.915 312.95 471.972C312.829 470.974 313.312 470.29 314.038 470.434L321.545 471.938C322.254 472.095 322.973 473.005 323.124 474.008C323.276 475.013 322.822 475.734 322.102 475.629C319.621 475.271 317.06 474.759 314.486 474.104C314.445 474.095 314.403 474.082 314.361 474.066Z" fill="#ECF6FA"/>
<path d="M333.895 476.126C333.337 475.918 332.796 475.263 332.569 474.458C332.286 473.448 332.597 472.573 333.271 472.484L340.056 471.586C340.73 471.486 341.517 472.226 341.833 473.228C342.148 474.233 341.875 475.144 341.218 475.28C339.017 475.741 336.695 476.048 334.315 476.195C334.177 476.205 334.035 476.179 333.895 476.126Z" fill="#ECF6FA"/>
<path d="M398.97 367.147C396.048 295.656 349.629 220.999 295.495 200.725C241.361 180.451 199.697 222.12 202.619 293.612C205.541 365.103 251.961 439.76 306.094 460.033C360.228 480.306 401.892 438.638 398.97 367.147ZM394.906 365.625C397.707 434.156 357.768 474.1 305.875 454.666C253.982 435.232 209.486 363.666 206.685 295.135C203.884 226.603 243.822 186.66 295.714 206.094C347.607 225.529 392.105 297.093 394.906 365.625Z" fill="#0095B6"/>
<path opacity="0.22" d="M366.145 354.854C368.094 402.518 340.415 430.2 304.323 416.683C268.23 403.166 237.393 353.569 235.444 305.905C233.496 258.241 261.175 230.559 297.267 244.076C333.359 257.593 364.198 307.19 366.145 354.854Z" fill="#4CEAFC"/>
<path d="M254.129 453.502L66.4062 383.199C65.5031 382.861 64.7242 381.608 64.6754 380.415L51.4821 57.6322C51.4333 56.4392 52.1326 55.7399 53.0357 56.0785L240.758 126.381C241.661 126.719 242.44 127.972 242.489 129.165L255.682 451.948C255.731 453.141 255.032 453.84 254.129 453.502Z" fill="#ECF6FA"/>
<path d="M249.935 311.332L58.9277 239.798L51.4819 57.6317C51.4332 56.4387 52.1324 55.7394 53.0356 56.0781L240.758 126.381C241.661 126.719 242.44 127.972 242.489 129.165L249.935 311.332Z" fill="url(#paint0_linear_426_6008)"/>
<path d="M246.35 223.633C246.35 223.633 242.42 222.514 232.794 208.569C223.633 195.299 211.795 236.246 198.141 231.427C180.541 225.214 178.913 207.189 167.96 211.312C157.008 215.434 152.207 261.22 147.714 260.125C143.221 259.03 138.515 220.094 132.642 217.895C126.77 215.695 119.583 246.653 109.779 235.344C99.9757 224.036 81.4181 205.337 57.2131 197.871L58.9272 239.798L249.935 311.332L246.35 223.633Z" fill="#5A384D"/>
<path d="M126.991 390.571L75.1851 371.169L73.1849 322.242L124.992 341.644L126.991 390.571Z" fill="white"/>
<path d="M185.823 412.604L134.017 393.202L132.018 344.275L183.824 363.676L185.823 412.604Z" fill="white"/>
<path d="M244.654 434.637L192.848 415.235L190.849 366.308L242.655 385.709L244.654 434.637Z" fill="white"/>
<path d="M203.164 318.93L73.3989 270.332C72.0942 269.843 70.9693 268.034 70.8991 266.311C70.8289 264.589 71.8384 263.579 73.1431 264.067L202.908 312.666C204.213 313.154 205.337 314.963 205.408 316.686C205.478 318.408 204.468 319.418 203.164 318.93Z" fill="white"/>
<path d="M238.71 346.341L73.9845 284.65C72.6799 284.162 71.555 282.352 71.4847 280.63C71.4145 278.907 72.4241 277.897 73.7287 278.386L238.454 340.077C239.758 340.565 240.883 342.375 240.954 344.097C241.024 345.819 240.014 346.829 238.71 346.341Z" fill="white"/>
<path d="M239.295 360.659L74.5699 298.968C73.2652 298.48 72.1403 296.67 72.0701 294.948C71.9999 293.226 73.0094 292.216 74.3141 292.704L239.039 354.395C240.343 354.883 241.468 356.693 241.538 358.415C241.609 360.138 240.599 361.148 239.295 360.659Z" fill="white"/>
<path opacity="0.1" d="M243.424 152.042L144.862 271.981L249.935 311.332L243.424 152.042Z" fill="#502D43"/>
<path d="M317.102 302.958L258.325 280.946C257.576 280.666 256.937 279.638 256.897 278.649C256.856 277.66 257.43 277.087 258.179 277.367L316.956 299.379C317.704 299.659 318.344 300.688 318.385 301.677C318.425 302.666 317.85 303.239 317.102 302.958Z" fill="white"/>
<path d="M317.719 318.072L258.942 296.059C258.193 295.779 257.554 294.752 257.514 293.762C257.474 292.773 258.047 292.2 258.796 292.48L317.573 314.493C318.321 314.773 318.961 315.801 319.002 316.79C319.043 317.779 318.468 318.352 317.719 318.072Z" fill="white"/>
<path d="M318.337 333.185L259.561 311.173C258.812 310.893 258.173 309.865 258.132 308.876C258.092 307.887 258.665 307.314 259.414 307.594L318.191 329.606C318.939 329.886 319.58 330.915 319.62 331.904C319.66 332.893 319.085 333.466 318.337 333.185Z" fill="white"/>
<path d="M318.956 348.301L260.179 326.288C259.43 326.008 258.791 324.978 258.75 323.99C258.71 323.001 259.283 322.428 260.032 322.708L318.809 344.721C319.557 345.001 320.198 346.029 320.238 347.018C320.279 348.006 319.704 348.581 318.956 348.301Z" fill="white"/>
<path d="M367.67 359.48L366.236 324.393C366.086 320.721 363.701 316.885 360.92 315.844L334.352 305.894C331.57 304.852 329.429 306.993 329.58 310.665L331.014 345.752C331.164 349.424 333.549 353.26 336.33 354.301L362.898 364.251C365.68 365.293 367.82 363.152 367.67 359.48ZM361.066 319.423C362.353 319.905 363.455 321.679 363.525 323.378L364.959 358.464C365.029 360.163 364.039 361.154 362.752 360.673L336.184 350.723C334.897 350.241 333.795 348.467 333.725 346.767L332.291 311.681C332.221 309.983 333.211 308.991 334.498 309.473L361.066 319.423Z" fill="white"/>
<path d="M408.985 410.045C392.762 383.251 367.571 369.736 349.242 379.472C328.673 390.398 324.546 426.452 340.023 460.003C355.501 493.553 384.722 511.894 405.291 500.968C418.216 494.103 424.643 477.315 423.801 457.462L377.267 440.22L408.985 410.045Z" fill="#0095B6"/>
<path d="M408.984 410.045L377.267 440.22L423.801 457.462C423.302 445.72 420.263 432.906 414.51 420.436C412.824 416.783 410.967 413.321 408.984 410.045Z" fill="#5A384D"/>
<path d="M350.777 187.327C351.596 187.634 352.299 187.095 352.373 186.034C352.442 184.837 351.764 183.471 350.817 182.961L350.834 182.967C349.886 182.434 349.066 182.973 348.996 184.147C348.909 185.315 349.605 186.687 350.536 187.213C350.605 187.262 350.692 187.295 350.777 187.327ZM358.292 188.718C358.531 188.807 358.768 188.83 359 188.761C359.835 188.584 360.139 187.386 359.701 186.11C359.261 184.834 358.25 183.988 357.415 184.165C356.582 184.364 356.277 185.561 356.7 186.832C357.024 187.753 357.659 188.481 358.292 188.718ZM343.613 180.53C344.09 180.709 344.559 180.617 344.88 180.226C345.44 179.524 345.313 178.076 344.563 177.017C343.828 175.942 342.756 175.652 342.179 176.346C341.618 177.048 341.744 178.496 342.495 179.577C342.819 180.055 343.236 180.389 343.613 180.53ZM363.815 184.227C364.38 184.438 364.896 184.276 365.193 183.743C365.665 182.897 365.385 181.435 364.554 180.457C363.757 179.492 362.711 179.411 362.257 180.263C361.785 181.11 362.064 182.571 362.879 183.543C363.18 183.877 363.508 184.111 363.815 184.227ZM339.109 170.46C339.263 170.518 339.434 170.56 339.585 170.549C340.461 170.544 340.922 169.472 340.617 168.201C340.294 166.902 339.327 165.895 338.452 165.901C337.561 165.923 337.099 166.973 337.42 168.249C337.664 169.297 338.374 170.185 339.109 170.46ZM365.574 175.325C366.514 175.677 367.225 174.965 367.174 173.723C367.172 173.678 367.171 173.633 367.168 173.588C367.168 173.588 367.168 173.588 367.167 173.565C367.118 172.345 366.308 171.042 365.367 170.711C364.427 170.359 363.734 171.101 363.784 172.342C363.786 172.387 363.787 172.41 363.789 172.456C363.84 173.697 364.651 174.979 365.574 175.325ZM338.662 160.332C339.397 160.607 340.056 160.232 340.22 159.314C340.428 158.235 339.865 156.802 338.962 156.131C338.041 155.429 337.129 155.777 336.92 156.856C336.712 157.956 337.277 159.391 338.196 160.068C338.354 160.194 338.509 160.274 338.662 160.332ZM362.967 164.676C363.291 164.797 363.595 164.8 363.875 164.661C364.634 164.277 364.799 162.961 364.245 161.753C363.688 160.522 362.617 159.831 361.875 160.221C361.116 160.603 360.951 161.898 361.506 163.129C361.857 163.905 362.419 164.47 362.967 164.676ZM342.434 153.34C342.827 153.487 343.213 153.454 343.521 153.191C344.189 152.64 344.216 151.25 343.546 150.087C342.894 148.931 341.83 148.444 341.161 148.994C340.477 149.537 340.466 150.935 341.12 152.091C341.482 152.716 341.955 153.161 342.434 153.34ZM356.866 155.899C357.516 156.142 358.113 155.899 358.352 155.165C358.699 154.183 358.252 152.704 357.393 151.893C356.517 151.053 355.53 151.195 355.199 152.183C354.852 153.165 355.281 154.615 356.175 155.461C356.401 155.658 356.627 155.809 356.866 155.899ZM349.218 151.678C349.305 151.71 349.39 151.742 349.457 151.745C350.373 151.91 350.977 151.024 350.789 149.732C350.603 148.461 349.714 147.305 348.781 147.134C347.864 146.969 347.278 147.861 347.466 149.154C347.631 150.305 348.398 151.371 349.218 151.678Z" fill="#ECF6FA"/>
<path d="M145.119 278.246C144.968 278.19 144.813 278.098 144.659 277.971C143.94 277.375 143.531 276.213 143.744 275.376L198.064 62.4059C199.129 58.2268 200.922 58.1848 201.896 58.5323C201.909 58.5376 201.922 58.5418 201.934 58.5465C202.918 58.915 204.754 60.2899 206.276 65.3308L214.862 93.7605C215.549 96.0354 216.515 97.6336 217.583 98.261C218.645 98.8759 219.788 98.5257 220.791 97.2431L231.633 83.3611C233.248 81.2948 235.223 80.8514 237.197 82.0999C239.171 83.3537 240.769 86.0715 241.697 89.7522L258.931 158.107C259.56 160.602 260.321 161.763 260.781 162.001C261.256 162.264 262.068 161.89 262.876 160.138L280.388 122.188C281.586 119.593 283.353 118.657 285.304 119.413C287.279 120.219 289.097 122.659 290.428 126.285L298.033 147.014C298.839 149.211 299.868 150.72 300.854 151.153C301.849 151.61 302.862 150.978 303.658 149.486L307.971 141.377C309.272 138.932 311.126 138.057 313.169 138.931C315.22 139.799 317.108 142.248 318.484 145.827L332.546 182.4C333.412 184.653 334.523 186.189 335.673 186.725C336.784 187.237 337.957 186.774 338.872 185.351L350.743 166.888C351.152 166.255 351.988 166.394 352.621 167.204C353.249 168.011 353.429 169.18 353.02 169.814L341.149 188.278C339.709 190.522 337.731 191.197 335.627 190.224C333.508 189.237 331.588 186.735 330.221 183.181L316.159 146.608C315.314 144.413 314.241 142.905 313.214 142.47C312.115 141.97 311.138 142.645 310.341 144.144L306.028 152.253C304.726 154.707 302.927 155.595 300.865 154.677C298.841 153.788 296.997 151.312 295.674 147.705L288.069 126.975C287.269 124.798 286.291 123.336 285.381 122.965C284.504 122.681 283.539 123.274 282.818 124.833L265.308 162.784C263.663 166.35 261.685 165.999 260.635 165.45C259.596 164.915 257.662 163.261 256.385 158.191L239.151 89.8361C238.59 87.6121 237.735 85.9987 236.803 85.4064C235.863 84.8172 234.776 85.1904 233.802 86.44L222.96 100.322C221.359 102.373 219.343 102.831 217.285 101.626C215.226 100.416 213.488 97.7473 212.389 94.1101L203.803 65.6804C202.993 62.9982 202.273 62.1968 202.082 62.1255L202.081 62.125C201.892 62.0574 201.228 62.3624 200.666 64.5634L146.347 277.534C146.179 278.194 145.676 278.455 145.119 278.246Z" fill="#ECF6FA"/>
<path d="M365.638 291.31L230.693 240.772C229.86 240.46 229.142 239.304 229.097 238.204L225.412 148.057C225.367 146.956 226.012 146.312 226.845 146.624L361.79 197.162C362.622 197.473 363.341 198.629 363.386 199.729L367.071 289.877C367.116 290.977 366.471 291.622 365.638 291.31Z" fill="#ECF6FA"/>
<path d="M364.473 226.31L226.499 174.638L225.412 148.056C225.367 146.955 226.012 146.311 226.845 146.623L361.79 197.161C362.623 197.472 363.342 198.628 363.387 199.728L364.473 226.31Z" fill="#21A6B9"/>
<path d="M357.004 204.884L345.168 200.452L345.086 198.451L356.922 202.884L357.004 204.884Z" fill="#ECF6FA"/>
<path d="M357.156 208.636L345.32 204.203L345.238 202.202L357.074 206.635L357.156 208.636Z" fill="#ECF6FA"/>
<path d="M357.311 212.387L345.474 207.955L345.393 205.954L357.229 210.387L357.311 212.387Z" fill="#ECF6FA"/>
<path d="M357.464 216.139L345.627 211.706L345.545 209.706L357.382 214.138L357.464 216.139Z" fill="#ECF6FA"/>
<path d="M332.251 196.895L337.042 205.241L341.289 200.28L332.251 196.895Z" fill="#ECF6FA"/>
<path opacity="0.17" d="M312.6 197.129L233.291 167.427C232.714 167.211 232.217 166.411 232.186 165.65L231.941 159.65C231.91 158.888 232.356 158.441 232.933 158.657L312.242 188.359C312.819 188.575 313.316 189.375 313.348 190.137L313.593 196.137C313.624 196.899 313.178 197.345 312.6 197.129Z" fill="#21A6B9"/>
<path d="M204.769 65.0381L199.762 63.1631L199.491 56.5508L204.498 58.4262L204.769 65.0381Z" fill="#0095B6"/>
<path d="M205.447 65.2923L205.177 58.68C205.156 58.1862 204.836 57.671 204.462 57.531L199.455 55.6555C199.081 55.5156 198.793 55.8028 198.813 56.2971L199.084 62.9095C199.104 63.4032 199.425 63.9185 199.798 64.0584L204.806 65.9339C205.18 66.0739 205.467 65.7861 205.447 65.2923ZM200.206 57.7003L203.858 59.0679L204.055 63.8891L200.403 62.5216L200.206 57.7003Z" fill="#ECF6FA"/>
<path d="M239.277 88.3159L234.27 86.4405L234 79.8286L239.007 81.7036L239.277 88.3159Z" fill="#5A384D"/>
<path d="M239.956 88.5702L239.686 81.9568C239.665 81.463 239.345 80.9478 238.971 80.8078L233.964 78.9329C233.59 78.7929 233.303 79.0802 233.323 79.5745L233.593 86.1879C233.614 86.6816 233.934 87.1969 234.308 87.3368L239.314 89.2118C239.689 89.3517 239.976 89.064 239.956 88.5702ZM234.715 80.9771L238.366 82.3447L238.563 87.167L234.913 85.7995L234.715 80.9771Z" fill="#ECF6FA"/>
<path d="M220.756 104.432L215.749 102.557L215.479 95.9443L220.486 97.8198L220.756 104.432Z" fill="#0095B6"/>
<path d="M221.435 104.686L221.164 98.0741C221.144 97.5803 220.823 97.065 220.45 96.9246L215.442 95.0491C215.068 94.9091 214.781 95.1964 214.801 95.6907L215.071 102.303C215.092 102.797 215.412 103.312 215.786 103.452L220.793 105.327C221.167 105.468 221.455 105.18 221.435 104.686ZM216.193 97.0939L219.845 98.4614L220.042 103.283L216.39 101.915L216.193 97.0939Z" fill="#ECF6FA"/>
<path d="M303.618 156.434L298.611 154.559L298.341 147.947L303.348 149.822L303.618 156.434Z" fill="#5A384D"/>
<path d="M304.297 156.688L304.026 150.076C304.006 149.582 303.686 149.067 303.312 148.927L298.304 147.052C297.93 146.912 297.643 147.199 297.663 147.693L297.933 154.305C297.953 154.799 298.274 155.314 298.647 155.454L303.655 157.33C304.03 157.469 304.317 157.182 304.297 156.688ZM299.056 149.096L302.708 150.463L302.905 155.285L299.253 153.917L299.056 149.096Z" fill="#ECF6FA"/>
<path d="M288.173 126.425L283.166 124.55L282.896 117.938L287.903 119.813L288.173 126.425Z" fill="#0095B6"/>
<path d="M288.852 126.679L288.581 120.066C288.561 119.572 288.24 119.057 287.867 118.917L282.859 117.042C282.485 116.902 282.197 117.189 282.218 117.683L282.488 124.296C282.509 124.789 282.829 125.305 283.203 125.445L288.21 127.32C288.584 127.46 288.871 127.173 288.852 126.679ZM283.61 119.087L287.262 120.454L287.459 125.276L283.807 123.908L283.61 119.087Z" fill="#ECF6FA"/>
<path d="M315.635 145.301L310.628 143.426L310.358 136.813L315.365 138.688L315.635 145.301Z" fill="#0095B6"/>
<path d="M316.313 145.556L316.043 138.943C316.023 138.449 315.702 137.934 315.329 137.794L310.321 135.918C309.946 135.778 309.659 136.066 309.68 136.56L309.95 143.172C309.97 143.666 310.291 144.181 310.665 144.321L315.672 146.197C316.046 146.337 316.334 146.049 316.313 145.556ZM311.072 137.963L314.724 139.331L314.921 144.152L311.269 142.785L311.072 137.963Z" fill="#ECF6FA"/>
<path d="M354.503 172.235L349.496 170.36L349.226 163.748L354.233 165.623L354.503 172.235Z" fill="#0095B6"/>
<path d="M355.182 172.489L354.911 165.877C354.891 165.383 354.57 164.868 354.197 164.728L349.189 162.852C348.815 162.712 348.527 163 348.547 163.494L348.818 170.106C348.838 170.6 349.158 171.115 349.532 171.255L354.54 173.131C354.914 173.271 355.202 172.983 355.182 172.489ZM349.94 164.897L353.592 166.265L353.789 171.086L350.138 169.719L349.94 164.897Z" fill="#ECF6FA"/>
<path d="M424.75 480.47C425.692 480.823 426.403 480.112 426.352 478.87C426.301 477.629 425.509 476.353 424.568 476C423.627 475.648 422.917 476.361 422.967 477.603C423.018 478.844 423.829 480.125 424.768 480.477C424.75 480.47 424.75 480.47 424.75 480.47ZM416.842 474.818C417.44 475.042 417.988 474.847 418.267 474.24C418.701 473.358 418.355 471.873 417.527 470.962C416.697 470.028 415.669 470.021 415.252 470.912C414.817 471.815 415.163 473.28 415.992 474.211C416.274 474.516 416.568 474.715 416.842 474.818ZM432.435 480.636C432.726 480.745 433.013 480.764 433.261 480.635C434.056 480.331 434.274 479.058 433.751 477.815C433.246 476.582 432.188 475.83 431.41 476.14C430.631 476.447 430.397 477.717 430.918 478.956C431.257 479.795 431.854 480.418 432.435 480.636ZM410.841 465.168C411.115 465.271 411.418 465.271 411.666 465.165C412.461 464.863 412.679 463.587 412.158 462.348C411.652 461.112 410.593 460.337 409.816 460.669C409.021 460.973 408.803 462.247 409.325 463.51C409.324 463.488 409.324 463.488 409.324 463.488C409.662 464.325 410.243 464.944 410.841 465.168ZM437.821 475.227C438.403 475.445 438.95 475.25 439.245 474.67C439.664 473.761 439.334 472.302 438.505 471.371C437.659 470.452 436.648 470.43 436.213 471.311C435.796 472.224 436.125 473.68 436.971 474.62C437.236 474.919 437.53 475.118 437.821 475.227ZM408.319 454.105C409.258 454.435 409.969 453.724 409.918 452.481C409.867 451.239 409.059 449.96 408.136 449.636C407.194 449.283 406.483 449.994 406.534 451.237C406.584 452.457 407.377 453.752 408.319 454.105ZM439.487 465.734C440.427 466.087 441.138 465.352 441.088 464.133C441.087 464.11 441.087 464.088 441.087 464.088C441.086 464.064 441.085 464.042 441.084 464.02C441.034 462.801 440.224 461.518 439.284 461.166C438.36 460.82 437.631 461.527 437.699 462.774C437.7 462.796 437.701 462.843 437.702 462.865C437.752 464.084 438.547 465.382 439.487 465.734ZM409.967 444.584C410.548 444.802 411.096 444.607 411.39 444.006C411.808 443.094 411.479 441.637 410.633 440.719C409.804 439.788 408.776 439.78 408.358 440.669C407.942 441.581 408.269 443.037 409.099 443.949C409.379 444.253 409.677 444.475 409.967 444.584ZM436.943 454.576C437.233 454.685 437.521 454.68 437.785 454.579C438.564 454.271 438.78 452.995 438.276 451.762C437.754 450.521 436.697 449.77 435.917 450.077C435.14 450.409 434.921 451.66 435.445 452.925C435.78 453.739 436.361 454.358 436.943 454.576ZM415.352 439.151C415.624 439.252 415.929 439.28 416.176 439.171C416.972 438.848 417.191 437.594 416.667 436.332C416.161 435.096 415.104 434.346 414.327 434.676C414.309 434.669 414.309 434.669 414.309 434.669C413.53 434.979 413.313 436.253 413.835 437.495C414.172 438.331 414.752 438.926 415.352 439.151ZM430.909 444.933C431.506 445.157 432.054 444.963 432.333 444.355C432.767 443.449 432.421 441.986 431.593 441.077C430.745 440.137 429.735 440.136 429.3 441.017C428.883 441.93 429.229 443.392 430.058 444.326C430.34 444.61 430.635 444.831 430.909 444.933ZM423.018 439.288C423.941 439.634 424.67 438.927 424.62 437.686C424.55 436.438 423.758 435.162 422.819 434.81C421.877 434.457 421.167 435.193 421.217 436.412C421.267 437.653 422.077 438.936 423.018 439.288Z" fill="#ECF6FA"/>
<path d="M51.5954 90.3112C52.3995 90.6121 53.0862 90.1136 53.1952 89.0873C53.3 87.9257 52.6359 86.521 51.7039 85.9722C50.773 85.4228 49.9338 85.9098 49.83 87.0713C49.7089 88.2255 50.371 89.6083 51.303 90.1571C51.4067 90.219 51.5105 90.2792 51.5954 90.3112ZM59.5287 93.2607C59.6314 93.299 59.7341 93.3377 59.8358 93.353C60.75 93.473 61.3182 92.552 61.097 91.2683C60.8936 89.9915 59.9711 88.8456 59.0569 88.7261C58.1417 88.583 57.5735 89.504 57.7937 90.7871C57.975 91.922 58.7246 92.9593 59.5287 93.2607ZM43.9772 83.9232C44.5747 84.147 45.1235 83.9746 45.4024 83.367C45.8196 82.456 45.4904 80.9994 44.6628 80.0889C43.833 79.1548 42.8051 79.126 42.3874 80.037C41.9513 80.9181 42.2983 82.4052 43.1275 83.3162C43.3917 83.615 43.6857 83.8142 43.9772 83.9232ZM66.8539 92.4682C67.1443 92.5772 67.4315 92.5966 67.6795 92.4886C68.4741 92.1641 68.6927 90.9119 68.1869 89.6549C67.6653 88.4142 66.6065 87.6626 65.8286 87.9713C65.0502 88.3021 64.8327 89.5548 65.3391 90.8118C65.6918 91.6332 66.2721 92.2501 66.8539 92.4682ZM37.6154 74.9143C38.0085 75.0616 38.377 75.0213 38.6878 74.8048C39.3734 74.2612 39.4012 72.8931 38.7638 71.7206C38.1265 70.547 37.0446 70.0312 36.359 70.5527C35.6901 71.0806 35.6455 72.4644 36.3002 73.6432C36.6467 74.2848 37.1358 74.7351 37.6154 74.9143ZM72.6475 87.9902C73.1266 88.1695 73.6115 88.084 73.9149 87.6862C74.4742 86.9618 74.3306 85.5077 73.5806 84.4484C72.8305 83.3891 71.758 83.0992 71.1982 83.8231C70.6384 84.5469 70.7993 86.0078 71.5494 87.0671C71.8723 87.5441 72.2717 87.8492 72.6475 87.9902ZM33.2611 64.3671C33.4666 64.4441 33.6527 64.4693 33.8367 64.4499C34.7084 64.3529 35.1004 63.2328 34.7277 61.9601L34.7267 61.937C34.3551 60.6643 33.3733 59.7177 32.5016 59.7921C31.6467 59.8943 31.2378 61.0082 31.6105 62.3039C31.6094 62.2819 31.6095 62.2819 31.6095 62.2819C31.9035 63.303 32.5771 64.1113 33.2611 64.3671ZM76.2606 80.4045C76.9446 80.6608 77.571 80.3395 77.7912 79.5328C78.0506 78.4734 77.5542 77.0424 76.6647 76.2871C75.7579 75.525 74.8087 75.7698 74.5476 76.8055C74.2698 77.836 74.7678 79.2896 75.6741 80.0512C75.8654 80.2121 76.0551 80.3279 76.2606 80.4045ZM31.4533 53.5074C32.3936 53.8596 33.1049 53.1467 33.0541 51.905C33.0032 50.6632 32.2107 49.3885 31.2703 49.0362C30.3305 48.684 29.6187 49.4173 29.6685 50.637C29.7193 51.8788 30.5129 53.1551 31.4533 53.5074ZM77.2062 70.5978C78.1471 70.9501 78.8579 70.2152 78.8081 68.996C78.807 68.974 78.806 68.9509 78.8055 68.9289C78.8044 68.9058 78.8034 68.8838 78.8028 68.8607C78.752 67.619 77.9416 66.3374 77.0185 65.9914C76.0782 65.6392 75.368 66.373 75.4178 67.5928C75.4199 67.6379 75.4214 67.6829 75.423 67.7285C75.4723 68.9472 76.2664 70.2456 77.2062 70.5978ZM32.3821 43.6934C33.0834 43.956 33.7087 43.6127 33.9284 42.806C34.1894 41.7692 33.692 40.3157 32.7852 39.554C31.8967 38.8207 30.9458 39.0419 30.6691 40.095C30.4091 41.1323 30.906 42.5853 31.8123 43.3469C32.0036 43.5068 32.1944 43.6226 32.3821 43.6934ZM75.3774 59.6171C75.565 59.6873 75.769 59.7193 75.9529 59.6993C76.8246 59.6034 77.2167 58.4833 76.8451 57.2106C76.4724 55.9149 75.4728 54.9619 74.6189 55.0641C73.7472 55.1601 73.3551 56.2813 73.7268 57.5539C74.0208 58.5535 74.6934 59.3613 75.3774 59.6171ZM35.9768 36.0793C36.4559 36.2586 36.9235 36.1669 37.2437 35.7523C37.8036 35.0284 37.6605 33.5969 36.9104 32.5376C36.1598 31.4782 35.0873 31.1873 34.528 31.9122C33.9682 32.6361 34.1292 34.0969 34.8792 35.1563C35.2006 35.6102 35.601 35.9383 35.9768 36.0793ZM71.0064 49.0645C71.3995 49.2118 71.768 49.1715 72.0788 48.955C72.7644 48.4114 72.7922 47.0433 72.1548 45.8708C71.5007 44.6909 70.4356 44.1814 69.75 44.7029C69.0643 45.2245 69.0366 46.6146 69.6739 47.7871C70.0377 48.4345 70.5273 48.8847 71.0064 49.0645ZM41.7704 31.5783C42.0608 31.6874 42.3476 31.7057 42.6133 31.6051C43.3907 31.2727 43.6092 30.0205 43.1029 28.7636C42.5803 27.5234 41.5225 26.7712 40.7451 27.1025C39.9662 27.4112 39.7487 28.6865 40.2535 29.9204C40.6083 30.7653 41.1886 31.3603 41.7704 31.5783ZM64.6267 40.0494C65.2085 40.2674 65.7741 40.1013 66.0524 39.4932C66.4865 38.5885 66.1405 37.1245 65.3108 36.192C64.4653 35.2748 63.4557 35.2748 63.0196 36.1569C62.6013 37.0449 62.9484 38.5319 63.7771 39.4424C64.0418 39.7412 64.3363 39.9404 64.6267 40.0494ZM49.0773 30.757C49.18 30.7952 49.2828 30.834 49.3666 30.8424C50.2808 30.9635 50.849 30.0415 50.6278 28.7578C50.4244 27.4809 49.5019 26.3351 48.6056 26.2219C47.6904 26.0788 47.1232 27.0228 47.3266 28.2997C47.5247 29.4418 48.2732 30.4561 49.0773 30.757ZM57.0101 33.7054C57.8309 34.0126 58.5176 33.5141 58.6098 32.482C58.7136 31.3199 58.05 29.9157 57.1186 29.3669C56.1871 28.8181 55.3474 29.304 55.2436 30.466C55.1225 31.6213 55.8024 33.0093 56.7349 33.5812L56.7176 33.5744C56.8214 33.6346 56.9246 33.6729 57.0101 33.7054Z" fill="#ECF6FA"/>
<path d="M241.097 308.021C241.548 319.067 235.134 325.482 226.77 322.35C218.406 319.217 211.259 307.724 210.808 296.678C210.356 285.632 216.771 279.217 225.135 282.349C233.498 285.482 240.645 296.975 241.097 308.021Z" fill="#21A6B9"/>
<path d="M226.277 299.828L58.1631 236.869L58.2695 242.196L226.497 305.198C227.619 305.618 228.481 304.758 228.42 303.274C228.359 301.791 227.4 300.249 226.277 299.828Z" fill="#21A6B9"/>
<path d="M49.8263 211.716C49.0773 211.435 48.4383 210.408 48.3979 209.419L46.0848 152.825C46.0444 151.836 46.6179 151.262 47.3669 151.543C48.1159 151.823 48.7543 152.851 48.7952 153.84L51.1083 210.433C51.1487 211.423 50.5753 211.996 49.8263 211.716Z" fill="#ECF6FA"/>
<path d="M47.1947 147.333C47.1894 147.331 47.1847 147.33 47.1789 147.328C46.4304 147.036 45.7972 146.001 45.7658 145.015L45.5058 136.939C45.4738 135.961 46.0473 135.4 46.7884 135.678C46.7937 135.68 46.7984 135.682 46.8042 135.684C47.5527 135.975 48.1858 137.01 48.2172 137.996L48.4773 146.072C48.5087 147.05 47.9358 147.611 47.1947 147.333Z" fill="#ECF6FA"/>
<path d="M50.461 227.231C50.4484 227.226 50.4359 227.222 50.4233 227.217C49.6743 226.909 49.05 225.866 49.0301 224.885L48.9594 221.442C48.9384 220.46 49.5045 219.909 50.2797 220.222C51.0287 220.53 51.6529 221.573 51.6728 222.553L51.7436 225.997C51.7641 226.961 51.1927 227.505 50.461 227.231Z" fill="#ECF6FA"/>
<path d="M148.543 430.799C148.651 433.441 147.117 434.976 145.116 434.226C143.116 433.477 141.406 430.728 141.298 428.085C141.19 425.443 142.725 423.908 144.725 424.658C146.726 425.407 148.435 428.157 148.543 430.799Z" fill="#21A6B9"/>
<path d="M164.589 436.808C164.697 439.45 163.163 440.985 161.162 440.235C159.162 439.486 157.452 436.736 157.344 434.094C157.236 431.452 158.77 429.917 160.771 430.667C162.772 431.416 164.481 434.165 164.589 436.808Z" fill="#21A6B9"/>
<path d="M180.635 442.817C180.743 445.46 179.209 446.995 177.208 446.245C175.207 445.495 173.498 442.746 173.39 440.104C173.282 437.462 174.816 435.927 176.817 436.676C178.817 437.425 180.527 440.175 180.635 442.817Z" fill="#21A6B9"/>
<path d="M289.105 252.799C289.18 254.639 288.111 255.708 286.718 255.187C285.324 254.665 284.134 252.75 284.058 250.909C283.983 249.069 285.052 248 286.445 248.522C287.838 249.043 289.029 250.958 289.105 252.799Z" fill="#21A6B9"/>
<path d="M300.279 256.984C300.354 258.825 299.286 259.893 297.892 259.372C296.499 258.85 295.308 256.935 295.233 255.095C295.157 253.254 296.226 252.185 297.62 252.707C299.014 253.229 300.205 255.143 300.279 256.984Z" fill="#21A6B9"/>
<path d="M311.456 261.17C311.531 263.01 310.463 264.079 309.069 263.557C307.675 263.035 306.485 261.121 306.41 259.28C306.334 257.44 307.403 256.371 308.797 256.893C310.19 257.414 311.381 259.329 311.456 261.17Z" fill="#21A6B9"/>
<path d="M289.402 367.087L344.617 387.766C348.946 389.387 352.679 395.391 352.913 401.108L354.405 437.614C357.077 438.45 359.452 437.967 361.236 436.457C361.423 446.479 355.979 452.573 348.587 451.059C348.135 450.998 347.67 450.889 347.19 450.71L291.975 430.031C287.646 428.41 283.913 422.406 283.679 416.689L281.956 374.534C281.722 368.818 285.073 365.466 289.402 367.087Z" fill="#ECF6FA"/>
<path d="M344.425 407.08L290.553 386.905C289.249 386.416 288.124 384.608 288.054 382.885C287.983 381.162 288.993 380.152 290.297 380.641L344.169 400.816C345.473 401.304 346.598 403.114 346.668 404.836C346.738 406.559 345.729 407.569 344.425 407.08Z" fill="white"/>
<path d="M345.01 421.398L291.139 401.223C289.834 400.735 288.71 398.925 288.639 397.203C288.569 395.48 289.579 394.471 290.883 394.959L344.755 415.134C346.059 415.623 347.184 417.432 347.254 419.155C347.325 420.877 346.315 421.887 345.01 421.398Z" fill="white"/>
<path d="M345.595 435.716L291.724 415.541C290.42 415.053 289.295 413.244 289.224 411.521C289.154 409.798 290.164 408.788 291.468 409.277L345.34 429.452C346.644 429.941 347.769 431.749 347.839 433.472C347.909 435.195 346.9 436.205 345.595 435.716Z" fill="white"/>
<path d="M316.429 223.883L240.874 195.587C239.57 195.098 238.445 193.289 238.375 191.566C238.304 189.844 239.314 188.834 240.619 189.323L316.174 217.619C317.478 218.107 318.603 219.916 318.673 221.639C318.744 223.362 317.734 224.371 316.429 223.883Z" fill="white"/>
<path d="M351.975 251.294L241.459 209.905C240.155 209.416 239.03 207.607 238.96 205.884C238.889 204.161 239.899 203.152 241.204 203.64L351.719 245.029C353.024 245.517 354.148 247.326 354.219 249.049C354.289 250.773 353.28 251.782 351.975 251.294Z" fill="white"/>
<path d="M352.56 265.612L242.044 224.223C240.74 223.734 239.615 221.925 239.545 220.202C239.474 218.48 240.484 217.47 241.789 217.959L352.304 259.347C353.609 259.836 354.733 261.645 354.804 263.368C354.874 265.091 353.865 266.101 352.56 265.612Z" fill="white"/>
<path d="M226.392 313.129C221.891 311.443 218.033 305.238 217.79 299.293C217.547 293.349 221.01 289.886 225.511 291.571C227.471 292.306 229.405 293.947 230.955 296.194C231.548 297.053 231.656 298.206 231.197 298.77C230.739 299.335 229.884 299.095 229.293 298.237C228.258 296.737 226.967 295.641 225.657 295.15C222.65 294.025 220.337 296.338 220.5 300.309C220.662 304.279 223.24 308.424 226.246 309.55C229.252 310.676 231.565 308.363 231.403 304.393C231.363 303.403 231.936 302.83 232.685 303.11C233.434 303.391 234.073 304.418 234.113 305.407C234.356 311.351 230.893 314.815 226.392 313.129Z" fill="#0095B6"/>
<defs>
<linearGradient id="paint0_linear_426_6008" x1="51.4793" y1="183.662" x2="249.935" y2="183.662" gradientUnits="userSpaceOnUse">
<stop stop-color="#0095B6"/>
<stop offset="0.5165" stop-color="#9FE8FF"/>
<stop offset="1" stop-color="#83DCF8"/>
</linearGradient>
</defs>
</svg>
