<svg width="2508" height="316" viewBox="0 0 2508 316" fill="none" xmlns="http://www.w3.org/2000/svg">
<path d="M0 315.5L128 0.699951H224.5L352.5 315.5H274.9L176.2 69.9L77.6 315.5H0Z" fill="black"/>
<path d="M660.401 0.699951L532.401 315.5H435.801L307.801 0.699951H385.501L484.101 246.2L582.801 0.699951H660.401Z" fill="black"/>
<path d="M990.001 0.5H689.301V62.4H803.601V315.5H874.601V62.4H990.001V0.5Z" fill="black"/>
<path d="M1345.6 0.699951H1044.9V62.7H1345.6V0.699951Z" fill="black"/>
<path d="M1345.6 127H1044.9V189H1345.6V127Z" fill="black"/>
<path d="M1345.6 253.5H1044.9V315.5H1345.6V253.5Z" fill="black"/>
<path d="M1652.4 0H1590.3V62.1H1652.4V0Z" fill="black"/>
<path d="M1401.7 315.5H1652.1V254.6H1472.6V0.699951H1401.7V315.5Z" fill="black"/>
<path d="M2061.4 0.699951L1933.4 315.5H1836.9L1708.9 0.699951H1786.5L1885.1 246.2L1983.8 0.699951H2061.4Z" fill="black"/>
<path d="M2206.7 315.5L2321.5 201.3L2436.4 315.5H2507.3V0.699951H2436.4V229.1L2321.5 115.4L2206.7 229.1V0.699951H2135.7V315.5H2206.7Z" fill="black"/>
</svg>
