<svg width="114" height="66" viewBox="0 0 114 66" fill="none" xmlns="http://www.w3.org/2000/svg">
<ellipse cx="43.2266" cy="43.2087" rx="2.28301" ry="2.27414" fill="#13A9D1"/>
<ellipse cx="29.5788" cy="43.2588" rx="2.28301" ry="2.27414" fill="#13A9D1"/>
<ellipse cx="15.931" cy="43.2588" rx="2.28301" ry="2.27414" fill="#13A9D1"/>
<ellipse cx="2.28301" cy="43.2588" rx="2.28301" ry="2.27414" fill="#13A9D1"/>
<ellipse cx="43.2266" cy="50.0312" rx="2.28301" ry="2.27414" fill="#13A9D1"/>
<ellipse cx="29.5788" cy="50.081" rx="2.28301" ry="2.27414" fill="#13A9D1"/>
<ellipse cx="15.931" cy="50.081" rx="2.28301" ry="2.27414" fill="#13A9D1"/>
<ellipse cx="2.28301" cy="50.081" rx="2.28301" ry="2.27414" fill="#13A9D1"/>
<ellipse cx="43.2266" cy="56.8535" rx="2.28301" ry="2.27414" fill="#13A9D1"/>
<ellipse cx="29.5788" cy="56.9035" rx="2.28301" ry="2.27414" fill="#13A9D1"/>
<ellipse cx="15.931" cy="56.9035" rx="2.28301" ry="2.27414" fill="#13A9D1"/>
<ellipse cx="2.28301" cy="56.9035" rx="2.28301" ry="2.27414" fill="#13A9D1"/>
<ellipse cx="43.2266" cy="63.676" rx="2.28301" ry="2.27414" fill="#13A9D1"/>
<ellipse cx="29.5788" cy="63.726" rx="2.28301" ry="2.27414" fill="#13A9D1"/>
<ellipse cx="15.931" cy="63.726" rx="2.28301" ry="2.27414" fill="#13A9D1"/>
<ellipse cx="2.28301" cy="63.726" rx="2.28301" ry="2.27414" fill="#13A9D1"/>
<ellipse cx="50.0757" cy="43.2087" rx="2.28301" ry="2.27414" fill="#13A9D1"/>
<ellipse cx="36.4278" cy="43.2588" rx="2.28301" ry="2.27414" fill="#13A9D1"/>
<ellipse cx="22.78" cy="43.2588" rx="2.28301" ry="2.27414" fill="#13A9D1"/>
<ellipse cx="9.13201" cy="43.2588" rx="2.28301" ry="2.27414" fill="#13A9D1"/>
<ellipse cx="50.0757" cy="50.0312" rx="2.28301" ry="2.27414" fill="#13A9D1"/>
<ellipse cx="36.4278" cy="50.081" rx="2.28301" ry="2.27414" fill="#13A9D1"/>
<ellipse cx="22.78" cy="50.081" rx="2.28301" ry="2.27414" fill="#13A9D1"/>
<ellipse cx="9.13201" cy="50.081" rx="2.28301" ry="2.27414" fill="#13A9D1"/>
<ellipse cx="50.0757" cy="56.8535" rx="2.28301" ry="2.27414" fill="#13A9D1"/>
<ellipse cx="36.4278" cy="56.9035" rx="2.28301" ry="2.27414" fill="#13A9D1"/>
<ellipse cx="22.78" cy="56.9035" rx="2.28301" ry="2.27414" fill="#13A9D1"/>
<ellipse cx="9.13201" cy="56.9035" rx="2.28301" ry="2.27414" fill="#13A9D1"/>
<ellipse cx="50.0757" cy="63.676" rx="2.28301" ry="2.27414" fill="#13A9D1"/>
<ellipse cx="36.4278" cy="63.726" rx="2.28301" ry="2.27414" fill="#13A9D1"/>
<ellipse cx="22.78" cy="63.726" rx="2.28301" ry="2.27414" fill="#13A9D1"/>
<ellipse cx="9.13201" cy="63.726" rx="2.28301" ry="2.27414" fill="#13A9D1"/>
<ellipse cx="56.9247" cy="43.2087" rx="2.28301" ry="2.27414" fill="#13A9D1"/>
<ellipse cx="56.9247" cy="50.0312" rx="2.28301" ry="2.27414" fill="#13A9D1"/>
<ellipse cx="56.9247" cy="56.8535" rx="2.28301" ry="2.27414" fill="#13A9D1"/>
<ellipse cx="56.9247" cy="63.676" rx="2.28301" ry="2.27414" fill="#13A9D1"/>
<ellipse cx="63.7737" cy="43.2087" rx="2.28301" ry="2.27414" fill="#13A9D1"/>
<ellipse cx="63.7737" cy="50.0312" rx="2.28301" ry="2.27414" fill="#13A9D1"/>
<ellipse cx="63.7737" cy="56.8535" rx="2.28301" ry="2.27414" fill="#13A9D1"/>
<ellipse cx="63.7737" cy="63.676" rx="2.28301" ry="2.27414" fill="#13A9D1"/>
<ellipse cx="70.6229" cy="43.2087" rx="2.28301" ry="2.27414" fill="#13A9D1"/>
<ellipse cx="70.6229" cy="50.0312" rx="2.28301" ry="2.27414" fill="#13A9D1"/>
<ellipse cx="70.6229" cy="56.8535" rx="2.28301" ry="2.27414" fill="#13A9D1"/>
<ellipse cx="70.6229" cy="63.676" rx="2.28301" ry="2.27414" fill="#13A9D1"/>
<ellipse cx="77.4718" cy="43.2087" rx="2.28301" ry="2.27414" fill="#13A9D1"/>
<ellipse cx="77.4718" cy="50.0312" rx="2.28301" ry="2.27414" fill="#13A9D1"/>
<ellipse cx="77.4718" cy="56.8535" rx="2.28301" ry="2.27414" fill="#13A9D1"/>
<ellipse cx="77.4718" cy="63.676" rx="2.28301" ry="2.27414" fill="#13A9D1"/>
<ellipse cx="84.3208" cy="43.2087" rx="2.283" ry="2.27414" fill="#13A9D1"/>
<ellipse cx="84.3208" cy="50.0312" rx="2.283" ry="2.27414" fill="#13A9D1"/>
<ellipse cx="84.3208" cy="56.8535" rx="2.283" ry="2.27414" fill="#13A9D1"/>
<ellipse cx="84.3208" cy="63.676" rx="2.283" ry="2.27414" fill="#13A9D1"/>
<ellipse cx="91.1699" cy="43.2087" rx="2.28301" ry="2.27414" fill="#13A9D1"/>
<ellipse cx="91.1699" cy="50.0312" rx="2.28301" ry="2.27414" fill="#13A9D1"/>
<ellipse cx="91.1699" cy="56.8535" rx="2.28301" ry="2.27414" fill="#13A9D1"/>
<ellipse cx="91.1699" cy="63.676" rx="2.28301" ry="2.27414" fill="#13A9D1"/>
<ellipse cx="98.0189" cy="43.2087" rx="2.28301" ry="2.27414" fill="#13A9D1"/>
<ellipse cx="98.0189" cy="50.0312" rx="2.28301" ry="2.27414" fill="#13A9D1"/>
<ellipse cx="98.0189" cy="56.8535" rx="2.28301" ry="2.27414" fill="#13A9D1"/>
<ellipse cx="98.0189" cy="63.676" rx="2.28301" ry="2.27414" fill="#13A9D1"/>
<ellipse cx="104.868" cy="43.2087" rx="2.28302" ry="2.27414" fill="#13A9D1"/>
<ellipse cx="104.868" cy="50.0312" rx="2.28302" ry="2.27414" fill="#13A9D1"/>
<ellipse cx="104.868" cy="56.8535" rx="2.28302" ry="2.27414" fill="#13A9D1"/>
<ellipse cx="104.868" cy="63.676" rx="2.28302" ry="2.27414" fill="#13A9D1"/>
<ellipse cx="111.717" cy="43.2087" rx="2.28301" ry="2.27414" fill="#13A9D1"/>
<ellipse cx="111.717" cy="50.0312" rx="2.28301" ry="2.27414" fill="#13A9D1"/>
<ellipse cx="111.717" cy="56.8535" rx="2.28301" ry="2.27414" fill="#13A9D1"/>
<ellipse cx="111.717" cy="63.676" rx="2.28301" ry="2.27414" fill="#13A9D1"/>
<ellipse cx="91.1699" cy="2.27414" rx="2.28301" ry="2.27414" fill="#13A9D1"/>
<ellipse cx="91.1699" cy="9.09665" rx="2.28301" ry="2.27414" fill="#13A9D1"/>
<ellipse cx="91.1699" cy="15.9189" rx="2.28301" ry="2.27414" fill="#13A9D1"/>
<ellipse cx="91.1699" cy="22.7414" rx="2.28301" ry="2.27414" fill="#13A9D1"/>
<ellipse cx="91.1699" cy="29.5637" rx="2.28301" ry="2.27414" fill="#13A9D1"/>
<ellipse cx="91.1699" cy="36.3862" rx="2.28301" ry="2.27414" fill="#13A9D1"/>
<ellipse cx="98.0189" cy="2.27414" rx="2.28301" ry="2.27414" fill="#13A9D1"/>
<ellipse cx="98.0189" cy="9.09665" rx="2.28301" ry="2.27414" fill="#13A9D1"/>
<ellipse cx="98.0189" cy="15.9189" rx="2.28301" ry="2.27414" fill="#13A9D1"/>
<ellipse cx="98.0189" cy="22.7414" rx="2.28301" ry="2.27414" fill="#13A9D1"/>
<ellipse cx="98.0189" cy="29.5637" rx="2.28301" ry="2.27414" fill="#13A9D1"/>
<ellipse cx="98.0189" cy="36.3862" rx="2.28301" ry="2.27414" fill="#13A9D1"/>
<ellipse cx="104.868" cy="2.27414" rx="2.28302" ry="2.27414" fill="#13A9D1"/>
<ellipse cx="104.868" cy="9.09665" rx="2.28302" ry="2.27414" fill="#13A9D1"/>
<ellipse cx="104.868" cy="15.9189" rx="2.28302" ry="2.27414" fill="#13A9D1"/>
<ellipse cx="104.868" cy="22.7414" rx="2.28302" ry="2.27414" fill="#13A9D1"/>
<ellipse cx="104.868" cy="29.5637" rx="2.28302" ry="2.27414" fill="#13A9D1"/>
<ellipse cx="104.868" cy="36.3862" rx="2.28302" ry="2.27414" fill="#13A9D1"/>
<ellipse cx="111.717" cy="2.27414" rx="2.28301" ry="2.27414" fill="#13A9D1"/>
<ellipse cx="111.717" cy="9.09665" rx="2.28301" ry="2.27414" fill="#13A9D1"/>
<ellipse cx="111.717" cy="15.9189" rx="2.28301" ry="2.27414" fill="#13A9D1"/>
<ellipse cx="111.717" cy="22.7414" rx="2.28301" ry="2.27414" fill="#13A9D1"/>
<ellipse cx="111.717" cy="29.5637" rx="2.28301" ry="2.27414" fill="#13A9D1"/>
<ellipse cx="111.717" cy="36.3862" rx="2.28301" ry="2.27414" fill="#13A9D1"/>
</svg>
