<svg width="745" height="672" viewBox="0 0 745 672" fill="none" xmlns="http://www.w3.org/2000/svg">
<path d="M541.884 62.1523V114.406L496.404 159.886V201.689L444.925 253.168H403.122L336.16 320.13" stroke="#0095B6" stroke-width="4"/>
<path d="M538.055 63.4249C535.963 61.3328 535.963 57.9409 538.055 55.8488C540.147 53.7568 543.539 53.7567 545.631 55.8488C547.723 57.9409 547.723 61.3328 545.631 63.4249C543.539 65.517 540.147 65.517 538.055 63.4249Z" fill="#0095B6" stroke="#0095B6"/>
<path d="M468.412 155.539V181.666V207.793L422.932 253.273L380.549 253.466L311.846 322.17" stroke="#0095B6" stroke-width="4"/>
<path d="M464.583 156.811C462.491 154.719 462.491 151.327 464.583 149.235C466.675 147.142 470.067 147.142 472.159 149.235C474.251 151.327 474.251 154.719 472.159 156.811C470.067 158.903 466.675 158.903 464.583 156.811Z" fill="#0095B6" stroke="#0095B6"/>
<path d="M632.744 120.185H601.648H570.553L516.423 174.315L516.192 224.76L375.975 364.977" stroke="#0095B6" stroke-width="4"/>
<path d="M628.626 123.806C630.718 125.898 634.11 125.898 636.202 123.806C638.294 121.713 638.294 118.322 636.202 116.229C634.11 114.137 630.718 114.137 628.626 116.229C626.534 118.322 626.534 121.713 628.626 123.806Z" fill="#0095B6" stroke="#0095B6"/>
<path d="M616.874 242.883H585.778H554.682L500.552 297.013L500.322 347.458L418.551 429.228" stroke="#0095B6" stroke-width="4"/>
<path d="M613.143 246.891C615.235 248.983 618.627 248.983 620.719 246.891C622.811 244.799 622.811 241.407 620.719 239.315C618.627 237.223 615.235 237.223 613.143 239.315C611.051 241.407 611.051 244.799 613.143 246.891Z" fill="#0095B6" stroke="#0095B6"/>
<path d="M583.065 138.036L561.077 160.024L539.089 182.012V229.666L388.715 380.04" stroke="#0095B6" stroke-width="4"/>
<path d="M588.562 137.822C588.562 140.781 586.163 143.179 583.205 143.179C580.246 143.179 577.848 140.781 577.848 137.822C577.848 134.863 580.246 132.465 583.205 132.465C586.163 132.465 588.562 134.863 588.562 137.822Z" fill="#0095B6" stroke="#0095B6"/>
<path d="M264.941 37.957L301.89 74.9058V139.224L331.449 168.783V241.586L301.89 271.145V365.843" stroke="#0095B6" stroke-width="4"/>
<path d="M263.134 41.5628C260.175 41.5628 257.777 39.1643 257.777 36.2057C257.777 33.247 260.175 30.8486 263.134 30.8486C266.093 30.8486 268.491 33.247 268.491 36.2057C268.491 39.1643 266.093 41.5628 263.134 41.5628Z" fill="#0095B6" stroke="#0095B6"/>
<path d="M370.225 14.7441L348.237 36.7323L326.248 58.7204V135.272L361.755 171.104V369.401" stroke="#0095B6" stroke-width="4"/>
<path d="M369.873 20.2141C372.831 20.2141 375.23 17.8157 375.23 14.8571C375.23 11.8984 372.831 9.5 369.873 9.5C366.914 9.5 364.516 11.8984 364.516 14.8571C364.516 17.8157 366.914 20.2141 369.873 20.2141Z" fill="#0095B6" stroke="#0095B6"/>
<path d="M442.035 79.6909L420.047 101.679L398.059 123.667V200.218L433.565 236.051V351.692" stroke="#0095B6" stroke-width="4"/>
<path d="M442.23 85.1614C445.189 85.1614 447.587 82.7629 447.587 79.8043C447.587 76.8457 445.189 74.4473 442.23 74.4473C439.271 74.4473 436.873 76.8457 436.873 79.8043C436.873 82.7629 439.271 85.1614 442.23 85.1614Z" fill="#0095B6" stroke="#0095B6"/>
<path d="M347.719 62.4937V93.5896V124.685L381.415 158.382L381.416 371.043" stroke="#0095B6" stroke-width="4"/>
<path d="M351.456 58.4551C353.548 60.5472 353.548 63.9391 351.456 66.0312C349.364 68.1232 345.972 68.1232 343.88 66.0312C341.788 63.9391 341.788 60.5472 343.88 58.4551C345.972 56.3631 349.364 56.3631 351.456 58.4551Z" fill="#0095B6" stroke="#0095B6"/>
<path d="M449.143 642.154L412.194 605.205V540.887L382.635 511.328V438.525L412.194 408.966V314.268" stroke="#0095B6" stroke-width="4"/>
<path d="M450.949 638.548C453.908 638.548 456.306 640.947 456.306 643.905C456.306 646.864 453.908 649.263 450.949 649.263C447.99 649.263 445.592 646.864 445.592 643.905C445.592 640.947 447.99 638.548 450.949 638.548Z" fill="#0095B6" stroke="#0095B6"/>
<path d="M463.949 537.535L445.475 519.061L427 500.586V436.268L456.833 406.162V309" stroke="#0095B6" stroke-width="4"/>
<path d="M465.756 533.93C468.714 533.93 471.113 536.329 471.113 539.287C471.113 542.246 468.714 544.644 465.756 544.644C462.797 544.644 460.398 542.246 460.398 539.287C460.398 536.329 462.797 533.93 465.756 533.93Z" fill="#0095B6" stroke="#0095B6"/>
<path d="M343.859 665.367L365.847 643.379L387.836 621.391V544.839L352.329 509.007V310.71" stroke="#0095B6" stroke-width="4"/>
<path d="M344.211 659.897C341.253 659.897 338.854 662.295 338.854 665.254C338.854 668.213 341.253 670.611 344.211 670.611C347.17 670.611 349.568 668.213 349.568 665.254C349.568 662.295 347.17 659.897 344.211 659.897Z" fill="#0095B6" stroke="#0095B6"/>
<path d="M272.049 600.42L294.037 578.432L316.025 556.444V479.893L280.519 444.06V328.419" stroke="#0095B6" stroke-width="4"/>
<path d="M271.853 594.95C268.894 594.95 266.496 597.348 266.496 600.307C266.496 603.265 268.894 605.664 271.853 605.664C274.811 605.664 277.21 603.265 277.21 600.307C277.21 597.348 274.811 594.95 271.853 594.95Z" fill="#0095B6" stroke="#0095B6"/>
<path d="M366.365 617.617V586.521V555.425L332.668 521.729V309.068" stroke="#0095B6" stroke-width="4"/>
<path d="M362.628 621.656C360.536 619.564 360.536 616.172 362.628 614.08C364.72 611.988 368.112 611.988 370.204 614.08C372.296 616.172 372.296 619.564 370.204 621.656C368.112 623.748 364.72 623.748 362.628 621.656Z" fill="#0095B6" stroke="#0095B6"/>
<path d="M62.1543 233.011H114.408L159.888 278.491H201.691L253.17 329.97V371.773L320.132 438.734" stroke="#0095B6" stroke-width="4"/>
<path d="M63.4245 236.837C61.3324 238.929 57.9405 238.929 55.8484 236.837C53.7563 234.745 53.7563 231.353 55.8484 229.261C57.9405 227.169 61.3324 227.169 63.4245 229.261C65.5165 231.353 65.5165 234.745 63.4245 236.837Z" fill="#0095B6" stroke="#0095B6"/>
<path d="M141.111 295.714H167.238H193.365L238.845 341.194L239.038 383.577L307.742 452.281" stroke="#0095B6" stroke-width="4"/>
<path d="M142.385 299.541C140.293 301.633 136.901 301.633 134.809 299.541C132.717 297.449 132.717 294.057 134.809 291.965C136.901 289.873 140.293 289.873 142.385 291.965C144.477 294.057 144.477 297.449 142.385 299.541Z" fill="#0095B6" stroke="#0095B6"/>
<path d="M120.186 142.149V173.245V204.341L174.316 258.471L224.761 258.702L364.978 398.919" stroke="#0095B6" stroke-width="4"/>
<path d="M123.804 146.265C125.896 144.173 125.896 140.781 123.804 138.689C121.712 136.597 118.32 136.597 116.228 138.689C114.135 140.781 114.135 144.173 116.228 146.265C118.32 148.357 121.712 148.357 123.804 146.265Z" fill="#0095B6" stroke="#0095B6"/>
<path d="M235.564 104.218V135.314V166.41L289.694 220.54L340.139 220.771L421.909 302.541" stroke="#0095B6" stroke-width="4"/>
<path d="M239.571 107.947C241.663 105.855 241.663 102.463 239.571 100.371C237.479 98.2787 234.087 98.2787 231.995 100.371C229.903 102.463 229.903 105.855 231.995 107.947C234.087 110.039 237.479 110.039 239.571 107.947Z" fill="#0095B6" stroke="#0095B6"/>
<path d="M138.037 191.827L160.025 213.816L182.013 235.804H229.667L380.041 386.177" stroke="#0095B6" stroke-width="4"/>
<path d="M137.822 186.329C140.781 186.329 143.179 188.727 143.179 191.686C143.179 194.645 140.781 197.043 137.822 197.043C134.863 197.043 132.465 194.645 132.465 191.686C132.465 188.727 134.863 186.329 137.822 186.329Z" fill="#0095B6" stroke="#0095B6"/>
<path d="M76.4531 443.061H129.796L176.225 396.633H218.9L271.453 344.079L310.368 334.369L380.882 262.463" stroke="#0095B6" stroke-width="4"/>
<path d="M77.76 439.147C75.6202 437.008 72.1509 437.008 70.0111 439.147C67.8713 441.287 67.8713 444.756 70.0111 446.896C72.1509 449.036 75.6202 449.036 77.76 446.896C79.8998 444.756 79.8998 441.287 77.76 439.147Z" fill="#0095B6" stroke="#0095B6"/>
<path d="M157.057 379.049H183.728H210.4L256.829 332.62L291.809 311.173L355.83 283.802" stroke="#0095B6" stroke-width="4"/>
<path d="M158.364 375.135C156.224 372.995 152.755 372.995 150.615 375.135C148.475 377.275 148.475 380.744 150.615 382.884C152.755 385.024 156.224 385.024 158.364 382.884C160.504 380.744 160.504 377.275 158.364 375.135Z" fill="#0095B6" stroke="#0095B6"/>
<path d="M135.697 535.819V504.074V472.33L190.956 417.07L242.453 416.835L385.595 273.693" stroke="#0095B6" stroke-width="4"/>
<path d="M139.399 531.61C141.538 533.75 141.538 537.219 139.399 539.359C137.259 541.498 133.79 541.498 131.65 539.359C129.51 537.219 129.51 533.749 131.65 531.61C133.79 529.47 137.259 529.47 139.399 531.61Z" fill="#0095B6" stroke="#0095B6"/>
<path d="M237.24 539.728V507.983V476.239L292.499 420.98L343.995 420.744L427.472 337.268" stroke="#0095B6" stroke-width="4"/>
<path d="M241.336 535.914C243.476 538.054 243.476 541.523 241.336 543.663C239.196 545.803 235.727 545.803 233.587 543.663C231.448 541.523 231.448 538.054 233.587 535.914C235.727 533.774 239.196 533.774 241.336 535.914Z" fill="#0095B6" stroke="#0095B6"/>
<path d="M153.916 485.104L176.363 462.658L198.81 440.211H247.458L400.969 286.7" stroke="#0095B6" stroke-width="4"/>
<path d="M153.698 490.727C156.724 490.727 159.177 488.274 159.177 485.248C159.177 482.222 156.724 479.769 153.698 479.769C150.672 479.769 148.219 482.222 148.219 485.248C148.219 488.274 150.672 490.727 153.698 490.727Z" fill="#0095B6" stroke="#0095B6"/>
<path d="M640.902 544.726L612.261 495.119L544.156 476.87L521.243 437.184L444.155 416.528L404.468 439.441L304.195 412.573" stroke="#0095B6" stroke-width="4"/>
<path d="M636.528 545.604C635.681 548.762 637.556 552.009 640.714 552.855C643.873 553.701 647.119 551.827 647.966 548.668C648.812 545.51 646.938 542.263 643.779 541.417C640.621 540.571 637.374 542.445 636.528 545.604Z" fill="#0095B6" stroke="#0095B6"/>
<path d="M538.102 504.135L523.781 479.332L509.461 454.528L441.356 436.279L401.013 459.326L298.131 431.759" stroke="#0095B6" stroke-width="4"/>
<path d="M533.725 505.013C532.879 508.171 534.753 511.418 537.912 512.264C541.07 513.111 544.317 511.236 545.163 508.078C546.009 504.919 544.135 501.673 540.976 500.826C537.818 499.98 534.571 501.854 533.725 505.013Z" fill="#0095B6" stroke="#0095B6"/>
<path d="M695.358 439.831L665.837 456.875L636.316 473.919L555.258 452.2L527.39 404.436L317.418 348.175" stroke="#0095B6" stroke-width="4"/>
<path d="M689.418 438.639C690.264 435.481 693.511 433.606 696.669 434.453C699.827 435.299 701.702 438.545 700.856 441.704C700.009 444.862 696.763 446.737 693.604 445.89C690.446 445.044 688.571 441.798 689.418 438.639Z" fill="#0095B6" stroke="#0095B6"/>
<path d="M613.041 332.045L583.52 349.089L553.999 366.133L472.941 344.414L445.073 296.651L322.623 263.84" stroke="#0095B6" stroke-width="4"/>
<path d="M607.256 330.272C608.102 327.113 611.348 325.239 614.507 326.085C617.665 326.932 619.54 330.178 618.693 333.337C617.847 336.495 614.601 338.37 611.442 337.523C608.284 336.677 606.409 333.43 607.256 330.272Z" fill="#0095B6" stroke="#0095B6"/>
<path d="M638.414 450.113L605.488 441.29L572.561 432.468L546.441 387.227L321.26 326.89" stroke="#0095B6" stroke-width="4"/>
<path d="M643.791 447.279C642.156 444.447 638.535 443.477 635.703 445.111C632.871 446.746 631.901 450.367 633.536 453.199C635.171 456.031 638.792 457.001 641.624 455.366C644.455 453.731 645.426 450.11 643.791 447.279Z" fill="#0095B6" stroke="#0095B6"/>
<path d="M181.664 162.609L200.138 181.084L218.613 199.558L259 239.5L266 270L306.5 298" stroke="#0095B6" stroke-width="4"/>
<path d="M179.859 166.214C176.9 166.214 174.502 163.816 174.502 160.857C174.502 157.898 176.9 155.5 179.859 155.5C182.817 155.5 185.216 157.898 185.216 160.857C185.216 163.816 182.817 166.214 179.859 166.214Z" fill="#0095B6" stroke="#0095B6"/>
<path d="M372 487C454.843 487 522 419.843 522 337C522 254.157 454.843 187 372 187C289.157 187 222 254.157 222 337C222 419.843 289.157 487 372 487Z" fill="url(#paint0_linear_1308_8)"/>
<path d="M403.303 483.739C467.5 471.5 509 419.5 519.5 364.5L481.5 323.5H476V343.5H479.5L455 323.5L452.5 330L442 323.5L437.5 324.5L436.25 332L418.5 323.5L412 323L415.5 329L406.5 323H402L401 327.5L390.5 323L387.5 328L380.5 323L367 324.5H354.213V328L349 323L333 324.5L323.5 327.5L319.5 323L314 324.5L311.5 339.5L295 323H289L300.5 349V350.5L281 323.5L273 324.5L261 351L403.303 483.739Z" fill="#0095B6"/>
<g clip-path="url(#clip0_1308_8)">
<path d="M260.973 350.973L272.256 323.08H280.763L292.047 350.973H285.206L276.505 329.211L267.813 350.973H260.973Z" fill="white"/>
<path d="M319.188 323.08L307.905 350.973H299.389L288.105 323.08H294.955L303.647 344.833L312.348 323.08H319.188Z" fill="white"/>
<path d="M348.244 323.062H321.736V328.547H331.812V350.973H338.071V328.547H348.244V323.062Z" fill="white"/>
<path d="M379.592 323.08H353.084V328.573H379.592V323.08Z" fill="white"/>
<path d="M379.592 334.271H353.084V339.764H379.592V334.271Z" fill="white"/>
<path d="M379.592 345.479H353.084V350.973H379.592V345.479Z" fill="white"/>
<path d="M406.636 323.018H401.162V328.52H406.636V323.018Z" fill="white"/>
<path d="M384.537 350.973H406.611V345.577H390.787V323.08H384.537V350.973Z" fill="white"/>
<path d="M442.691 323.08L431.408 350.973H422.901L411.617 323.08H418.458L427.15 344.833L435.85 323.08H442.691Z" fill="white"/>
<path d="M455.501 350.973L465.621 340.854L475.75 350.973H482V323.08H475.75V343.318L465.621 333.243L455.501 343.318V323.08H449.242V350.973H455.501Z" fill="white"/>
</g>
<defs>
<linearGradient id="paint0_linear_1308_8" x1="492.652" y1="443.956" x2="189.391" y2="145.261" gradientUnits="userSpaceOnUse">
<stop stop-color="#13A9D1"/>
<stop offset="0.942708" stop-color="white"/>
</linearGradient>
<clipPath id="clip0_1308_8">
<rect width="221" height="28" fill="white" transform="translate(261 323)"/>
</clipPath>
</defs>
</svg>
