<svg width="745" height="672" viewBox="0 0 745 672" fill="none" xmlns="http://www.w3.org/2000/svg">
<path d="M541.884 62.1525L541.884 114.406L496.404 159.886L496.404 201.689L444.925 253.168L403.122 253.168L336.16 320.13" stroke="#0095B6" stroke-width="4"/>
<path d="M538.056 63.425C535.964 61.3329 535.964 57.941 538.056 55.8489C540.148 53.7569 543.54 53.7568 545.632 55.8489C547.724 57.941 547.724 61.3329 545.632 63.425C543.54 65.5171 540.148 65.5171 538.056 63.425Z" fill="#0095B6" stroke="#0095B6"/>
<path d="M468.411 155.539L468.411 181.666L468.411 207.793L422.931 253.273L380.548 253.466L311.845 322.17" stroke="#0095B6" stroke-width="4"/>
<path d="M464.583 156.811C462.491 154.719 462.491 151.327 464.583 149.235C466.675 147.142 470.067 147.142 472.159 149.235C474.251 151.327 474.251 154.719 472.159 156.811C470.067 158.903 466.675 158.903 464.583 156.811Z" fill="#0095B6" stroke="#0095B6"/>
<path d="M632.743 120.185L601.647 120.185L570.552 120.185L516.422 174.315L516.191 224.76L375.974 364.977" stroke="#0095B6" stroke-width="4"/>
<path d="M628.626 123.806C630.718 125.898 634.11 125.898 636.202 123.806C638.294 121.713 638.294 118.322 636.202 116.229C634.11 114.137 630.718 114.137 628.626 116.229C626.534 118.322 626.534 121.713 628.626 123.806Z" fill="#0095B6" stroke="#0095B6"/>
<path d="M616.873 242.883L585.777 242.883L554.681 242.883L500.551 297.013L500.321 347.458L418.55 429.228" stroke="#0095B6" stroke-width="4"/>
<path d="M613.144 246.891C615.236 248.983 618.628 248.983 620.72 246.891C622.812 244.799 622.812 241.407 620.72 239.315C618.628 237.223 615.236 237.223 613.144 239.315C611.052 241.407 611.052 244.799 613.144 246.891Z" fill="#0095B6" stroke="#0095B6"/>
<path d="M583.064 138.036L561.076 160.024L539.088 182.012L539.088 229.666L388.714 380.04" stroke="#0095B6" stroke-width="4"/>
<circle r="5.35706" transform="matrix(-4.72029e-07 1 1 -4.72029e-07 583.205 137.822)" fill="#0095B6" stroke="#0095B6"/>
<path d="M264.941 37.957L301.89 74.9058L301.89 139.224L331.449 168.783L331.449 241.586L301.89 271.145L301.89 365.843" stroke="#0095B6" stroke-width="4"/>
<path d="M263.135 41.5626C260.176 41.5626 257.778 39.1641 257.778 36.2055C257.778 33.2468 260.176 30.8484 263.135 30.8484C266.094 30.8484 268.492 33.2468 268.492 36.2055C268.492 39.1641 266.094 41.5626 263.135 41.5626Z" fill="#0095B6" stroke="#0095B6"/>
<path d="M370.225 14.744L348.237 36.7322L326.248 58.7203L326.248 135.272L361.755 171.104L361.755 369.401" stroke="#0095B6" stroke-width="4"/>
<path d="M369.873 20.2141C372.831 20.2141 375.23 17.8157 375.23 14.8571C375.23 11.8984 372.831 9.5 369.873 9.5C366.914 9.5 364.516 11.8984 364.516 14.8571C364.516 17.8157 366.914 20.2141 369.873 20.2141Z" fill="#0095B6" stroke="#0095B6"/>
<path d="M442.035 79.6909L420.047 101.679L398.059 123.667L398.059 200.218L433.565 236.051L433.565 351.692" stroke="#0095B6" stroke-width="4"/>
<path d="M442.23 85.1614C445.189 85.1614 447.587 82.7629 447.587 79.8043C447.587 76.8457 445.189 74.4473 442.23 74.4473C439.271 74.4473 436.873 76.8457 436.873 79.8043C436.873 82.7629 439.271 85.1614 442.23 85.1614Z" fill="#0095B6" stroke="#0095B6"/>
<path d="M347.719 62.4936L347.719 93.5895L347.719 124.685L381.415 158.382L381.416 371.043" stroke="#0095B6" stroke-width="4"/>
<circle r="5.35706" transform="matrix(0.707106 0.707107 0.707106 -0.707107 347.668 62.243)" fill="#0095B6" stroke="#0095B6"/>
<path d="M449.143 642.154L412.194 605.205L412.194 540.887L382.635 511.328L382.635 438.525L412.194 408.966L412.194 314.268" stroke="#0095B6" stroke-width="4"/>
<path d="M450.949 638.548C453.908 638.548 456.306 640.947 456.306 643.905C456.306 646.864 453.908 649.263 450.949 649.263C447.99 649.263 445.592 646.864 445.592 643.905C445.592 640.947 447.99 638.548 450.949 638.548Z" fill="#0095B6" stroke="#0095B6"/>
<path d="M463.949 537.535L445.475 519.061L427 500.586L427 436.268L456.833 406.162L456.833 309" stroke="#0095B6" stroke-width="4"/>
<path d="M465.756 533.93C468.714 533.93 471.113 536.329 471.113 539.287C471.113 542.246 468.714 544.644 465.756 544.644C462.797 544.644 460.398 542.246 460.398 539.287C460.398 536.329 462.797 533.93 465.756 533.93Z" fill="#0095B6" stroke="#0095B6"/>
<path d="M343.859 665.367L365.847 643.379L387.836 621.391L387.836 544.839L352.329 509.007L352.329 310.71" stroke="#0095B6" stroke-width="4"/>
<path d="M344.211 659.897C341.253 659.897 338.854 662.295 338.854 665.254C338.854 668.213 341.253 670.611 344.211 670.611C347.17 670.611 349.568 668.213 349.568 665.254C349.568 662.295 347.17 659.897 344.211 659.897Z" fill="#0095B6" stroke="#0095B6"/>
<path d="M272.049 600.42L294.037 578.432L316.025 556.444L316.025 479.893L280.519 444.06L280.519 328.419" stroke="#0095B6" stroke-width="4"/>
<path d="M271.854 594.95C268.895 594.95 266.497 597.348 266.497 600.307C266.497 603.265 268.895 605.664 271.854 605.664C274.812 605.664 277.211 603.265 277.211 600.307C277.211 597.348 274.812 594.95 271.854 594.95Z" fill="#0095B6" stroke="#0095B6"/>
<path d="M366.365 617.617L366.365 586.521L366.365 555.425L332.668 521.729L332.668 309.068" stroke="#0095B6" stroke-width="4"/>
<circle r="5.35706" transform="matrix(-0.707106 -0.707107 -0.707106 0.707107 366.416 617.868)" fill="#0095B6" stroke="#0095B6"/>
<path d="M62.1535 233.011L114.407 233.011L159.887 278.491L201.69 278.491L253.169 329.97L253.169 371.773L320.131 438.734" stroke="#0095B6" stroke-width="4"/>
<path d="M63.4248 236.837C61.3327 238.929 57.9408 238.929 55.8487 236.837C53.7566 234.745 53.7566 231.353 55.8487 229.261C57.9408 227.169 61.3327 227.169 63.4248 229.261C65.5168 231.353 65.5168 234.745 63.4248 236.837Z" fill="#0095B6" stroke="#0095B6"/>
<path d="M141.112 295.714L167.239 295.714L193.366 295.714L238.846 341.194L239.039 383.577L307.743 452.281" stroke="#0095B6" stroke-width="4"/>
<path d="M142.386 299.541C140.294 301.633 136.902 301.633 134.81 299.541C132.718 297.449 132.718 294.057 134.81 291.965C136.902 289.873 140.294 289.873 142.386 291.965C144.478 294.057 144.478 297.449 142.386 299.541Z" fill="#0095B6" stroke="#0095B6"/>
<path d="M120.186 142.149L120.186 173.245L120.186 204.341L174.316 258.471L224.761 258.702L364.978 398.919" stroke="#0095B6" stroke-width="4"/>
<path d="M123.804 146.265C125.896 144.173 125.896 140.781 123.804 138.689C121.712 136.597 118.32 136.597 116.228 138.689C114.135 140.781 114.135 144.173 116.228 146.265C118.32 148.357 121.712 148.357 123.804 146.265Z" fill="#0095B6" stroke="#0095B6"/>
<path d="M235.564 104.218L235.564 135.314L235.564 166.41L289.694 220.54L340.139 220.771L421.909 302.541" stroke="#0095B6" stroke-width="4"/>
<path d="M239.571 107.947C241.663 105.855 241.663 102.463 239.571 100.371C237.479 98.2787 234.087 98.2787 231.995 100.371C229.903 102.463 229.903 105.855 231.995 107.947C234.087 110.039 237.479 110.039 239.571 107.947Z" fill="#0095B6" stroke="#0095B6"/>
<path d="M138.037 191.827L160.025 213.816L182.013 235.804L229.667 235.804L380.041 386.177" stroke="#0095B6" stroke-width="4"/>
<circle r="5.35706" transform="matrix(1 4.72029e-07 -4.72029e-07 -1 137.822 191.686)" fill="#0095B6" stroke="#0095B6"/>
<path d="M76.4527 443.061L129.796 443.061L176.225 396.633L218.9 396.633L271.453 344.079L310.368 334.369L380.882 262.463" stroke="#0095B6" stroke-width="4"/>
<path d="M77.7592 439.147C75.6194 437.008 72.1501 437.008 70.0103 439.147C67.8705 441.287 67.8705 444.756 70.0103 446.896C72.1501 449.036 75.6194 449.036 77.7592 446.896C79.899 444.756 79.899 441.287 77.7592 439.147Z" fill="#0095B6" stroke="#0095B6"/>
<path d="M157.057 379.049L183.728 379.049L210.4 379.049L256.829 332.62L291.809 311.173L355.83 283.802" stroke="#0095B6" stroke-width="4"/>
<path d="M158.363 375.135C156.223 372.995 152.754 372.995 150.614 375.135C148.474 377.275 148.474 380.744 150.614 382.884C152.754 385.024 156.223 385.024 158.363 382.884C160.503 380.744 160.503 377.275 158.363 375.135Z" fill="#0095B6" stroke="#0095B6"/>
<path d="M135.697 535.819L135.697 504.074L135.697 472.33L190.956 417.07L242.453 416.835L385.595 273.693" stroke="#0095B6" stroke-width="4"/>
<path d="M139.399 531.61C141.538 533.75 141.538 537.219 139.399 539.359C137.259 541.498 133.79 541.498 131.65 539.359C129.51 537.219 129.51 533.749 131.65 531.61C133.79 529.47 137.259 529.47 139.399 531.61Z" fill="#0095B6" stroke="#0095B6"/>
<path d="M237.24 539.728L237.24 507.983L237.24 476.239L292.499 420.98L343.995 420.744L427.472 337.268" stroke="#0095B6" stroke-width="4"/>
<path d="M241.336 535.914C243.476 538.054 243.476 541.523 241.336 543.663C239.196 545.803 235.727 545.803 233.587 543.663C231.448 541.523 231.448 538.054 233.587 535.914C235.727 533.774 239.196 533.774 241.336 535.914Z" fill="#0095B6" stroke="#0095B6"/>
<path d="M153.916 485.104L176.363 462.658L198.81 440.211L247.458 440.211L400.969 286.7" stroke="#0095B6" stroke-width="4"/>
<circle cx="153.698" cy="485.248" r="5.47924" fill="#0095B6" stroke="#0095B6"/>
<path d="M640.903 544.726L612.262 495.119L544.157 476.87L521.244 437.184L444.156 416.528L404.469 439.441L304.196 412.573" stroke="#0095B6" stroke-width="4"/>
<path d="M636.527 545.604C635.68 548.762 637.555 552.009 640.713 552.855C643.872 553.701 647.118 551.827 647.965 548.668C648.811 545.51 646.937 542.263 643.778 541.417C640.62 540.571 637.373 542.445 636.527 545.604Z" fill="#0095B6" stroke="#0095B6"/>
<path d="M538.101 504.135L523.78 479.332L509.46 454.528L441.355 436.279L401.012 459.326L298.13 431.759" stroke="#0095B6" stroke-width="4"/>
<path d="M533.724 505.013C532.878 508.171 534.752 511.418 537.911 512.264C541.069 513.111 544.316 511.236 545.162 508.078C546.008 504.919 544.134 501.673 540.975 500.826C537.817 499.98 534.57 501.854 533.724 505.013Z" fill="#0095B6" stroke="#0095B6"/>
<path d="M695.357 439.831L665.836 456.875L636.315 473.919L555.257 452.2L527.389 404.436L317.417 348.175" stroke="#0095B6" stroke-width="4"/>
<path d="M689.419 438.639C690.265 435.481 693.512 433.606 696.67 434.453C699.828 435.299 701.703 438.545 700.857 441.704C700.01 444.862 696.764 446.737 693.605 445.89C690.447 445.044 688.572 441.798 689.419 438.639Z" fill="#0095B6" stroke="#0095B6"/>
<path d="M613.042 332.045L583.521 349.089L554 366.133L472.942 344.414L445.074 296.651L322.624 263.84" stroke="#0095B6" stroke-width="4"/>
<path d="M607.257 330.272C608.103 327.113 611.349 325.239 614.508 326.085C617.666 326.932 619.541 330.178 618.694 333.337C617.848 336.495 614.602 338.37 611.443 337.523C608.285 336.677 606.41 333.43 607.257 330.272Z" fill="#0095B6" stroke="#0095B6"/>
<path d="M638.413 450.113L605.487 441.29L572.56 432.468L546.44 387.227L321.259 326.89" stroke="#0095B6" stroke-width="4"/>
<circle r="5.92066" transform="matrix(-0.5 -0.866025 0.866026 -0.5 638.663 450.239)" fill="#0095B6" stroke="#0095B6"/>
<path d="M181.664 162.609L200.138 181.084L218.613 199.558L259 239.5L266 270L306.5 298" stroke="#0095B6" stroke-width="4"/>
<path d="M179.858 166.214C176.899 166.214 174.501 163.816 174.501 160.857C174.501 157.898 176.899 155.5 179.858 155.5C182.816 155.5 185.215 157.898 185.215 160.857C185.215 163.816 182.816 166.214 179.858 166.214Z" fill="#0095B6" stroke="#0095B6"/>
<path d="M372 487C454.843 487 522 419.843 522 337C522 254.157 454.843 187 372 187C289.157 187 222 254.157 222 337C222 419.843 289.157 487 372 487Z" fill="url(#paint0_linear_719_9466)"/>
<path d="M403.303 483.739C467.5 471.5 509 419.5 519.5 364.5L470 323L463 324.5L453 349L459 339.5L445.5 323L440.5 324.5L429.5 334.5L418.5 324.5H413.5V350.5L414 350.5L414.5 349.5L391.5 323L387 331.5L380.5 323L367 324.5H354.213V328L349 323L333 324.5L323.5 327.5L319.5 323L314 324.5L311.5 339.5L295 323H289L300.5 349V350.5L281 323.5L273 324.5L261 351L403.303 483.739Z" fill="#0095B6"/>
<g clip-path="url(#clip0_719_9466)">
<path d="M391.736 323H385.379V351H407.627V345.485H391.736V323Z" fill="white"/>
<path d="M428.921 340.954L418.857 330.802V351H412.5V323H418.857L428.921 333.153L438.986 323H445.555V351H438.986V330.802L428.921 340.954Z" fill="white"/>
<path d="M272.336 323L261 351H267.886L276.574 329.152L285.367 351H292.254L280.812 323H272.336Z" fill="white"/>
<path d="M308.252 351L319.588 323L312.701 323L304.014 344.848L295.22 323L288.334 323L299.776 351H308.252Z" fill="white"/>
<path d="M348.934 323H322.236V328.323H332.407V350.894L338.764 351V328.43H348.934V323Z" fill="white"/>
<path d="M380.505 323H353.807V328.515H380.505V323Z" fill="white"/>
<path d="M380.505 334.242H353.807V339.758H380.505V334.242Z" fill="white"/>
<path d="M380.505 345.485H353.807V351H380.505V345.485Z" fill="white"/>
<path d="M461.977 323L450.641 351H457.527L466.214 329.152L475.008 351H481.894L470.452 323H461.977Z" fill="white"/>
</g>
<defs>
<linearGradient id="paint0_linear_719_9466" x1="492.652" y1="443.956" x2="189.391" y2="145.261" gradientUnits="userSpaceOnUse">
<stop stop-color="#13A9D1"/>
<stop offset="0.942708" stop-color="white"/>
</linearGradient>
<clipPath id="clip0_719_9466">
<rect width="221" height="28" fill="white" transform="translate(261 323)"/>
</clipPath>
</defs>
</svg>
