<svg width="250" height="250" viewBox="0 0 250 250" fill="none" xmlns="http://www.w3.org/2000/svg">
<path d="M125 250C194.036 250 250 194.036 250 125C250 55.9644 194.036 0 125 0C55.9644 0 0 55.9644 0 125C0 194.036 55.9644 250 125 250Z" fill="url(#paint0_linear_719_10258)"/>
<path d="M151.088 247.283C203.805 233.696 230.435 202.174 245.109 159.783L144.337 65.2304L152.527 77.0404L142.387 62.4191C142.277 62.3083 135.138 70.3111 135.023 70.1994C134.129 69.4913 127.659 70.4982 135.023 62.4191L110.178 65.2304C114.299 77.074 107.588 64.3014 106.622 65.2306C105.663 66.1836 104.532 78.9279 101.742 70.1994L105.153 77.0404H106.622C108.298 85.2833 102.055 69.8908 101.742 70.1994C101.428 70.5129 100.067 69.7799 100.067 70.1994V73.656L95.1677 78.1685L91.9007 85.8634L95.1667 89.0957V106.52L96.9115 108.247H95.1667V108.733H83.6028L91.9012 128.902L95.1672 132.134V149.535L96.912 151.261H95.1672V151.746H83.6033L91.9017 171.915L95.1677 175.148L72.2832 179.891L151.088 247.283Z" fill="#0095B6"/>
<path fill-rule="evenodd" clip-rule="evenodd" d="M128.281 62.8592C126.335 60.9948 123.266 60.9948 121.319 62.8592C109.363 74.3098 70.7051 111.335 70.7051 111.335V175.229C70.7051 177.231 71.5002 179.15 72.9154 180.567C74.332 181.982 76.2517 182.777 78.2533 182.777C98.0874 182.777 151.513 182.777 171.348 182.777C173.349 182.777 175.269 181.982 176.685 180.567C178.101 179.15 178.896 177.231 178.896 175.229V111.335C178.896 111.335 140.238 74.3098 128.281 62.8592Z" fill="#EEEFEF"/>
<path fill-rule="evenodd" clip-rule="evenodd" d="M66.2547 118.123C66.2547 118.123 122.038 64.6858 121.319 65.3752C123.265 63.5108 126.335 63.5108 128.281 65.3752L183.345 118.123C185.849 120.527 189.835 120.446 192.239 117.942C194.643 115.437 194.561 111.452 192.058 109.048L129.156 48.6623C126.722 46.3261 122.877 46.3261 120.443 48.6623L57.5416 109.048C55.0381 111.452 54.9564 115.437 57.3605 117.942C59.7646 120.446 63.75 120.527 66.2547 118.123Z" fill="#424243"/>
<g filter="url(#filter0_d_719_10258)">
<path fill-rule="evenodd" clip-rule="evenodd" d="M124.799 145.036C128.964 145.036 132.347 148.419 132.347 152.584C132.347 156.75 128.964 160.133 124.799 160.133C120.633 160.133 117.25 156.75 117.25 152.584C117.25 148.419 120.633 145.036 124.799 145.036ZM113.422 139.297C116.052 135.939 120.17 133.773 124.799 133.773C129.427 133.773 133.546 135.939 136.175 139.297C138.115 141.774 141.727 142.232 144.236 140.317C146.745 138.404 147.209 134.84 145.269 132.363C140.54 126.322 133.126 122.431 124.799 122.431C116.472 122.431 109.057 126.322 104.328 132.363C102.388 134.84 102.852 138.404 105.361 140.317C107.871 142.232 111.482 141.774 113.422 139.297ZM101.278 123.164C106.479 115.865 115.078 111.089 124.799 111.089C134.519 111.089 143.118 115.865 148.319 123.164C150.144 125.724 153.731 126.342 156.325 124.54C158.919 122.74 159.544 119.2 157.72 116.64C150.44 106.425 138.403 99.7471 124.799 99.7471C111.194 99.7471 99.1574 106.425 91.8772 116.64C90.053 119.2 90.6783 122.74 93.2723 124.54C95.8664 126.342 99.4531 125.724 101.278 123.164Z" fill="#41B3E6"/>
</g>
<path fill-rule="evenodd" clip-rule="evenodd" d="M181.41 138.746C181.41 135.967 179.157 133.714 176.378 133.714C173.599 133.714 171.346 135.967 171.346 138.746C171.346 141.159 171.346 143.532 171.346 143.532H181.41V138.746Z" fill="#FAA923"/>
<path fill-rule="evenodd" clip-rule="evenodd" d="M187.699 151.326C187.699 148.323 186.507 145.444 184.383 143.32C182.26 141.197 179.38 140.004 176.377 140.004C173.374 140.004 170.494 141.197 168.371 143.32C166.247 145.444 165.055 148.323 165.055 151.326C165.055 160.778 165.055 172.713 165.055 172.713H187.699V151.326Z" fill="#FEBE40"/>
<path fill-rule="evenodd" clip-rule="evenodd" d="M192.732 176.487C192.732 172.318 189.353 168.939 185.184 168.939C179.897 168.939 172.859 168.939 167.572 168.939C163.403 168.939 160.023 172.318 160.023 176.487C160.023 177.877 161.149 179.003 162.54 179.003C168.632 179.003 184.124 179.003 190.216 179.003C191.606 179.003 192.732 177.877 192.732 176.487Z" fill="#FEDC91"/>
<defs>
<filter id="filter0_d_719_10258" x="84.832" y="93.7471" width="87.9336" height="80.3853" filterUnits="userSpaceOnUse" color-interpolation-filters="sRGB">
<feFlood flood-opacity="0" result="BackgroundImageFix"/>
<feColorMatrix in="SourceAlpha" type="matrix" values="0 0 0 0 0 0 0 0 0 0 0 0 0 0 0 0 0 0 127 0" result="hardAlpha"/>
<feOffset dx="4" dy="4"/>
<feGaussianBlur stdDeviation="5"/>
<feComposite in2="hardAlpha" operator="out"/>
<feColorMatrix type="matrix" values="0 0 0 0 0 0 0 0 0 0 0 0 0 0 0 0 0 0 0.25 0"/>
<feBlend mode="normal" in2="BackgroundImageFix" result="effect1_dropShadow_719_10258"/>
<feBlend mode="normal" in="SourceGraphic" in2="effect1_dropShadow_719_10258" result="shape"/>
</filter>
<linearGradient id="paint0_linear_719_10258" x1="225.543" y1="214.13" x2="-27.1739" y2="-34.7826" gradientUnits="userSpaceOnUse">
<stop stop-color="#13A9D1"/>
<stop offset="0.942708" stop-color="white"/>
</linearGradient>
</defs>
</svg>
