<svg width="250" height="250" viewBox="0 0 250 250" fill="none" xmlns="http://www.w3.org/2000/svg">
<path d="M125 250C194.036 250 250 194.036 250 125C250 55.9644 194.036 0 125 0C55.9644 0 0 55.9644 0 125C0 194.036 55.9644 250 125 250Z" fill="url(#paint0_linear_719_10180)"/>
<path d="M159.783 245.108C207.609 229.891 234.783 194.022 244.566 161.413L135.327 58.5474L121.196 65.5781L126.087 63.1444C125.978 63.0331 130.337 61.9082 130.223 61.7959C129.334 61.0845 96.902 73.6953 121.196 65.5781L118.478 61.796C129.604 71.2616 129.254 74.7125 118.36 66.516C126.536 81.5235 128.647 72.6089 111.957 65.5781V61.7959C118.475 65.5781 127.094 68.8955 114.674 65.5781C126.551 72.8825 121.196 77.8394 121.196 78.2607L114.674 72.7296L118.478 92.9347L114.674 98.9129L103.781 92.9347L95.8193 89.063V106.569L97.5542 108.304H95.8193V108.793L99.0664 111.413L92.5723 129.057L95.8198 132.304V149.787L97.5547 151.521H95.8198V152.009H107.21L114.674 161.956L126.087 167.391L107.21 196.195L159.783 245.108Z" fill="#0095B6"/>
<path fill-rule="evenodd" clip-rule="evenodd" d="M138.456 193.642C138.067 196.236 135.838 198.156 133.215 198.156H110.545C107.922 198.156 105.693 196.236 105.304 193.642C104.169 186.077 102.006 171.657 102.006 171.657V169.007H141.754V171.657C141.754 171.657 139.591 186.077 138.456 193.642ZM138.456 59.5761C138.067 56.9819 135.838 55.062 133.215 55.062H110.545C107.922 55.062 105.693 56.9819 105.304 59.5761C104.169 67.1415 102.006 81.5609 102.006 81.5609V84.2108H141.754V81.5609C141.754 81.5609 139.591 67.1415 138.456 59.5761Z" fill="#424243"/>
<path fill-rule="evenodd" clip-rule="evenodd" d="M161.629 98.7851C161.629 98.0829 161.349 97.4085 160.852 96.9117C160.355 96.4148 159.681 96.1353 158.979 96.1353C157.134 96.1353 155.004 96.1353 155.004 96.1353V118.659H158.979C159.681 118.659 160.355 118.38 160.852 117.883C161.349 117.386 161.629 116.712 161.629 116.009C161.629 111.676 161.629 103.119 161.629 98.7851Z" fill="#424243"/>
<path fill-rule="evenodd" clip-rule="evenodd" d="M157.655 94.81C157.655 91.2963 156.258 87.9256 153.774 85.4413C151.289 82.957 147.919 81.5605 144.405 81.5605H99.3569C95.8431 81.5605 92.4725 82.957 89.9882 85.4413C87.5039 87.9256 86.1074 91.2963 86.1074 94.81V158.407C86.1074 161.921 87.5039 165.292 89.9882 167.776C92.4725 170.26 95.8431 171.657 99.3569 171.657H144.405C147.919 171.657 151.289 170.26 153.774 167.776C156.258 165.292 157.655 161.921 157.655 158.407V94.81Z" fill="#BDBDBD"/>
<path fill-rule="evenodd" clip-rule="evenodd" d="M152.354 94.81C152.354 90.4192 148.795 86.8604 144.404 86.8604C132.721 86.8604 111.039 86.8604 99.3559 86.8604C94.9651 86.8604 91.4062 90.4192 91.4062 94.81C91.4062 110.042 91.4062 143.176 91.4062 158.407C91.4062 162.798 94.9651 166.357 99.3559 166.357C111.039 166.357 132.721 166.357 144.404 166.357C148.795 166.357 152.354 162.798 152.354 158.407C152.354 143.176 152.354 110.042 152.354 94.81Z" fill="#F6F8F9"/>
<path fill-rule="evenodd" clip-rule="evenodd" d="M116.581 98.7851C116.581 95.8583 114.208 93.4854 111.281 93.4854C108.788 93.4854 105.823 93.4854 103.331 93.4854C100.404 93.4854 98.0312 95.8583 98.0312 98.7851C98.0312 107.195 98.0312 123.499 98.0312 131.909C98.0312 134.836 100.404 137.209 103.331 137.209C105.823 137.209 108.788 137.209 111.281 137.209C114.208 137.209 116.581 134.836 116.581 131.909C116.581 123.499 116.581 107.195 116.581 98.7851Z" fill="#41B3E6"/>
<path fill-rule="evenodd" clip-rule="evenodd" d="M145.731 98.7851C145.731 95.8583 143.358 93.4854 140.431 93.4854C137.939 93.4854 134.974 93.4854 132.481 93.4854C129.555 93.4854 127.182 95.8583 127.182 98.7851C127.182 99.225 127.182 99.6702 127.182 100.11C127.182 103.037 129.555 105.41 132.481 105.41C134.974 105.41 137.939 105.41 140.431 105.41C143.358 105.41 145.731 103.037 145.731 100.11C145.731 99.6702 145.731 99.225 145.731 98.7851Z" fill="#9A605C"/>
<path fill-rule="evenodd" clip-rule="evenodd" d="M145.731 114.685C145.731 111.758 143.358 109.385 140.431 109.385C137.939 109.385 134.974 109.385 132.481 109.385C129.555 109.385 127.182 111.758 127.182 114.685C127.182 115.124 127.182 115.57 127.182 116.009C127.182 118.936 129.555 121.309 132.481 121.309C134.974 121.309 137.939 121.309 140.431 121.309C143.358 121.309 145.731 118.936 145.731 116.009C145.731 115.57 145.731 115.124 145.731 114.685Z" fill="#41B3E6"/>
<path fill-rule="evenodd" clip-rule="evenodd" d="M145.731 130.584C145.731 127.657 143.358 125.284 140.431 125.284C137.939 125.284 134.974 125.284 132.481 125.284C129.555 125.284 127.182 127.657 127.182 130.584C127.182 131.024 127.182 131.469 127.182 131.909C127.182 134.836 129.555 137.209 132.481 137.209C134.974 137.209 137.939 137.209 140.431 137.209C143.358 137.209 145.731 134.836 145.731 131.909C145.731 131.469 145.731 131.024 145.731 130.584Z" fill="#9A605C"/>
<path fill-rule="evenodd" clip-rule="evenodd" d="M145.729 146.483C145.729 145.019 144.543 143.833 143.079 143.833C134.73 143.833 109.031 143.833 100.681 143.833C99.2171 143.833 98.0312 145.019 98.0312 146.483C98.0312 146.484 98.0312 146.484 98.0312 146.486C98.0312 147.947 99.2171 149.133 100.678 149.133C109.026 149.133 134.735 149.133 143.082 149.133C144.543 149.133 145.729 147.947 145.729 146.486C145.729 146.484 145.729 146.484 145.729 146.483Z" fill="#424243"/>
<path fill-rule="evenodd" clip-rule="evenodd" d="M145.729 157.083C145.729 155.618 144.543 154.433 143.079 154.433C134.73 154.433 109.031 154.433 100.681 154.433C99.2171 154.433 98.0312 155.618 98.0312 157.083C98.0312 158.547 99.2171 159.732 100.681 159.732C109.031 159.732 134.73 159.732 143.079 159.732C144.543 159.732 145.729 158.547 145.729 157.083Z" fill="#424243"/>
<g filter="url(#filter0_d_719_10180)">
<path fill-rule="evenodd" clip-rule="evenodd" d="M160.65 63.849C169.425 63.849 176.549 70.9733 176.549 79.7484C176.549 81.2111 177.736 82.3983 179.199 82.3983C180.662 82.3983 181.849 81.2111 181.849 79.7484C181.849 68.0478 172.35 58.5492 160.65 58.5492C159.187 58.5492 158 59.7364 158 61.1991C158 62.6619 159.187 63.849 160.65 63.849ZM160.65 45.2998C179.663 45.2998 195.098 60.7354 195.098 79.7484C195.098 81.2111 196.286 82.3983 197.748 82.3983C199.211 82.3983 200.398 81.2111 200.398 79.7484C200.398 57.8112 182.587 40 160.65 40C159.187 40 158 41.1872 158 42.6499C158 44.1126 159.187 45.2998 160.65 45.2998ZM160.65 54.5744C174.543 54.5744 185.824 65.855 185.824 79.7484C185.824 81.2111 187.011 82.3983 188.474 82.3983C189.936 82.3983 191.124 81.2111 191.124 79.7484C191.124 62.9295 177.469 49.2746 160.65 49.2746C159.187 49.2746 158 50.4618 158 51.9245C158 53.3873 159.187 54.5744 160.65 54.5744Z" fill="white"/>
</g>
<defs>
<filter id="filter0_d_719_10180" x="152" y="34" width="62.3984" height="62.3984" filterUnits="userSpaceOnUse" color-interpolation-filters="sRGB">
<feFlood flood-opacity="0" result="BackgroundImageFix"/>
<feColorMatrix in="SourceAlpha" type="matrix" values="0 0 0 0 0 0 0 0 0 0 0 0 0 0 0 0 0 0 127 0" result="hardAlpha"/>
<feOffset dx="4" dy="4"/>
<feGaussianBlur stdDeviation="5"/>
<feComposite in2="hardAlpha" operator="out"/>
<feColorMatrix type="matrix" values="0 0 0 0 0.0745098 0 0 0 0 0.662745 0 0 0 0 0.819608 0 0 0 1 0"/>
<feBlend mode="normal" in2="BackgroundImageFix" result="effect1_dropShadow_719_10180"/>
<feBlend mode="normal" in="SourceGraphic" in2="effect1_dropShadow_719_10180" result="shape"/>
</filter>
<linearGradient id="paint0_linear_719_10180" x1="225.543" y1="214.13" x2="-27.1739" y2="-34.7826" gradientUnits="userSpaceOnUse">
<stop stop-color="#13A9D1"/>
<stop offset="0.942708" stop-color="white"/>
</linearGradient>
</defs>
</svg>
