<svg width="250" height="250" viewBox="0 0 250 250" fill="none" xmlns="http://www.w3.org/2000/svg">
<g clip-path="url(#clip0_719_10211)">
<path d="M125 250C194.036 250 250 194.036 250 125C250 55.9644 194.036 0 125 0C55.9644 0 0 55.9644 0 125C0 194.036 55.9644 250 125 250Z" fill="url(#paint0_linear_719_10211)"/>
<path d="M128.261 250C182.609 246.196 218.478 220.109 240.761 172.283L200.543 132.134L148.913 110.87L139.674 78.1685C119.026 122.269 135.137 70.3112 135.023 70.1994C134.129 69.4913 123.372 93.9426 130.736 85.8634L113.587 78.1685C117.708 90.0122 113.137 82.0815 108.696 73.6561C113.137 82.0815 104.531 78.9279 101.741 70.1994L109.756 78.1685L105.749 74.1839C107.424 82.4268 102.054 69.8908 101.741 70.1994C109.756 78.1687 100.066 69.78 100.066 70.1994V73.6561L105.922 76.9881L101.741 85.8634L105.749 101.087L95.1661 106.52L96.9108 108.247H95.1661V108.733H83.6021L91.9005 128.902L95.1666 132.134V149.535L96.9113 151.262H95.1666V151.747H83.6026L91.901 171.915L95.1671 175.149L39.6738 171.739L128.261 250Z" fill="#0095B6"/>
<path d="M96.4809 88.1074C90.1558 88.1074 84.4273 91.9335 81.9946 97.772L73.467 118.217C72.2606 121.113 69.7977 123.287 66.7713 124.113L47.0421 129.503C42.5647 130.724 39.42 134.822 39.4199 139.462V159.423C39.4213 159.798 39.4964 160.169 39.641 160.514C39.7856 160.86 39.997 161.174 40.2629 161.438C40.5288 161.702 40.8441 161.911 41.1908 162.053C41.5375 162.195 41.9088 162.267 42.2835 162.266H204.855C205.229 162.267 205.601 162.195 205.947 162.053C206.294 161.911 206.609 161.702 206.875 161.438C207.141 161.174 207.353 160.86 207.497 160.514C207.642 160.169 207.717 159.798 207.718 159.423V139.462C207.718 134.868 204.971 130.681 200.749 128.871L189.463 124.05C187.937 123.395 186.733 122.171 186.094 120.639L176.556 97.772C174.123 91.9335 168.395 88.1074 162.069 88.1074H96.4809Z" fill="#30B1AD"/>
<path d="M39.4187 156.56C39.044 156.561 38.6732 156.636 38.3276 156.781C37.982 156.925 37.6682 157.137 37.4043 157.402C37.1403 157.668 36.9313 157.984 36.7892 158.331C36.6471 158.677 36.5747 159.048 36.5762 159.423V165.129C36.5762 169.821 40.4326 173.678 45.1248 173.678H69.1494C69.9024 173.675 70.6239 173.375 71.1564 172.842C71.6889 172.31 71.9892 171.588 71.9919 170.835V159.423C71.9934 159.048 71.921 158.677 71.7789 158.331C71.6368 157.984 71.4278 157.668 71.1638 157.402C70.8999 157.137 70.5861 156.925 70.2405 156.781C69.8949 156.636 69.5241 156.561 69.1494 156.56H39.4187Z" fill="#D0E2EE"/>
<path d="M83.8679 156.56C83.4932 156.561 83.1225 156.636 82.7768 156.781C82.4312 156.925 82.1175 157.137 81.8535 157.402C81.5895 157.668 81.3805 157.984 81.2384 158.331C81.0964 158.677 81.024 159.048 81.0254 159.423V170.835C81.0281 171.588 81.3284 172.31 81.8609 172.842C82.3934 173.375 83.1149 173.675 83.8679 173.678H160.406C160.78 173.679 161.151 173.607 161.498 173.465C161.845 173.323 162.16 173.114 162.426 172.85C162.692 172.586 162.903 172.272 163.048 171.926C163.193 171.581 163.268 171.21 163.269 170.835V159.423C163.271 159.047 163.197 158.674 163.054 158.326C162.911 157.978 162.7 157.661 162.434 157.395C162.167 157.129 161.851 156.918 161.503 156.775C161.155 156.631 160.782 156.558 160.406 156.56H83.8679Z" fill="#D0E2EE"/>
<path d="M175.145 156.56C174.771 156.561 174.4 156.636 174.054 156.781C173.709 156.925 173.395 157.137 173.131 157.402C172.867 157.668 172.658 157.984 172.516 158.331C172.374 158.677 172.301 159.048 172.303 159.423V170.835C172.305 171.588 172.606 172.31 173.138 172.842C173.671 173.375 174.392 173.675 175.145 173.678H204.855C209.547 173.678 213.425 169.821 213.425 165.129V159.423C213.426 159.047 213.353 158.674 213.21 158.326C213.066 157.978 212.855 157.661 212.589 157.395C212.323 157.129 212.007 156.918 211.659 156.775C211.31 156.631 210.937 156.558 210.561 156.56H175.145Z" fill="#D0E2EE"/>
<path d="M102.186 99.52C97.5752 99.52 93.4247 102.404 91.8057 106.721L87.2577 118.849C85.6217 123.212 88.957 128.051 93.6165 128.051H164.932C169.592 128.05 172.927 123.212 171.291 118.849L166.743 106.721C165.124 102.404 160.974 99.52 156.363 99.52H102.186Z" fill="#87D1EE"/>
<path d="M102.184 99.52C97.776 99.52 93.7962 102.157 92.0391 106.16C93.4134 105.557 94.9191 105.225 96.4791 105.225H150.657C155.268 105.225 159.417 108.111 161.036 112.428L165.587 124.556C166.014 125.695 166.096 126.862 165.911 127.971C170.042 127.352 172.811 122.902 171.292 118.851L166.741 106.723C165.122 102.406 160.973 99.52 156.362 99.52H102.184Z" fill="#1F8B95"/>
<path d="M136.401 156.56V99.52H130.695V156.56H136.401Z" fill="#3A4D5C"/>
<path d="M119.284 133.756C118.531 133.759 117.809 134.059 117.277 134.592C116.744 135.124 116.444 135.846 116.441 136.599C116.44 136.974 116.512 137.345 116.654 137.691C116.796 138.038 117.005 138.354 117.269 138.62C117.533 138.885 117.847 139.097 118.193 139.241C118.538 139.386 118.909 139.461 119.284 139.462H122.148C122.522 139.461 122.893 139.386 123.239 139.241C123.584 139.097 123.898 138.885 124.162 138.62C124.426 138.354 124.635 138.038 124.777 137.691C124.919 137.345 124.992 136.974 124.99 136.599C124.987 135.846 124.687 135.124 124.155 134.592C123.622 134.059 122.901 133.759 122.148 133.756H119.284Z" fill="#3A4D5C"/>
<path d="M144.971 133.756C144.596 133.755 144.225 133.827 143.878 133.969C143.532 134.111 143.216 134.32 142.95 134.584C142.684 134.848 142.473 135.162 142.328 135.508C142.184 135.854 142.109 136.224 142.107 136.599C142.106 136.975 142.179 137.348 142.322 137.696C142.466 138.045 142.677 138.361 142.943 138.627C143.209 138.893 143.525 139.104 143.873 139.248C144.222 139.391 144.595 139.464 144.971 139.462H147.814C148.19 139.464 148.563 139.391 148.911 139.248C149.259 139.104 149.576 138.893 149.842 138.627C150.108 138.361 150.319 138.045 150.462 137.696C150.606 137.348 150.679 136.975 150.677 136.599C150.676 136.224 150.601 135.854 150.456 135.508C150.311 135.162 150.1 134.848 149.834 134.584C149.568 134.32 149.253 134.111 148.906 133.969C148.56 133.827 148.188 133.755 147.814 133.756H144.971Z" fill="#3A4D5C"/>
<path d="M59.3195 126.149L47.041 129.503C42.5637 130.724 39.42 134.823 39.4199 139.464V149.04L41.0188 149.82C41.1147 149.868 41.2133 149.911 41.3141 149.948C42.9938 150.545 44.775 150.847 46.5564 150.851C55.1867 150.851 62.2443 143.799 62.2443 135.168C62.2433 132.741 61.6837 130.349 60.6008 128.177C60.5557 128.083 60.5055 127.992 60.4505 127.904L59.3195 126.149Z" fill="#FEDC91"/>
<path d="M193.292 125.687L192.284 128.177C191.201 130.35 190.642 132.742 190.641 135.169C190.641 139.091 191.372 142.947 193.694 145.988C196.015 149.028 199.935 150.851 204.852 150.851H207.716V139.464C207.716 134.87 204.969 130.683 200.746 128.874L193.292 125.687Z" fill="#DC1C4B"/>
<path d="M105.871 108.911L103.007 111.775C102.476 112.309 102.178 113.032 102.178 113.785C102.178 114.539 102.476 115.262 103.007 115.796C103.272 116.062 103.587 116.274 103.934 116.418C104.281 116.562 104.653 116.636 105.028 116.636C105.404 116.636 105.776 116.562 106.123 116.418C106.47 116.274 106.785 116.062 107.05 115.796L109.892 112.954C110.159 112.689 110.37 112.374 110.514 112.027C110.658 111.68 110.732 111.308 110.732 110.932C110.732 110.557 110.658 110.185 110.514 109.838C110.37 109.491 110.159 109.176 109.892 108.911C109.358 108.38 108.635 108.082 107.882 108.082C107.128 108.082 106.405 108.38 105.871 108.911Z" fill="#2BB3CD"/>
<path d="M120.126 108.911L114.42 114.617C114.154 114.882 113.942 115.197 113.798 115.544C113.654 115.891 113.58 116.263 113.58 116.638C113.58 117.014 113.654 117.386 113.798 117.733C113.942 118.08 114.154 118.394 114.42 118.66C114.685 118.926 115 119.137 115.347 119.281C115.694 119.425 116.066 119.499 116.441 119.499C116.817 119.499 117.189 119.425 117.536 119.281C117.883 119.137 118.198 118.926 118.463 118.66L124.169 112.953C124.435 112.688 124.646 112.374 124.79 112.027C124.934 111.68 125.009 111.308 125.009 110.932C125.009 110.556 124.934 110.184 124.79 109.838C124.646 109.491 124.435 109.176 124.169 108.911C123.904 108.645 123.589 108.433 123.242 108.289C122.895 108.145 122.523 108.071 122.147 108.071C121.772 108.071 121.4 108.145 121.053 108.289C120.706 108.433 120.391 108.645 120.126 108.911Z" fill="#2BB3CD"/>
<path d="M102.587 65.2832C99.2498 65.2832 96.4805 68.0736 96.4805 71.4104V87.7075C96.4805 91.0444 99.2498 93.8137 102.587 93.8137H155.963C159.3 93.8137 162.069 91.0444 162.069 87.7075V71.4104C162.069 68.0736 159.3 65.2832 155.963 65.2832H102.587Z" fill="#9A605C"/>
<path d="M102.585 65.2803C99.3849 65.2803 96.7098 67.848 96.4961 71.0018C96.6233 70.9935 96.7517 70.991 96.8805 70.991H150.256C153.593 70.991 156.362 73.7768 156.362 77.1136V93.4143C156.362 93.5437 156.359 93.6721 156.351 93.7983C159.511 93.5934 162.067 90.9154 162.067 87.7092V71.4085C162.067 68.0717 159.298 65.2803 155.961 65.2803H102.585Z" fill="#66342D"/>
<path d="M119.284 93.8137V65.2832H113.578V93.8137H119.284Z" fill="#F8C09D"/>
<path d="M144.972 93.8137V65.2832H139.266V93.8137H144.972Z" fill="#F8C09D"/>
<path d="M39.421 156.561C37.8435 156.564 36.5682 157.847 36.5742 159.425V162.266H54.5014C56.0788 162.269 57.3541 163.552 57.3481 165.129V173.681H65.9107C67.4816 173.677 68.7543 172.405 68.7575 170.834V159.425C68.7635 157.847 67.4881 156.564 65.9107 156.561H39.421Z" fill="#AABFD0"/>
<path d="M56.7573 156.561C55.6116 159.19 54.9746 162.089 54.9746 165.129C54.9746 168.163 55.6105 171.056 56.7518 173.681H69.1472C69.9017 173.679 70.625 173.379 71.1585 172.845C71.6921 172.312 71.9924 171.588 71.994 170.834V159.425C71.9954 159.049 71.9229 158.678 71.7806 158.331C71.6382 157.984 71.4288 157.668 71.1644 157.402C70.8999 157.136 70.5857 156.925 70.2396 156.781C69.8934 156.637 69.5223 156.562 69.1472 156.561H56.7573Z" fill="#AABFD0"/>
<path d="M83.8666 156.561C83.1101 156.564 82.3858 156.868 81.853 157.405C81.3202 157.942 81.0225 158.668 81.0254 159.425V162.266H154.702C155.078 162.264 155.451 162.338 155.799 162.481C156.147 162.624 156.464 162.835 156.73 163.101C156.996 163.368 157.207 163.684 157.35 164.032C157.494 164.38 157.567 164.753 157.565 165.129V173.681H160.406C160.782 173.682 161.153 173.61 161.5 173.467C161.847 173.325 162.163 173.116 162.429 172.851C162.695 172.587 162.906 172.273 163.05 171.926C163.194 171.58 163.269 171.209 163.27 170.834V159.425C163.271 159.048 163.198 158.675 163.055 158.327C162.912 157.979 162.701 157.663 162.434 157.397C162.168 157.131 161.852 156.92 161.504 156.776C161.156 156.633 160.783 156.56 160.406 156.561H83.8666Z" fill="#AABFD0"/>
<path d="M83.8666 156.561C83.1102 156.564 82.3859 156.867 81.8531 157.404C81.3202 157.941 81.0225 158.668 81.0254 159.425V170.834C81.027 171.587 81.3266 172.31 81.859 172.843C82.3913 173.377 83.1131 173.678 83.8666 173.681H96.2565C97.4007 171.056 98.0392 168.164 98.0392 165.129C98.0392 162.088 97.3996 159.19 96.2509 156.561H83.8666Z" fill="#AABFD0"/>
<path d="M76.4976 148.011C67.0798 148.011 59.4004 155.712 59.4004 165.13C59.4004 174.547 67.0798 182.248 76.4976 182.248C85.9155 182.248 93.6159 174.547 93.6159 165.13C93.6159 155.712 85.9155 148.011 76.4976 148.011Z" fill="#3A4D5C"/>
<path d="M175.148 156.561C174.773 156.562 174.401 156.637 174.055 156.781C173.709 156.925 173.395 157.136 173.13 157.402C172.866 157.668 172.657 157.984 172.514 158.331C172.372 158.678 172.299 159.049 172.301 159.425V170.834C172.302 171.588 172.603 172.312 173.136 172.845C173.67 173.379 174.393 173.679 175.148 173.681H187.537C188.682 171.056 189.32 168.164 189.32 165.129C189.32 162.088 188.681 159.19 187.532 156.561H175.148Z" fill="#AABFD0"/>
<path d="M148.039 156.561C146.893 159.19 146.256 162.088 146.256 165.129C146.256 168.164 146.891 171.056 148.033 173.681H160.406C160.781 173.682 161.153 173.61 161.5 173.467C161.847 173.325 162.162 173.116 162.428 172.851C162.694 172.587 162.905 172.272 163.05 171.926C163.194 171.58 163.269 171.209 163.27 170.834V159.425C163.271 159.048 163.198 158.675 163.055 158.327C162.911 157.979 162.7 157.663 162.434 157.397C162.168 157.13 161.852 156.92 161.504 156.776C161.156 156.633 160.783 156.56 160.406 156.561H148.039Z" fill="#AABFD0"/>
<path d="M156.361 88.1104C162.686 88.1104 165.071 91.1899 167.504 97.0284L180.389 126.123C181.028 127.655 182.233 128.878 183.76 129.532L195.041 134.357C199.263 136.166 202.008 140.353 202.008 144.947V159.425C202.002 161 200.722 162.272 199.147 162.266H204.851C206.427 162.272 207.708 161 207.715 159.425V139.464C207.715 134.87 204.968 130.683 200.745 128.874L189.464 124.049C187.938 123.394 186.732 122.172 186.094 120.639L176.556 97.7706C174.123 91.9321 168.391 88.1104 162.066 88.1104H156.361Z" fill="#1F8B95"/>
<path d="M175.148 156.561C174.773 156.562 174.401 156.636 174.055 156.781C173.709 156.925 173.395 157.137 173.13 157.403C172.866 157.669 172.657 157.984 172.514 158.331C172.372 158.678 172.299 159.05 172.301 159.425V170.834C172.302 171.588 172.603 172.312 173.136 172.845C173.67 173.379 174.393 173.679 175.148 173.681H178.006V165.129C178.004 164.754 178.077 164.382 178.219 164.036C178.361 163.689 178.571 163.373 178.835 163.107C179.1 162.841 179.414 162.63 179.76 162.486C180.106 162.341 180.477 162.267 180.852 162.266H213.426V159.425C213.427 159.048 213.354 158.675 213.211 158.327C213.068 157.979 212.857 157.663 212.591 157.397C212.324 157.131 212.008 156.92 211.66 156.776C211.312 156.633 210.939 156.56 210.562 156.561H175.148Z" fill="#AABFD0"/>
<path d="M167.775 148.011C158.357 148.011 150.678 155.712 150.678 165.13C150.678 174.547 158.357 182.248 167.775 182.248C177.193 182.248 184.893 174.547 184.893 165.13C184.893 155.712 177.193 148.011 167.775 148.011Z" fill="#3A4D5C"/>
<path d="M76.5066 162.266C76.1319 162.267 75.7612 162.343 75.4155 162.487C75.0698 162.632 74.7561 162.843 74.4921 163.109C74.2281 163.375 74.0191 163.69 73.877 164.037C73.735 164.384 73.6626 164.755 73.6641 165.13C73.6667 165.883 73.9671 166.604 74.4996 167.137C75.0321 167.669 75.7535 167.97 76.5066 167.973C77.2597 167.97 77.9812 167.669 78.5137 167.137C79.0462 166.604 79.3465 165.883 79.3491 165.13C79.3506 164.755 79.2783 164.384 79.1362 164.037C78.9941 163.69 78.7852 163.375 78.5212 163.109C78.2572 162.843 77.9435 162.632 77.5978 162.487C77.2521 162.343 76.8813 162.267 76.5066 162.266Z" fill="#0F2437"/>
<path d="M167.782 162.271C167.407 162.272 167.037 162.347 166.691 162.492C166.345 162.637 166.031 162.848 165.767 163.114C165.504 163.38 165.294 163.695 165.152 164.042C165.01 164.389 164.938 164.76 164.939 165.135C164.942 165.888 165.242 166.609 165.775 167.142C166.307 167.674 167.029 167.975 167.782 167.977C168.535 167.975 169.257 167.674 169.789 167.142C170.322 166.609 170.622 165.888 170.625 165.135C170.626 164.76 170.554 164.389 170.412 164.042C170.27 163.695 170.06 163.38 169.797 163.114C169.533 162.848 169.219 162.637 168.873 162.492C168.527 162.347 168.157 162.272 167.782 162.271Z" fill="#0F2437"/>
<path d="M113.577 76.6953C113.202 76.6966 112.831 76.7718 112.486 76.9164C112.14 77.061 111.826 77.2723 111.562 77.5382C111.298 77.8041 111.089 78.1196 110.947 78.4663C110.805 78.813 110.733 79.1842 110.734 79.5589C110.737 80.312 111.037 81.0336 111.57 81.5661C112.102 82.0986 112.824 82.3989 113.577 82.4014H119.283C119.658 82.4029 120.029 82.3307 120.376 82.1886C120.722 82.0465 121.038 81.8373 121.304 81.5734C121.57 81.3094 121.781 80.9955 121.926 80.6499C122.07 80.3042 122.145 79.9336 122.147 79.5589C122.148 79.1825 122.075 78.8095 121.932 78.4614C121.788 78.1133 121.577 77.7969 121.311 77.5307C121.045 77.2645 120.729 77.0535 120.381 76.9102C120.033 76.7668 119.659 76.6938 119.283 76.6953H113.577Z" fill="#FED883"/>
<path d="M139.266 76.6953C138.889 76.6938 138.516 76.7668 138.168 76.9102C137.82 77.0535 137.504 77.2645 137.238 77.5307C136.972 77.7969 136.761 78.1133 136.617 78.4614C136.474 78.8095 136.401 79.1825 136.402 79.5589C136.404 79.9336 136.479 80.3042 136.623 80.6499C136.768 80.9955 136.979 81.3094 137.245 81.5734C137.511 81.8373 137.826 82.0465 138.173 82.1886C138.52 82.3306 138.891 82.4029 139.266 82.4014H144.972C145.725 82.3988 146.447 82.0986 146.979 81.5661C147.512 81.0336 147.812 80.312 147.815 79.5589C147.816 79.1842 147.744 78.813 147.602 78.4663C147.46 78.1196 147.251 77.8041 146.987 77.5382C146.723 77.2723 146.409 77.061 146.063 76.9164C145.718 76.7718 145.347 76.6966 144.972 76.6953H139.266Z" fill="#FED883"/>
<path d="M85.0687 88.1074C84.6922 88.106 84.3192 88.1789 83.9711 88.3223C83.623 88.4657 83.3067 88.6766 83.0405 88.9428C82.7743 89.209 82.5634 89.5254 82.42 89.8735C82.2766 90.2216 82.2036 90.5945 82.2051 90.971C82.2064 91.3457 82.2815 91.7166 82.4261 92.0623C82.5707 92.408 82.7821 92.7215 83.048 92.9855C83.3139 93.2494 83.6292 93.4586 83.9759 93.6007C84.3226 93.7427 84.694 93.815 85.0687 93.8135H173.482C173.856 93.815 174.228 93.7427 174.574 93.6007C174.921 93.4586 175.236 93.2494 175.502 92.9855C175.768 92.7215 175.98 92.408 176.124 92.0623C176.269 91.7166 176.344 91.3457 176.345 90.971C176.347 90.5946 176.274 90.2216 176.13 89.8735C175.987 89.5254 175.776 89.209 175.51 88.9428C175.244 88.6766 174.927 88.4657 174.579 88.3223C174.231 88.1789 173.858 88.106 173.482 88.1074H85.0687Z" fill="#3A4D5C"/>
<path d="M76.4954 148.01C70.3364 148.01 64.9264 151.308 61.916 156.221C64.5064 154.635 67.5434 153.714 70.7907 153.714C80.2085 153.714 87.9103 161.416 87.9103 170.834C87.9103 174.09 86.9913 177.138 85.3977 179.736C90.3182 176.721 93.615 171.294 93.615 165.129C93.615 155.712 85.9132 148.01 76.4954 148.01Z" fill="#0F2437"/>
<path d="M167.773 148.01C161.614 148.01 156.204 151.308 153.193 156.221C155.784 154.635 158.821 153.714 162.068 153.714C171.486 153.714 179.188 161.416 179.188 170.834C179.188 174.09 178.269 177.138 176.675 179.736C181.596 176.721 184.892 171.294 184.892 165.129C184.892 155.712 177.19 148.01 167.773 148.01Z" fill="#0F2437"/>
<path d="M59.3196 126.149L47.0412 129.503C43.8706 130.367 41.368 132.676 40.1777 135.597C40.5528 135.445 40.9392 135.316 41.3365 135.207L53.615 131.853L54.7459 133.608C54.8009 133.696 54.8511 133.787 54.8962 133.881C55.9791 136.053 56.5386 138.445 56.5396 140.872C56.5396 143.727 55.7688 146.411 54.4227 148.722C59.0909 145.998 62.2443 140.936 62.2443 135.168C62.2433 132.741 61.6838 130.348 60.6009 128.176C60.5558 128.083 60.5056 127.992 60.4506 127.903L59.3196 126.149Z" fill="#FEBE40"/>
<path d="M193.292 125.687L192.284 128.177C191.559 129.63 191.07 131.179 190.824 132.773L195.041 134.578C199.264 136.388 202.011 140.575 202.011 145.169V150.634C202.914 150.776 203.862 150.852 204.852 150.852H207.715V139.464C207.715 134.87 204.969 130.684 200.746 128.874L193.292 125.687Z" fill="#B31E48"/>
<g filter="url(#filter0_d_719_10211)">
<path fill-rule="evenodd" clip-rule="evenodd" d="M170.041 79.2836C178.816 79.2836 185.94 86.4078 185.94 95.183C185.94 96.6457 187.127 97.8328 188.59 97.8328C190.052 97.8328 191.24 96.6457 191.24 95.183C191.24 83.4824 181.741 73.9838 170.041 73.9838C168.578 73.9838 167.391 75.171 167.391 76.6337C167.391 78.0965 168.578 79.2836 170.041 79.2836ZM170.041 60.7344C189.053 60.7344 204.489 76.17 204.489 95.183C204.489 96.6457 205.676 97.8328 207.139 97.8328C208.602 97.8328 209.789 96.6457 209.789 95.183C209.789 73.2458 191.978 55.4346 170.041 55.4346C168.578 55.4346 167.391 56.6217 167.391 58.0845C167.391 59.5472 168.578 60.7344 170.041 60.7344ZM170.041 70.009C183.934 70.009 195.214 81.2896 195.214 95.183C195.214 96.6457 196.402 97.8328 197.864 97.8328C199.327 97.8328 200.514 96.6457 200.514 95.183C200.514 78.3641 186.859 64.7092 170.041 64.7092C168.578 64.7092 167.391 65.8963 167.391 67.3591C167.391 68.8218 168.578 70.009 170.041 70.009Z" fill="white"/>
</g>
</g>
<defs>
<filter id="filter0_d_719_10211" x="161.391" y="49.4346" width="62.3984" height="62.3984" filterUnits="userSpaceOnUse" color-interpolation-filters="sRGB">
<feFlood flood-opacity="0" result="BackgroundImageFix"/>
<feColorMatrix in="SourceAlpha" type="matrix" values="0 0 0 0 0 0 0 0 0 0 0 0 0 0 0 0 0 0 127 0" result="hardAlpha"/>
<feOffset dx="4" dy="4"/>
<feGaussianBlur stdDeviation="5"/>
<feComposite in2="hardAlpha" operator="out"/>
<feColorMatrix type="matrix" values="0 0 0 0 0.0745098 0 0 0 0 0.662745 0 0 0 0 0.819608 0 0 0 1 0"/>
<feBlend mode="normal" in2="BackgroundImageFix" result="effect1_dropShadow_719_10211"/>
<feBlend mode="normal" in="SourceGraphic" in2="effect1_dropShadow_719_10211" result="shape"/>
</filter>
<linearGradient id="paint0_linear_719_10211" x1="225.543" y1="214.13" x2="-27.1739" y2="-34.7826" gradientUnits="userSpaceOnUse">
<stop stop-color="#13A9D1"/>
<stop offset="0.942708" stop-color="white"/>
</linearGradient>
<clipPath id="clip0_719_10211">
<rect width="250" height="250" fill="white"/>
</clipPath>
</defs>
</svg>
