<svg width="250" height="250" viewBox="0 0 250 250" fill="none" xmlns="http://www.w3.org/2000/svg">
<g clip-path="url(#clip0_719_10277)">
<path d="M123.912 250C192.948 250 248.912 194.036 248.912 125C248.912 55.9644 192.948 0 123.912 0C54.8765 0 -1.08789 55.9644 -1.08789 125C-1.08789 194.036 54.8765 250 123.912 250Z" fill="url(#paint0_linear_719_10277)"/>
<path d="M149.615 247.031C199 237.5 240.5 195 247.5 143.5L165.051 65.1572L160.547 69.6597L145.573 54.6846C145.463 54.5732 145.33 54.4619 145.216 54.3496C144.328 53.6382 143.238 53.2607 142.147 53.2607H106.585C105.361 53.2607 104.116 53.7495 103.156 54.6831C102.203 55.6406 101.732 56.8843 101.732 58.1294V61.3779H100.066C99.645 61.3779 99.2227 61.5327 98.9116 61.8428C98.5991 62.1577 98.4414 62.5801 98.4414 63.0015V64.6675H95.1938V65.1602H83.6953L91.9468 85.3975L95.1943 88.645V106.151L96.9292 107.886H95.1943V108.375H83.6958L91.9473 128.639L95.1948 131.886V149.369L96.9297 151.104H95.1948V151.591H83.6963L91.9478 171.855L95.1953 175.103V192.605L149.615 247.031Z" fill="#0095B6"/>
<path d="M98.9785 61.3633C98.561 61.3633 98.1484 61.5234 97.8296 61.8335C97.5171 62.1558 97.3535 62.5674 97.3535 62.9824V194.271C97.3535 194.686 97.5186 195.101 97.8296 195.41C98.1484 195.732 98.5596 195.89 98.9785 195.89H147.602C148.013 195.89 148.428 195.732 148.743 195.41C149.065 195.101 149.221 194.686 149.221 194.271V62.9824C149.221 62.5674 149.066 62.1562 148.743 61.8335C148.428 61.5234 148.013 61.3633 147.602 61.3633C147.603 61.3633 98.9785 61.3633 98.9785 61.3633Z" fill="#5D6D7E"/>
<path d="M145.923 61.3633H100.65V58.123C100.65 56.8779 101.121 55.6328 102.074 54.6831C103.028 53.7319 104.269 53.2607 105.513 53.2607H141.058C142.31 53.2607 143.554 53.7319 144.497 54.6831C145.451 55.6333 145.925 56.8779 145.925 58.123V61.3633H145.923Z" fill="#283A4D"/>
<path d="M152.465 64.6621H149.225V106.149H152.465V64.6621Z" fill="#283A4D"/>
<path d="M152.465 107.887H149.225V149.375H152.465V107.887Z" fill="#283A4D"/>
<path d="M152.465 151.1H149.225V192.587H152.465V151.1Z" fill="#283A4D"/>
<path d="M139.496 171.846C139.496 180.797 132.238 188.05 123.288 188.05C114.334 188.05 107.082 180.797 107.082 171.846C107.082 162.893 114.334 155.64 123.288 155.64C132.238 155.641 139.496 162.892 139.496 171.846Z" fill="#C1D354"/>
<path d="M139.496 128.625C139.496 137.581 132.238 144.831 123.288 144.831C114.334 144.831 107.082 137.581 107.082 128.625C107.082 119.671 114.334 112.417 123.288 112.417C132.238 112.417 139.496 119.672 139.496 128.625Z" fill="#FF9D4D"/>
<path d="M139.496 85.4033C139.496 94.3594 132.238 101.616 123.288 101.616C114.334 101.616 107.082 94.3594 107.082 85.4033C107.082 76.4546 114.334 69.1973 123.288 69.1973C132.238 69.1958 139.496 76.4546 139.496 85.4033Z" fill="#F28124"/>
<path d="M143.548 171.846H141.925C141.925 161.565 133.565 153.205 123.288 153.205C113.01 153.205 104.649 161.565 104.649 171.846H103.031C103.031 160.674 112.115 151.586 123.288 151.586C134.46 151.586 143.548 160.675 143.548 171.846Z" fill="#34495E"/>
<path d="M143.548 128.625H141.925C141.925 118.35 133.565 109.988 123.288 109.988C113.01 109.988 104.649 118.348 104.649 128.625H103.031C103.031 117.453 112.115 108.363 123.288 108.363C134.46 108.363 143.548 117.455 143.548 128.625Z" fill="#34495E"/>
<path d="M143.548 85.4033H141.925C141.925 75.1269 133.565 66.7646 123.288 66.7646C113.01 66.7646 104.649 75.1269 104.649 85.4033H103.031C103.031 74.2309 112.115 65.1484 123.288 65.1484C134.46 65.147 143.548 74.2309 143.548 85.4033Z" fill="#34495E"/>
<path d="M155.702 85.4033H152.461V65.147H163.97L155.702 85.4033Z" fill="#34495E"/>
<path d="M155.702 128.625H152.461V108.363H163.97L155.702 128.625Z" fill="#34495E"/>
<path d="M155.702 171.846H152.461V151.586H163.97L155.702 171.846Z" fill="#34495E"/>
<path d="M97.3506 64.6621H94.1133V106.149H97.3506V64.6621Z" fill="#283A4D"/>
<path d="M97.3506 107.887H94.1133V149.375H97.3506V107.887Z" fill="#283A4D"/>
<path d="M97.3506 151.1H94.1133V192.587H97.3506V151.1Z" fill="#283A4D"/>
<path d="M90.8711 85.4033H94.1162V65.147H82.6074L90.8711 85.4033Z" fill="#34495E"/>
<path d="M90.8711 128.625H94.1162V108.363H82.6074L90.8711 128.625Z" fill="#34495E"/>
<path d="M90.8711 171.846H94.1162V151.586H82.6074L90.8711 171.846Z" fill="#34495E"/>
<path d="M120.913 74.9238C119.057 73.0686 115.743 73.3748 113.511 75.6076C111.278 77.8404 110.973 81.1544 112.828 83.0096C114.683 84.8648 117.997 84.5586 120.23 82.3257C122.462 80.0929 122.768 76.7789 120.913 74.9238Z" fill="#FAAD46"/>
<path d="M120.907 118.16C119.053 116.305 115.74 116.612 113.507 118.844C111.274 121.076 110.966 124.39 112.821 126.244C114.675 128.099 117.988 127.793 120.221 125.56C122.454 123.328 122.761 120.015 120.907 118.16Z" fill="#FFCF66"/>
<path d="M120.905 161.374C122.76 163.233 122.451 166.543 120.219 168.774C117.99 171.006 114.674 171.315 112.819 169.456C110.964 167.605 111.269 164.289 113.504 162.06C115.738 159.824 119.05 159.522 120.905 161.374Z" fill="#DBEBA0"/>
<g filter="url(#filter0_d_719_10277)">
<path fill-rule="evenodd" clip-rule="evenodd" d="M154.824 46.6752C163.599 46.6752 170.723 53.7994 170.723 62.5746C170.723 64.0373 171.91 65.2244 173.373 65.2244C174.836 65.2244 176.023 64.0373 176.023 62.5746C176.023 50.874 166.524 41.3754 154.824 41.3754C153.361 41.3754 152.174 42.5626 152.174 44.0253C152.174 45.488 153.361 46.6752 154.824 46.6752ZM154.824 28.126C173.837 28.126 189.272 43.5616 189.272 62.5746C189.272 64.0373 190.459 65.2244 191.922 65.2244C193.385 65.2244 194.572 64.0373 194.572 62.5746C194.572 40.6374 176.761 22.8262 154.824 22.8262C153.361 22.8262 152.174 24.0133 152.174 25.4761C152.174 26.9388 153.361 28.126 154.824 28.126ZM154.824 37.4006C168.717 37.4006 179.998 48.6812 179.998 62.5746C179.998 64.0373 181.185 65.2244 182.648 65.2244C184.11 65.2244 185.297 64.0373 185.297 62.5746C185.297 45.7557 171.643 32.1008 154.824 32.1008C153.361 32.1008 152.174 33.2879 152.174 34.7507C152.174 36.2134 153.361 37.4006 154.824 37.4006Z" fill="white"/>
</g>
</g>
<defs>
<filter id="filter0_d_719_10277" x="146.174" y="16.8262" width="62.3984" height="62.3984" filterUnits="userSpaceOnUse" color-interpolation-filters="sRGB">
<feFlood flood-opacity="0" result="BackgroundImageFix"/>
<feColorMatrix in="SourceAlpha" type="matrix" values="0 0 0 0 0 0 0 0 0 0 0 0 0 0 0 0 0 0 127 0" result="hardAlpha"/>
<feOffset dx="4" dy="4"/>
<feGaussianBlur stdDeviation="5"/>
<feComposite in2="hardAlpha" operator="out"/>
<feColorMatrix type="matrix" values="0 0 0 0 0.0745098 0 0 0 0 0.662745 0 0 0 0 0.819608 0 0 0 1 0"/>
<feBlend mode="normal" in2="BackgroundImageFix" result="effect1_dropShadow_719_10277"/>
<feBlend mode="normal" in="SourceGraphic" in2="effect1_dropShadow_719_10277" result="shape"/>
</filter>
<linearGradient id="paint0_linear_719_10277" x1="224.456" y1="214.13" x2="-28.2618" y2="-34.7826" gradientUnits="userSpaceOnUse">
<stop stop-color="#13A9D1"/>
<stop offset="0.942708" stop-color="white"/>
</linearGradient>
<clipPath id="clip0_719_10277">
<rect width="250" height="250" fill="white"/>
</clipPath>
</defs>
</svg>
